<mxfile host="app.diagrams.net" modified="2023-09-27T04:47:22.318Z" agent="Mozilla/5.0 (Windows NT 10.0; Win64; x64) AppleWebKit/537.36 (KHTML, like Gecko) Chrome/117.0.0.0 Safari/537.36 Edg/117.0.2045.41" etag="TOYpRSkIdCQi6cvj0i0l" version="21.8.2" type="device" pages="10">
  <diagram name="Cas d&#39;utilisation" id="FdpdwDYeMIbEiqRRL_Jj">
    <mxGraphModel dx="4074" dy="2243" grid="1" gridSize="10" guides="1" tooltips="1" connect="1" arrows="1" fold="1" page="1" pageScale="1" pageWidth="850" pageHeight="1100" math="0" shadow="0">
      <root>
        <mxCell id="0" />
        <mxCell id="1" parent="0" />
        <mxCell id="j3-yMUjAJYNPluZzP0-G-1" value="Utilisateur" style="shape=umlActor;verticalLabelPosition=bottom;verticalAlign=top;html=1;outlineConnect=0;" parent="1" vertex="1">
          <mxGeometry x="130" y="150" width="30" height="60" as="geometry" />
        </mxCell>
        <mxCell id="j3-yMUjAJYNPluZzP0-G-6" value="" style="rounded=0;whiteSpace=wrap;html=1;" parent="1" vertex="1">
          <mxGeometry x="200" width="550" height="360" as="geometry" />
        </mxCell>
        <mxCell id="j3-yMUjAJYNPluZzP0-G-7" value="PolyDiff" style="text;html=1;strokeColor=none;fillColor=none;align=center;verticalAlign=middle;whiteSpace=wrap;rounded=0;" parent="1" vertex="1">
          <mxGeometry x="690" width="60" height="30" as="geometry" />
        </mxCell>
        <mxCell id="j3-yMUjAJYNPluZzP0-G-9" value="S&#39;authentifier" style="ellipse;whiteSpace=wrap;html=1;" parent="1" vertex="1">
          <mxGeometry x="350" y="60" width="120" height="40" as="geometry" />
        </mxCell>
        <mxCell id="j3-yMUjAJYNPluZzP0-G-10" value="" style="endArrow=none;html=1;rounded=0;" parent="1" source="j3-yMUjAJYNPluZzP0-G-1" target="j3-yMUjAJYNPluZzP0-G-11" edge="1">
          <mxGeometry width="50" height="50" relative="1" as="geometry">
            <mxPoint x="480" y="200" as="sourcePoint" />
            <mxPoint x="530" y="150" as="targetPoint" />
          </mxGeometry>
        </mxCell>
        <mxCell id="j3-yMUjAJYNPluZzP0-G-11" value="Se créer un compte" style="ellipse;whiteSpace=wrap;html=1;" parent="1" vertex="1">
          <mxGeometry x="350" y="180" width="120" height="40" as="geometry" />
        </mxCell>
        <mxCell id="j3-yMUjAJYNPluZzP0-G-12" value="Choisir une photo de profile" style="ellipse;whiteSpace=wrap;html=1;" parent="1" vertex="1">
          <mxGeometry x="220" y="290" width="140" height="40" as="geometry" />
        </mxCell>
        <mxCell id="j3-yMUjAJYNPluZzP0-G-15" value="«include»" style="html=1;verticalAlign=bottom;endArrow=open;dashed=1;endSize=8;curved=0;rounded=0;exitX=0;exitY=1;exitDx=0;exitDy=0;entryX=0.5;entryY=0;entryDx=0;entryDy=0;" parent="1" source="j3-yMUjAJYNPluZzP0-G-11" target="j3-yMUjAJYNPluZzP0-G-12" edge="1">
          <mxGeometry x="-0.5" relative="1" as="geometry">
            <mxPoint x="310" y="90" as="sourcePoint" />
            <mxPoint x="310" y="140" as="targetPoint" />
            <mxPoint as="offset" />
          </mxGeometry>
        </mxCell>
        <mxCell id="j3-yMUjAJYNPluZzP0-G-16" value="Entrer son courriel" style="ellipse;whiteSpace=wrap;html=1;" parent="1" vertex="1">
          <mxGeometry x="370" y="290" width="140" height="40" as="geometry" />
        </mxCell>
        <mxCell id="j3-yMUjAJYNPluZzP0-G-17" value="Choisir un pseudonyme" style="ellipse;whiteSpace=wrap;html=1;" parent="1" vertex="1">
          <mxGeometry x="550" y="270" width="140" height="40" as="geometry" />
        </mxCell>
        <mxCell id="j3-yMUjAJYNPluZzP0-G-18" value="«include»" style="html=1;verticalAlign=bottom;endArrow=open;dashed=1;endSize=8;curved=0;rounded=0;exitX=0.5;exitY=1;exitDx=0;exitDy=0;entryX=0;entryY=0;entryDx=0;entryDy=0;" parent="1" source="j3-yMUjAJYNPluZzP0-G-11" target="j3-yMUjAJYNPluZzP0-G-16" edge="1">
          <mxGeometry x="-0.5" relative="1" as="geometry">
            <mxPoint x="310" y="190" as="sourcePoint" />
            <mxPoint x="310" y="230" as="targetPoint" />
            <mxPoint as="offset" />
          </mxGeometry>
        </mxCell>
        <mxCell id="j3-yMUjAJYNPluZzP0-G-19" value="«include»" style="html=1;verticalAlign=bottom;endArrow=open;dashed=1;endSize=8;curved=0;rounded=0;exitX=1;exitY=1;exitDx=0;exitDy=0;entryX=0;entryY=0.5;entryDx=0;entryDy=0;" parent="1" source="j3-yMUjAJYNPluZzP0-G-11" target="j3-yMUjAJYNPluZzP0-G-17" edge="1">
          <mxGeometry x="-0.0449" y="5" relative="1" as="geometry">
            <mxPoint x="353" y="183" as="sourcePoint" />
            <mxPoint x="421" y="241" as="targetPoint" />
            <mxPoint as="offset" />
          </mxGeometry>
        </mxCell>
        <mxCell id="j3-yMUjAJYNPluZzP0-G-20" value="Authentification" style="text;html=1;strokeColor=none;fillColor=none;align=center;verticalAlign=middle;whiteSpace=wrap;rounded=0;" parent="1" vertex="1">
          <mxGeometry x="430" width="90" height="30" as="geometry" />
        </mxCell>
        <mxCell id="j3-yMUjAJYNPluZzP0-G-22" value="Confirmer l&#39;adresse courriel" style="ellipse;whiteSpace=wrap;html=1;" parent="1" vertex="1">
          <mxGeometry x="590" y="180" width="120" height="40" as="geometry" />
        </mxCell>
        <mxCell id="j3-yMUjAJYNPluZzP0-G-23" value="«include»" style="html=1;verticalAlign=bottom;endArrow=open;dashed=1;endSize=8;curved=0;rounded=0;exitX=1;exitY=0.5;exitDx=0;exitDy=0;entryX=0;entryY=0.5;entryDx=0;entryDy=0;" parent="1" source="j3-yMUjAJYNPluZzP0-G-11" target="j3-yMUjAJYNPluZzP0-G-22" edge="1">
          <mxGeometry x="-0.048" y="5" relative="1" as="geometry">
            <mxPoint x="370" y="160" as="sourcePoint" />
            <mxPoint x="450" y="190" as="targetPoint" />
            <mxPoint as="offset" />
          </mxGeometry>
        </mxCell>
        <mxCell id="j3-yMUjAJYNPluZzP0-G-24" value="Se connecter avec Google" style="ellipse;whiteSpace=wrap;html=1;" parent="1" vertex="1">
          <mxGeometry x="550" y="60" width="120" height="40" as="geometry" />
        </mxCell>
        <mxCell id="j3-yMUjAJYNPluZzP0-G-25" value="«extends»" style="html=1;verticalAlign=bottom;endArrow=open;dashed=1;endSize=8;curved=0;rounded=0;exitX=0;exitY=0.5;exitDx=0;exitDy=0;entryX=1;entryY=0.5;entryDx=0;entryDy=0;" parent="1" source="j3-yMUjAJYNPluZzP0-G-24" target="j3-yMUjAJYNPluZzP0-G-9" edge="1">
          <mxGeometry x="-0.0476" y="5" relative="1" as="geometry">
            <mxPoint x="520" y="230" as="sourcePoint" />
            <mxPoint x="420" y="200" as="targetPoint" />
            <mxPoint as="offset" />
          </mxGeometry>
        </mxCell>
        <mxCell id="j3-yMUjAJYNPluZzP0-G-26" value="Utilisateur" style="shape=umlActor;verticalLabelPosition=bottom;verticalAlign=top;html=1;outlineConnect=0;" parent="1" vertex="1">
          <mxGeometry x="198.75" y="610" width="30" height="60" as="geometry" />
        </mxCell>
        <mxCell id="j3-yMUjAJYNPluZzP0-G-27" value="" style="rounded=0;whiteSpace=wrap;html=1;" parent="1" vertex="1">
          <mxGeometry x="261.25" y="490" width="450" height="360" as="geometry" />
        </mxCell>
        <mxCell id="j3-yMUjAJYNPluZzP0-G-28" value="PolyDiff" style="text;html=1;strokeColor=none;fillColor=none;align=center;verticalAlign=middle;whiteSpace=wrap;rounded=0;" parent="1" vertex="1">
          <mxGeometry x="651.25" y="490" width="60" height="30" as="geometry" />
        </mxCell>
        <mxCell id="j3-yMUjAJYNPluZzP0-G-30" value="" style="endArrow=none;html=1;rounded=0;entryX=0;entryY=0.5;entryDx=0;entryDy=0;" parent="1" source="j3-yMUjAJYNPluZzP0-G-26" target="j3-yMUjAJYNPluZzP0-G-46" edge="1">
          <mxGeometry width="50" height="50" relative="1" as="geometry">
            <mxPoint x="391.25" y="690" as="sourcePoint" />
            <mxPoint x="91.25000000000011" y="550" as="targetPoint" />
          </mxGeometry>
        </mxCell>
        <mxCell id="j3-yMUjAJYNPluZzP0-G-39" value="Création d&#39;un jeux" style="text;html=1;strokeColor=none;fillColor=none;align=center;verticalAlign=middle;whiteSpace=wrap;rounded=0;" parent="1" vertex="1">
          <mxGeometry x="341.25" y="490" width="120" height="30" as="geometry" />
        </mxCell>
        <mxCell id="j3-yMUjAJYNPluZzP0-G-46" value="Créer un jeux" style="ellipse;whiteSpace=wrap;html=1;" parent="1" vertex="1">
          <mxGeometry x="337.5" y="620" width="120" height="40" as="geometry" />
        </mxCell>
        <mxCell id="j3-yMUjAJYNPluZzP0-G-52" value="Générer des différences aléatoires" style="ellipse;whiteSpace=wrap;html=1;" parent="1" vertex="1">
          <mxGeometry x="521.25" y="720" width="130" height="40" as="geometry" />
        </mxCell>
        <mxCell id="j3-yMUjAJYNPluZzP0-G-55" value="«extends»" style="html=1;verticalAlign=bottom;endArrow=open;dashed=1;endSize=8;curved=0;rounded=0;exitX=0.5;exitY=0;exitDx=0;exitDy=0;entryX=0.784;entryY=0.938;entryDx=0;entryDy=0;entryPerimeter=0;" parent="1" source="j3-yMUjAJYNPluZzP0-G-52" target="j3-yMUjAJYNPluZzP0-G-46" edge="1">
          <mxGeometry x="-0.0544" y="5" relative="1" as="geometry">
            <mxPoint x="491.25" y="700" as="sourcePoint" />
            <mxPoint x="361.25" y="640" as="targetPoint" />
            <mxPoint as="offset" />
          </mxGeometry>
        </mxCell>
        <mxCell id="j3-yMUjAJYNPluZzP0-G-57" value="Dessiner une forme" style="ellipse;whiteSpace=wrap;html=1;" parent="1" vertex="1">
          <mxGeometry x="545" y="620" width="130" height="40" as="geometry" />
        </mxCell>
        <mxCell id="j3-yMUjAJYNPluZzP0-G-59" value="«extends»" style="html=1;verticalAlign=bottom;endArrow=open;dashed=1;endSize=8;curved=0;rounded=0;entryX=1;entryY=0.5;entryDx=0;entryDy=0;" parent="1" source="j3-yMUjAJYNPluZzP0-G-57" target="j3-yMUjAJYNPluZzP0-G-46" edge="1">
          <mxGeometry x="-0.0464" y="5" relative="1" as="geometry">
            <mxPoint x="541.25" y="735" as="sourcePoint" />
            <mxPoint x="451.25" y="640" as="targetPoint" />
            <mxPoint as="offset" />
          </mxGeometry>
        </mxCell>
        <mxCell id="j3-yMUjAJYNPluZzP0-G-69" value="Utilisateur" style="shape=umlActor;verticalLabelPosition=bottom;verticalAlign=top;html=1;outlineConnect=0;" parent="1" vertex="1">
          <mxGeometry x="120" y="1100" width="30" height="60" as="geometry" />
        </mxCell>
        <mxCell id="j3-yMUjAJYNPluZzP0-G-70" value="" style="rounded=0;whiteSpace=wrap;html=1;" parent="1" vertex="1">
          <mxGeometry x="220" y="930" width="681.25" height="400" as="geometry" />
        </mxCell>
        <mxCell id="j3-yMUjAJYNPluZzP0-G-71" value="PolyDiff" style="text;html=1;strokeColor=none;fillColor=none;align=center;verticalAlign=middle;whiteSpace=wrap;rounded=0;" parent="1" vertex="1">
          <mxGeometry x="835" y="940" width="60" height="30" as="geometry" />
        </mxCell>
        <mxCell id="j3-yMUjAJYNPluZzP0-G-73" value="" style="endArrow=none;html=1;rounded=0;entryX=0;entryY=0.5;entryDx=0;entryDy=0;" parent="1" source="j3-yMUjAJYNPluZzP0-G-69" target="j3-yMUjAJYNPluZzP0-G-98" edge="1">
          <mxGeometry width="50" height="50" relative="1" as="geometry">
            <mxPoint x="495" y="1220" as="sourcePoint" />
            <mxPoint x="200" y="1080" as="targetPoint" />
          </mxGeometry>
        </mxCell>
        <mxCell id="j3-yMUjAJYNPluZzP0-G-74" value="Jouer à une partie en mode classique ou illimité" style="text;html=1;strokeColor=none;fillColor=none;align=center;verticalAlign=middle;whiteSpace=wrap;rounded=0;" parent="1" vertex="1">
          <mxGeometry x="457.5" y="940" width="220" height="30" as="geometry" />
        </mxCell>
        <mxCell id="j3-yMUjAJYNPluZzP0-G-98" value="Créer une partie" style="ellipse;whiteSpace=wrap;html=1;" parent="1" vertex="1">
          <mxGeometry x="233.75" y="1115" width="130" height="50" as="geometry" />
        </mxCell>
        <mxCell id="j3-yMUjAJYNPluZzP0-G-100" value="Joindre une partie" style="ellipse;whiteSpace=wrap;html=1;" parent="1" vertex="1">
          <mxGeometry x="228.75" y="1270" width="140" height="50" as="geometry" />
        </mxCell>
        <mxCell id="j3-yMUjAJYNPluZzP0-G-101" value="" style="endArrow=none;html=1;rounded=0;entryX=0;entryY=0.5;entryDx=0;entryDy=0;exitX=0.555;exitY=0.676;exitDx=0;exitDy=0;exitPerimeter=0;" parent="1" source="EgjTinBXH8Gvr-w2_Lfg-30" target="j3-yMUjAJYNPluZzP0-G-100" edge="1">
          <mxGeometry width="50" height="50" relative="1" as="geometry">
            <mxPoint x="155" y="1190" as="sourcePoint" />
            <mxPoint x="250" y="1160" as="targetPoint" />
          </mxGeometry>
        </mxCell>
        <mxCell id="j3-yMUjAJYNPluZzP0-G-106" value="«include»" style="html=1;verticalAlign=bottom;endArrow=open;dashed=1;endSize=8;curved=0;rounded=0;entryX=0;entryY=0.5;entryDx=0;entryDy=0;" parent="1" source="j3-yMUjAJYNPluZzP0-G-98" target="j3-yMUjAJYNPluZzP0-G-109" edge="1">
          <mxGeometry x="-0.0307" y="-4" relative="1" as="geometry">
            <mxPoint x="480" y="1155" as="sourcePoint" />
            <mxPoint x="380" y="1155" as="targetPoint" />
            <mxPoint y="1" as="offset" />
          </mxGeometry>
        </mxCell>
        <mxCell id="j3-yMUjAJYNPluZzP0-G-107" value="Abandonner la partie" style="ellipse;whiteSpace=wrap;html=1;" parent="1" vertex="1">
          <mxGeometry x="630" y="1270" width="140" height="50" as="geometry" />
        </mxCell>
        <mxCell id="j3-yMUjAJYNPluZzP0-G-108" value="«extend»" style="html=1;verticalAlign=bottom;endArrow=open;dashed=1;endSize=8;curved=0;rounded=0;entryX=0.5;entryY=1;entryDx=0;entryDy=0;" parent="1" source="j3-yMUjAJYNPluZzP0-G-107" target="j3-yMUjAJYNPluZzP0-G-109" edge="1">
          <mxGeometry x="-0.0481" y="5" relative="1" as="geometry">
            <mxPoint x="490" y="1165" as="sourcePoint" />
            <mxPoint x="390" y="1235" as="targetPoint" />
            <mxPoint as="offset" />
          </mxGeometry>
        </mxCell>
        <mxCell id="j3-yMUjAJYNPluZzP0-G-109" value="Jouer une partie" style="ellipse;whiteSpace=wrap;html=1;" parent="1" vertex="1">
          <mxGeometry x="536.25" y="1170" width="130" height="50" as="geometry" />
        </mxCell>
        <mxCell id="j3-yMUjAJYNPluZzP0-G-110" value="«include»" style="html=1;verticalAlign=bottom;endArrow=open;dashed=1;endSize=8;curved=0;rounded=0;entryX=0;entryY=0.5;entryDx=0;entryDy=0;exitX=1;exitY=0.5;exitDx=0;exitDy=0;" parent="1" source="j3-yMUjAJYNPluZzP0-G-100" target="j3-yMUjAJYNPluZzP0-G-111" edge="1">
          <mxGeometry x="0.0461" y="-1" relative="1" as="geometry">
            <mxPoint x="350" y="1255" as="sourcePoint" />
            <mxPoint x="430" y="1175" as="targetPoint" />
            <mxPoint as="offset" />
          </mxGeometry>
        </mxCell>
        <mxCell id="j3-yMUjAJYNPluZzP0-G-111" value="Rejoindre liste d&#39;attente" style="ellipse;whiteSpace=wrap;html=1;" parent="1" vertex="1">
          <mxGeometry x="442.5" y="1270" width="140" height="50" as="geometry" />
        </mxCell>
        <mxCell id="j3-yMUjAJYNPluZzP0-G-112" value="«include»" style="html=1;verticalAlign=bottom;endArrow=open;dashed=1;endSize=8;curved=0;rounded=0;entryX=0;entryY=1;entryDx=0;entryDy=0;exitX=0.56;exitY=0.018;exitDx=0;exitDy=0;exitPerimeter=0;" parent="1" source="j3-yMUjAJYNPluZzP0-G-111" target="j3-yMUjAJYNPluZzP0-G-109" edge="1">
          <mxGeometry x="0.0623" y="-2" relative="1" as="geometry">
            <mxPoint x="390" y="1235" as="sourcePoint" />
            <mxPoint x="430" y="1280" as="targetPoint" />
            <mxPoint y="-1" as="offset" />
          </mxGeometry>
        </mxCell>
        <mxCell id="j3-yMUjAJYNPluZzP0-G-120" value="" style="rounded=0;whiteSpace=wrap;html=1;" parent="1" vertex="1">
          <mxGeometry x="335" y="1860" width="325" height="470" as="geometry" />
        </mxCell>
        <mxCell id="j3-yMUjAJYNPluZzP0-G-121" value="Module de messagerie" style="text;html=1;strokeColor=none;fillColor=none;align=center;verticalAlign=middle;whiteSpace=wrap;rounded=0;" parent="1" vertex="1">
          <mxGeometry x="397.5" y="1860" width="220" height="30" as="geometry" />
        </mxCell>
        <mxCell id="j3-yMUjAJYNPluZzP0-G-123" value="PolyDiff" style="text;html=1;strokeColor=none;fillColor=none;align=center;verticalAlign=middle;whiteSpace=wrap;rounded=0;" parent="1" vertex="1">
          <mxGeometry x="600" y="1860" width="60" height="30" as="geometry" />
        </mxCell>
        <mxCell id="j3-yMUjAJYNPluZzP0-G-124" value="Utilisateurs 1...n" style="shape=umlActor;verticalLabelPosition=bottom;verticalAlign=top;html=1;outlineConnect=0;" parent="1" vertex="1">
          <mxGeometry x="265" y="2000" width="30" height="60" as="geometry" />
        </mxCell>
        <mxCell id="j3-yMUjAJYNPluZzP0-G-126" value="Envoyer un message dans un canal de discussion" style="ellipse;whiteSpace=wrap;html=1;" parent="1" vertex="1">
          <mxGeometry x="420" y="1930" width="160" height="50" as="geometry" />
        </mxCell>
        <mxCell id="j3-yMUjAJYNPluZzP0-G-127" value="Créer un canal de discussion" style="ellipse;whiteSpace=wrap;html=1;" parent="1" vertex="1">
          <mxGeometry x="437.5" y="2010" width="140" height="50" as="geometry" />
        </mxCell>
        <mxCell id="j3-yMUjAJYNPluZzP0-G-128" value="Supprimer un canal de discussion" style="ellipse;whiteSpace=wrap;html=1;" parent="1" vertex="1">
          <mxGeometry x="435" y="2100" width="140" height="50" as="geometry" />
        </mxCell>
        <mxCell id="j3-yMUjAJYNPluZzP0-G-129" value="Quitter un canal de discussion" style="ellipse;whiteSpace=wrap;html=1;" parent="1" vertex="1">
          <mxGeometry x="430" y="2240" width="140" height="50" as="geometry" />
        </mxCell>
        <mxCell id="j3-yMUjAJYNPluZzP0-G-130" value="Joindre un canal de discussion" style="ellipse;whiteSpace=wrap;html=1;" parent="1" vertex="1">
          <mxGeometry x="435" y="2170" width="140" height="50" as="geometry" />
        </mxCell>
        <mxCell id="j3-yMUjAJYNPluZzP0-G-133" value="" style="endArrow=none;html=1;rounded=0;entryX=0;entryY=0.5;entryDx=0;entryDy=0;" parent="1" source="j3-yMUjAJYNPluZzP0-G-124" target="j3-yMUjAJYNPluZzP0-G-126" edge="1">
          <mxGeometry width="50" height="50" relative="1" as="geometry">
            <mxPoint x="325" y="1420" as="sourcePoint" />
            <mxPoint x="405" y="1445" as="targetPoint" />
          </mxGeometry>
        </mxCell>
        <mxCell id="j3-yMUjAJYNPluZzP0-G-134" value="" style="endArrow=none;html=1;rounded=0;entryX=1;entryY=0.5;entryDx=0;entryDy=0;" parent="1" source="6W4Lhbdf1CiXT9xY3Ah4-2" target="j3-yMUjAJYNPluZzP0-G-127" edge="1">
          <mxGeometry width="50" height="50" relative="1" as="geometry">
            <mxPoint x="330" y="2026" as="sourcePoint" />
            <mxPoint x="430" y="1935" as="targetPoint" />
          </mxGeometry>
        </mxCell>
        <mxCell id="j3-yMUjAJYNPluZzP0-G-136" value="" style="endArrow=none;html=1;rounded=0;entryX=0;entryY=0.5;entryDx=0;entryDy=0;" parent="1" source="j3-yMUjAJYNPluZzP0-G-124" target="j3-yMUjAJYNPluZzP0-G-130" edge="1">
          <mxGeometry width="50" height="50" relative="1" as="geometry">
            <mxPoint x="330" y="2054" as="sourcePoint" />
            <mxPoint x="440" y="2155" as="targetPoint" />
          </mxGeometry>
        </mxCell>
        <mxCell id="j3-yMUjAJYNPluZzP0-G-137" value="" style="endArrow=none;html=1;rounded=0;entryX=0;entryY=0.5;entryDx=0;entryDy=0;" parent="1" source="j3-yMUjAJYNPluZzP0-G-124" target="j3-yMUjAJYNPluZzP0-G-129" edge="1">
          <mxGeometry width="50" height="50" relative="1" as="geometry">
            <mxPoint x="330" y="2045" as="sourcePoint" />
            <mxPoint x="440" y="2085" as="targetPoint" />
          </mxGeometry>
        </mxCell>
        <mxCell id="j3-yMUjAJYNPluZzP0-G-147" value="Utilisateur" style="shape=umlActor;verticalLabelPosition=bottom;verticalAlign=top;html=1;outlineConnect=0;" parent="1" vertex="1">
          <mxGeometry x="282.5" y="2670" width="30" height="60" as="geometry" />
        </mxCell>
        <mxCell id="j3-yMUjAJYNPluZzP0-G-148" value="" style="rounded=0;whiteSpace=wrap;html=1;" parent="1" vertex="1">
          <mxGeometry x="342.5" y="2550" width="335" height="460" as="geometry" />
        </mxCell>
        <mxCell id="j3-yMUjAJYNPluZzP0-G-149" value="PolyDiff" style="text;html=1;strokeColor=none;fillColor=none;align=center;verticalAlign=middle;whiteSpace=wrap;rounded=0;" parent="1" vertex="1">
          <mxGeometry x="617.5" y="2550" width="60" height="30" as="geometry" />
        </mxCell>
        <mxCell id="j3-yMUjAJYNPluZzP0-G-150" value="" style="endArrow=none;html=1;rounded=0;entryX=0;entryY=0.5;entryDx=0;entryDy=0;" parent="1" source="j3-yMUjAJYNPluZzP0-G-147" target="j3-yMUjAJYNPluZzP0-G-168" edge="1">
          <mxGeometry width="50" height="50" relative="1" as="geometry">
            <mxPoint x="652.5" y="2720" as="sourcePoint" />
            <mxPoint x="397.5000000000002" y="2645.0000000000005" as="targetPoint" />
          </mxGeometry>
        </mxCell>
        <mxCell id="j3-yMUjAJYNPluZzP0-G-151" value="Module Administration" style="text;html=1;strokeColor=none;fillColor=none;align=center;verticalAlign=middle;whiteSpace=wrap;rounded=0;" parent="1" vertex="1">
          <mxGeometry x="402.5" y="2550" width="220" height="30" as="geometry" />
        </mxCell>
        <mxCell id="j3-yMUjAJYNPluZzP0-G-154" value="" style="endArrow=none;html=1;rounded=0;entryX=0;entryY=0.5;entryDx=0;entryDy=0;" parent="1" source="j3-yMUjAJYNPluZzP0-G-147" target="j3-yMUjAJYNPluZzP0-G-172" edge="1">
          <mxGeometry width="50" height="50" relative="1" as="geometry">
            <mxPoint x="322.5" y="2703" as="sourcePoint" />
            <mxPoint x="392.5000000000002" y="2715.0000000000005" as="targetPoint" />
          </mxGeometry>
        </mxCell>
        <mxCell id="j3-yMUjAJYNPluZzP0-G-168" value="Modifier les paramètres de son compte" style="ellipse;whiteSpace=wrap;html=1;" parent="1" vertex="1">
          <mxGeometry x="447.5" y="2630" width="140" height="50" as="geometry" />
        </mxCell>
        <mxCell id="j3-yMUjAJYNPluZzP0-G-172" value="Consulter les statistiques du compte" style="ellipse;whiteSpace=wrap;html=1;" parent="1" vertex="1">
          <mxGeometry x="445" y="2710" width="145" height="50" as="geometry" />
        </mxCell>
        <mxCell id="j3-yMUjAJYNPluZzP0-G-174" value="Consulter l&#39;historique des parties" style="ellipse;whiteSpace=wrap;html=1;" parent="1" vertex="1">
          <mxGeometry x="445" y="2790" width="145" height="50" as="geometry" />
        </mxCell>
        <mxCell id="j3-yMUjAJYNPluZzP0-G-185" value="" style="endArrow=none;html=1;rounded=0;entryX=0;entryY=0.5;entryDx=0;entryDy=0;" parent="1" source="j3-yMUjAJYNPluZzP0-G-147" target="j3-yMUjAJYNPluZzP0-G-174" edge="1">
          <mxGeometry width="50" height="50" relative="1" as="geometry">
            <mxPoint x="322.5" y="2718" as="sourcePoint" />
            <mxPoint x="437.5" y="2775" as="targetPoint" />
          </mxGeometry>
        </mxCell>
        <mxCell id="EgjTinBXH8Gvr-w2_Lfg-1" value="" style="endArrow=none;html=1;rounded=0;entryX=0;entryY=0.5;entryDx=0;entryDy=0;" parent="1" source="j3-yMUjAJYNPluZzP0-G-1" target="j3-yMUjAJYNPluZzP0-G-9" edge="1">
          <mxGeometry width="50" height="50" relative="1" as="geometry">
            <mxPoint x="170" y="191" as="sourcePoint" />
            <mxPoint x="361" y="206" as="targetPoint" />
          </mxGeometry>
        </mxCell>
        <mxCell id="EgjTinBXH8Gvr-w2_Lfg-2" value="FireBase" style="shape=umlActor;verticalLabelPosition=bottom;verticalAlign=top;html=1;outlineConnect=0;" parent="1" vertex="1">
          <mxGeometry x="785" y="70" width="30" height="60" as="geometry" />
        </mxCell>
        <mxCell id="EgjTinBXH8Gvr-w2_Lfg-3" value="MongoDB" style="shape=umlActor;verticalLabelPosition=bottom;verticalAlign=top;html=1;outlineConnect=0;" parent="1" vertex="1">
          <mxGeometry x="755" y="780" width="30" height="60" as="geometry" />
        </mxCell>
        <mxCell id="EgjTinBXH8Gvr-w2_Lfg-7" value="" style="endArrow=none;html=1;rounded=0;" parent="1" source="EgjTinBXH8Gvr-w2_Lfg-2" target="j3-yMUjAJYNPluZzP0-G-24" edge="1">
          <mxGeometry width="50" height="50" relative="1" as="geometry">
            <mxPoint x="650" y="260" as="sourcePoint" />
            <mxPoint x="700" y="210" as="targetPoint" />
          </mxGeometry>
        </mxCell>
        <mxCell id="EgjTinBXH8Gvr-w2_Lfg-8" value="TODO: Écrire dans le document d&#39;architecture qu&#39;on assume que l&#39;utilisateur s&#39;est authentifié avant chaque vue de création de jeux.&amp;nbsp;" style="text;html=1;strokeColor=none;fillColor=none;align=center;verticalAlign=middle;whiteSpace=wrap;rounded=0;" parent="1" vertex="1">
          <mxGeometry x="25" y="3120" width="430" height="30" as="geometry" />
        </mxCell>
        <mxCell id="EgjTinBXH8Gvr-w2_Lfg-9" value="Utiliser des outils" style="ellipse;whiteSpace=wrap;html=1;" parent="1" vertex="1">
          <mxGeometry x="541.25" y="530" width="120" height="40" as="geometry" />
        </mxCell>
        <mxCell id="EgjTinBXH8Gvr-w2_Lfg-12" value="«extends»" style="html=1;verticalAlign=bottom;endArrow=open;dashed=1;endSize=8;curved=0;rounded=0;exitX=0;exitY=0.5;exitDx=0;exitDy=0;entryX=0.667;entryY=0;entryDx=0;entryDy=0;entryPerimeter=0;" parent="1" source="EgjTinBXH8Gvr-w2_Lfg-9" target="j3-yMUjAJYNPluZzP0-G-46" edge="1">
          <mxGeometry x="-0.0539" y="5" relative="1" as="geometry">
            <mxPoint x="241.25" y="660" as="sourcePoint" />
            <mxPoint x="341.25" y="650" as="targetPoint" />
            <mxPoint as="offset" />
          </mxGeometry>
        </mxCell>
        <mxCell id="EpUMV70DY-0qkeXK0v6a-1" style="edgeStyle=orthogonalEdgeStyle;rounded=0;orthogonalLoop=1;jettySize=auto;html=1;dashed=1;endArrow=open;endFill=0;entryX=0.5;entryY=0;entryDx=0;entryDy=0;" edge="1" parent="1" source="EgjTinBXH8Gvr-w2_Lfg-14" target="EpUMV70DY-0qkeXK0v6a-4">
          <mxGeometry relative="1" as="geometry" />
        </mxCell>
        <mxCell id="EpUMV70DY-0qkeXK0v6a-3" value="«include»" style="edgeLabel;html=1;align=center;verticalAlign=middle;resizable=0;points=[];" vertex="1" connectable="0" parent="EpUMV70DY-0qkeXK0v6a-1">
          <mxGeometry x="-0.4234" relative="1" as="geometry">
            <mxPoint as="offset" />
          </mxGeometry>
        </mxCell>
        <mxCell id="EgjTinBXH8Gvr-w2_Lfg-14" value="Soumettre le jeux" style="ellipse;whiteSpace=wrap;html=1;" parent="1" vertex="1">
          <mxGeometry x="385" y="760" width="120" height="40" as="geometry" />
        </mxCell>
        <mxCell id="EgjTinBXH8Gvr-w2_Lfg-15" value="«include»" style="html=1;verticalAlign=bottom;endArrow=open;dashed=1;endSize=8;curved=0;rounded=0;exitX=0.5;exitY=1;exitDx=0;exitDy=0;entryX=0.5;entryY=0;entryDx=0;entryDy=0;" parent="1" source="j3-yMUjAJYNPluZzP0-G-46" target="EgjTinBXH8Gvr-w2_Lfg-14" edge="1">
          <mxGeometry x="-0.0464" y="5" relative="1" as="geometry">
            <mxPoint x="461.25" y="650" as="sourcePoint" />
            <mxPoint x="551.25" y="662" as="targetPoint" />
            <mxPoint as="offset" />
          </mxGeometry>
        </mxCell>
        <mxCell id="EgjTinBXH8Gvr-w2_Lfg-19" value="Configurer la partie" style="ellipse;whiteSpace=wrap;html=1;" parent="1" vertex="1">
          <mxGeometry x="375" y="1060" width="130" height="50" as="geometry" />
        </mxCell>
        <mxCell id="EgjTinBXH8Gvr-w2_Lfg-20" value="extend" style="html=1;verticalAlign=bottom;endArrow=open;dashed=1;endSize=8;curved=0;rounded=0;entryX=1;entryY=0;entryDx=0;entryDy=0;" parent="1" source="EgjTinBXH8Gvr-w2_Lfg-19" target="j3-yMUjAJYNPluZzP0-G-98" edge="1">
          <mxGeometry x="-0.0307" y="-4" relative="1" as="geometry">
            <mxPoint x="427" y="1119" as="sourcePoint" />
            <mxPoint x="480" y="1155" as="targetPoint" />
            <mxPoint y="1" as="offset" />
          </mxGeometry>
        </mxCell>
        <mxCell id="EgjTinBXH8Gvr-w2_Lfg-23" value="Observer" style="ellipse;whiteSpace=wrap;html=1;" parent="1" vertex="1">
          <mxGeometry x="612.5" y="1060" width="130" height="50" as="geometry" />
        </mxCell>
        <mxCell id="EgjTinBXH8Gvr-w2_Lfg-25" value="Observateur" style="shape=umlActor;verticalLabelPosition=bottom;verticalAlign=top;html=1;outlineConnect=0;" parent="1" vertex="1">
          <mxGeometry x="850" y="1055" width="30" height="60" as="geometry" />
        </mxCell>
        <mxCell id="EgjTinBXH8Gvr-w2_Lfg-27" value="" style="endArrow=none;html=1;rounded=0;" parent="1" source="EgjTinBXH8Gvr-w2_Lfg-23" target="EgjTinBXH8Gvr-w2_Lfg-25" edge="1">
          <mxGeometry width="50" height="50" relative="1" as="geometry">
            <mxPoint x="510" y="1240" as="sourcePoint" />
            <mxPoint x="560" y="1190" as="targetPoint" />
          </mxGeometry>
        </mxCell>
        <mxCell id="EgjTinBXH8Gvr-w2_Lfg-28" value="«include»" style="html=1;verticalAlign=bottom;endArrow=open;dashed=1;endSize=8;curved=0;rounded=0;entryX=0.5;entryY=0;entryDx=0;entryDy=0;" parent="1" source="EgjTinBXH8Gvr-w2_Lfg-23" target="j3-yMUjAJYNPluZzP0-G-109" edge="1">
          <mxGeometry x="-0.0307" y="-4" relative="1" as="geometry">
            <mxPoint x="380" y="1168" as="sourcePoint" />
            <mxPoint x="550" y="1175" as="targetPoint" />
            <mxPoint y="1" as="offset" />
          </mxGeometry>
        </mxCell>
        <mxCell id="EgjTinBXH8Gvr-w2_Lfg-30" value="Joueurs 2..4" style="shape=umlActor;verticalLabelPosition=bottom;verticalAlign=top;html=1;outlineConnect=0;" parent="1" vertex="1">
          <mxGeometry x="120" y="1230" width="30" height="60" as="geometry" />
        </mxCell>
        <mxCell id="EgjTinBXH8Gvr-w2_Lfg-58" value="Utilisateur" style="shape=umlActor;verticalLabelPosition=bottom;verticalAlign=top;html=1;outlineConnect=0;" parent="1" vertex="1">
          <mxGeometry x="200" y="1510" width="30" height="60" as="geometry" />
        </mxCell>
        <mxCell id="EgjTinBXH8Gvr-w2_Lfg-59" value="" style="rounded=0;whiteSpace=wrap;html=1;" parent="1" vertex="1">
          <mxGeometry x="255" y="1470" width="520" height="360" as="geometry" />
        </mxCell>
        <mxCell id="EgjTinBXH8Gvr-w2_Lfg-60" value="PolyDiff" style="text;html=1;strokeColor=none;fillColor=none;align=center;verticalAlign=middle;whiteSpace=wrap;rounded=0;" parent="1" vertex="1">
          <mxGeometry x="716.25" y="1470" width="60" height="30" as="geometry" />
        </mxCell>
        <mxCell id="EgjTinBXH8Gvr-w2_Lfg-61" value="" style="endArrow=none;html=1;rounded=0;entryX=0;entryY=0.5;entryDx=0;entryDy=0;" parent="1" source="EgjTinBXH8Gvr-w2_Lfg-58" target="EgjTinBXH8Gvr-w2_Lfg-63" edge="1">
          <mxGeometry width="50" height="50" relative="1" as="geometry">
            <mxPoint x="570" y="1670" as="sourcePoint" />
            <mxPoint x="270" y="1530" as="targetPoint" />
          </mxGeometry>
        </mxCell>
        <mxCell id="EgjTinBXH8Gvr-w2_Lfg-62" value="Rejouer la partie" style="text;html=1;strokeColor=none;fillColor=none;align=center;verticalAlign=middle;whiteSpace=wrap;rounded=0;" parent="1" vertex="1">
          <mxGeometry x="455" y="1470" width="120" height="30" as="geometry" />
        </mxCell>
        <mxCell id="EgjTinBXH8Gvr-w2_Lfg-63" value="Rejouer la partie" style="ellipse;whiteSpace=wrap;html=1;" parent="1" vertex="1">
          <mxGeometry x="370" y="1565" width="120" height="40" as="geometry" />
        </mxCell>
        <mxCell id="EgjTinBXH8Gvr-w2_Lfg-66" value="Terminer la partie" style="ellipse;whiteSpace=wrap;html=1;" parent="1" vertex="1">
          <mxGeometry x="560" y="1505" width="130" height="40" as="geometry" />
        </mxCell>
        <mxCell id="EgjTinBXH8Gvr-w2_Lfg-67" value="«extends»" style="html=1;verticalAlign=bottom;endArrow=open;dashed=1;endSize=8;curved=0;rounded=0;" parent="1" source="EgjTinBXH8Gvr-w2_Lfg-66" target="EgjTinBXH8Gvr-w2_Lfg-63" edge="1">
          <mxGeometry x="-0.0416" y="5" relative="1" as="geometry">
            <mxPoint x="720" y="1715" as="sourcePoint" />
            <mxPoint x="630" y="1620" as="targetPoint" />
            <mxPoint as="offset" />
          </mxGeometry>
        </mxCell>
        <mxCell id="EgjTinBXH8Gvr-w2_Lfg-88" value="Sauvegarde la partie" style="ellipse;whiteSpace=wrap;html=1;" parent="1" vertex="1">
          <mxGeometry x="465" y="1710" width="120" height="40" as="geometry" />
        </mxCell>
        <mxCell id="EgjTinBXH8Gvr-w2_Lfg-89" value="Contrôler la vitesse de replay" style="ellipse;whiteSpace=wrap;html=1;" parent="1" vertex="1">
          <mxGeometry x="540" y="1615" width="120" height="40" as="geometry" />
        </mxCell>
        <mxCell id="EgjTinBXH8Gvr-w2_Lfg-90" value="«extends»" style="html=1;verticalAlign=bottom;endArrow=open;dashed=1;endSize=8;curved=0;rounded=0;exitX=0;exitY=0.5;exitDx=0;exitDy=0;entryX=0.903;entryY=0.76;entryDx=0;entryDy=0;entryPerimeter=0;" parent="1" source="EgjTinBXH8Gvr-w2_Lfg-89" target="EgjTinBXH8Gvr-w2_Lfg-63" edge="1">
          <mxGeometry x="-0.0416" y="5" relative="1" as="geometry">
            <mxPoint x="589" y="1549" as="sourcePoint" />
            <mxPoint x="484" y="1581" as="targetPoint" />
            <mxPoint as="offset" />
          </mxGeometry>
        </mxCell>
        <mxCell id="EgjTinBXH8Gvr-w2_Lfg-91" value="«extends»" style="html=1;verticalAlign=bottom;endArrow=open;dashed=1;endSize=8;curved=0;rounded=0;exitX=0.5;exitY=0;exitDx=0;exitDy=0;entryX=0.584;entryY=1.073;entryDx=0;entryDy=0;entryPerimeter=0;" parent="1" source="EgjTinBXH8Gvr-w2_Lfg-88" target="EgjTinBXH8Gvr-w2_Lfg-63" edge="1">
          <mxGeometry x="-0.0416" y="5" relative="1" as="geometry">
            <mxPoint x="550" y="1645" as="sourcePoint" />
            <mxPoint x="488" y="1605" as="targetPoint" />
            <mxPoint as="offset" />
          </mxGeometry>
        </mxCell>
        <mxCell id="EgjTinBXH8Gvr-w2_Lfg-92" value="Consulter les reprises vidéos" style="ellipse;whiteSpace=wrap;html=1;" parent="1" vertex="1">
          <mxGeometry x="445" y="2870" width="145" height="50" as="geometry" />
        </mxCell>
        <mxCell id="EgjTinBXH8Gvr-w2_Lfg-93" value="" style="endArrow=none;html=1;rounded=0;entryX=0;entryY=0.5;entryDx=0;entryDy=0;" parent="1" source="j3-yMUjAJYNPluZzP0-G-147" target="EgjTinBXH8Gvr-w2_Lfg-92" edge="1">
          <mxGeometry width="50" height="50" relative="1" as="geometry">
            <mxPoint x="322.5" y="2726" as="sourcePoint" />
            <mxPoint x="452.5" y="2865" as="targetPoint" />
          </mxGeometry>
        </mxCell>
        <mxCell id="6W4Lhbdf1CiXT9xY3Ah4-2" value="Créateur" style="shape=umlActor;verticalLabelPosition=bottom;verticalAlign=top;html=1;outlineConnect=0;" parent="1" vertex="1">
          <mxGeometry x="697.5" y="1990" width="30" height="60" as="geometry" />
        </mxCell>
        <mxCell id="6W4Lhbdf1CiXT9xY3Ah4-3" value="«extends»" style="html=1;verticalAlign=bottom;endArrow=open;dashed=1;endSize=8;curved=0;rounded=0;exitX=1;exitY=0;exitDx=0;exitDy=0;entryX=1;entryY=1;entryDx=0;entryDy=0;" parent="1" source="j3-yMUjAJYNPluZzP0-G-128" target="j3-yMUjAJYNPluZzP0-G-127" edge="1">
          <mxGeometry x="-0.364" relative="1" as="geometry">
            <mxPoint x="580" y="2017" as="sourcePoint" />
            <mxPoint x="560" y="1960" as="targetPoint" />
            <mxPoint as="offset" />
          </mxGeometry>
        </mxCell>
        <mxCell id="6W4Lhbdf1CiXT9xY3Ah4-4" value="" style="endArrow=none;html=1;rounded=0;entryX=1;entryY=0.5;entryDx=0;entryDy=0;" parent="1" source="6W4Lhbdf1CiXT9xY3Ah4-2" target="j3-yMUjAJYNPluZzP0-G-126" edge="1">
          <mxGeometry width="50" height="50" relative="1" as="geometry">
            <mxPoint x="305.5" y="2032" as="sourcePoint" />
            <mxPoint x="429.5" y="1965" as="targetPoint" />
          </mxGeometry>
        </mxCell>
        <mxCell id="6W4Lhbdf1CiXT9xY3Ah4-5" value="" style="endArrow=none;html=1;rounded=0;entryX=1;entryY=0.5;entryDx=0;entryDy=0;" parent="1" source="6W4Lhbdf1CiXT9xY3Ah4-2" target="j3-yMUjAJYNPluZzP0-G-130" edge="1">
          <mxGeometry width="50" height="50" relative="1" as="geometry">
            <mxPoint x="707.5" y="2023" as="sourcePoint" />
            <mxPoint x="590.5" y="1965" as="targetPoint" />
          </mxGeometry>
        </mxCell>
        <mxCell id="6W4Lhbdf1CiXT9xY3Ah4-6" value="" style="endArrow=none;html=1;rounded=0;entryX=0.969;entryY=0.641;entryDx=0;entryDy=0;entryPerimeter=0;" parent="1" source="6W4Lhbdf1CiXT9xY3Ah4-2" target="j3-yMUjAJYNPluZzP0-G-129" edge="1">
          <mxGeometry width="50" height="50" relative="1" as="geometry">
            <mxPoint x="707.5" y="2049" as="sourcePoint" />
            <mxPoint x="585.5" y="2205" as="targetPoint" />
          </mxGeometry>
        </mxCell>
        <mxCell id="ZBb3MkIUtZYs5qzdBkw8-1" value="pour les prochains diagramme on assume......" style="text;html=1;align=center;verticalAlign=middle;resizable=0;points=[];autosize=1;strokeColor=none;fillColor=none;" parent="1" vertex="1">
          <mxGeometry x="25" y="3078" width="270" height="30" as="geometry" />
        </mxCell>
        <mxCell id="EpUMV70DY-0qkeXK0v6a-5" style="edgeStyle=orthogonalEdgeStyle;rounded=0;orthogonalLoop=1;jettySize=auto;html=1;endArrow=none;endFill=0;" edge="1" parent="1" source="EpUMV70DY-0qkeXK0v6a-4" target="EgjTinBXH8Gvr-w2_Lfg-3">
          <mxGeometry relative="1" as="geometry" />
        </mxCell>
        <mxCell id="EpUMV70DY-0qkeXK0v6a-4" value="Sauvegarder" style="ellipse;whiteSpace=wrap;html=1;" vertex="1" parent="1">
          <mxGeometry x="582.5" y="790" width="105" height="40" as="geometry" />
        </mxCell>
        <mxCell id="EpUMV70DY-0qkeXK0v6a-6" value="MongoDB" style="shape=umlActor;verticalLabelPosition=bottom;verticalAlign=top;html=1;" vertex="1" parent="1">
          <mxGeometry x="805" y="1700" width="30" height="60" as="geometry" />
        </mxCell>
        <mxCell id="EpUMV70DY-0qkeXK0v6a-9" style="edgeStyle=orthogonalEdgeStyle;rounded=0;orthogonalLoop=1;jettySize=auto;html=1;entryX=0.5;entryY=0.5;entryDx=0;entryDy=0;entryPerimeter=0;endArrow=none;endFill=0;" edge="1" parent="1" source="EgjTinBXH8Gvr-w2_Lfg-88" target="EpUMV70DY-0qkeXK0v6a-6">
          <mxGeometry relative="1" as="geometry" />
        </mxCell>
        <mxCell id="EpUMV70DY-0qkeXK0v6a-12" value="Firebase" style="shape=umlActor;verticalLabelPosition=bottom;verticalAlign=top;html=1;" vertex="1" parent="1">
          <mxGeometry x="760" y="2680" width="30" height="60" as="geometry" />
        </mxCell>
        <mxCell id="EpUMV70DY-0qkeXK0v6a-15" value="" style="endArrow=none;html=1;rounded=0;entryX=0;entryY=0.3333333333333333;entryDx=0;entryDy=0;entryPerimeter=0;exitX=1;exitY=0.5;exitDx=0;exitDy=0;" edge="1" parent="1" source="j3-yMUjAJYNPluZzP0-G-168" target="EpUMV70DY-0qkeXK0v6a-12">
          <mxGeometry width="50" height="50" relative="1" as="geometry">
            <mxPoint x="550" y="2800" as="sourcePoint" />
            <mxPoint x="600" y="2750" as="targetPoint" />
          </mxGeometry>
        </mxCell>
        <mxCell id="EpUMV70DY-0qkeXK0v6a-16" value="" style="endArrow=none;html=1;rounded=0;" edge="1" parent="1" source="j3-yMUjAJYNPluZzP0-G-172" target="EpUMV70DY-0qkeXK0v6a-12">
          <mxGeometry width="50" height="50" relative="1" as="geometry">
            <mxPoint x="550" y="2800" as="sourcePoint" />
            <mxPoint x="600" y="2750" as="targetPoint" />
          </mxGeometry>
        </mxCell>
        <mxCell id="EpUMV70DY-0qkeXK0v6a-17" value="" style="endArrow=none;html=1;rounded=0;exitX=1;exitY=0.5;exitDx=0;exitDy=0;" edge="1" parent="1" source="j3-yMUjAJYNPluZzP0-G-174" target="EpUMV70DY-0qkeXK0v6a-12">
          <mxGeometry width="50" height="50" relative="1" as="geometry">
            <mxPoint x="550" y="2800" as="sourcePoint" />
            <mxPoint x="600" y="2750" as="targetPoint" />
          </mxGeometry>
        </mxCell>
        <mxCell id="EpUMV70DY-0qkeXK0v6a-18" value="MongoDB" style="shape=umlActor;verticalLabelPosition=bottom;verticalAlign=top;html=1;" vertex="1" parent="1">
          <mxGeometry x="770" y="2880" width="30" height="60" as="geometry" />
        </mxCell>
        <mxCell id="EpUMV70DY-0qkeXK0v6a-19" value="" style="endArrow=none;html=1;rounded=0;exitX=1;exitY=0.5;exitDx=0;exitDy=0;" edge="1" parent="1" source="EgjTinBXH8Gvr-w2_Lfg-92" target="EpUMV70DY-0qkeXK0v6a-18">
          <mxGeometry width="50" height="50" relative="1" as="geometry">
            <mxPoint x="520" y="2760" as="sourcePoint" />
            <mxPoint x="570" y="2710" as="targetPoint" />
          </mxGeometry>
        </mxCell>
      </root>
    </mxGraphModel>
  </diagram>
  <diagram id="GUbwy0-4epE3LNsSbQr1" name="diagramme_seq_gestionChat">
    <mxGraphModel dx="2852" dy="-630" grid="1" gridSize="10" guides="1" tooltips="1" connect="1" arrows="1" fold="1" page="1" pageScale="1" pageWidth="850" pageHeight="1100" math="0" shadow="0">
      <root>
        <mxCell id="0" />
        <mxCell id="1" parent="0" />
        <mxCell id="ExTUeHE9AoZb97q5eQX2-1" value="Gestion de la messagerie" style="shape=umlFrame;whiteSpace=wrap;html=1;pointerEvents=0;recursiveResize=0;container=1;collapsible=0;width=160;" parent="1" vertex="1">
          <mxGeometry x="90" y="2485" width="670" height="530" as="geometry" />
        </mxCell>
        <mxCell id="ExTUeHE9AoZb97q5eQX2-2" value="msg:ChatWindowPage&amp;nbsp;" style="shape=umlLifeline;perimeter=lifelinePerimeter;whiteSpace=wrap;html=1;container=1;dropTarget=0;collapsible=0;recursiveResize=0;outlineConnect=0;portConstraint=eastwest;newEdgeStyle={&quot;edgeStyle&quot;:&quot;elbowEdgeStyle&quot;,&quot;elbow&quot;:&quot;vertical&quot;,&quot;curved&quot;:0,&quot;rounded&quot;:0};" parent="ExTUeHE9AoZb97q5eQX2-1" vertex="1">
          <mxGeometry x="150" y="60" width="140" height="470" as="geometry" />
        </mxCell>
        <mxCell id="ExTUeHE9AoZb97q5eQX2-7" value="" style="html=1;points=[[0,0,0,0,5],[0,1,0,0,-5],[1,0,0,0,5],[1,1,0,0,-5]];perimeter=orthogonalPerimeter;outlineConnect=0;targetShapes=umlLifeline;portConstraint=eastwest;newEdgeStyle={&quot;curved&quot;:0,&quot;rounded&quot;:0};" parent="ExTUeHE9AoZb97q5eQX2-2" vertex="1">
          <mxGeometry x="65" y="160" width="10" height="80" as="geometry" />
        </mxCell>
        <mxCell id="ExTUeHE9AoZb97q5eQX2-8" value="Create(channel)" style="html=1;verticalAlign=bottom;endArrow=block;curved=0;rounded=0;entryX=0;entryY=0;entryDx=0;entryDy=5;" parent="ExTUeHE9AoZb97q5eQX2-2" edge="1">
          <mxGeometry x="0.0014" relative="1" as="geometry">
            <mxPoint x="-110" y="160" as="sourcePoint" />
            <mxPoint x="65" y="160" as="targetPoint" />
            <mxPoint as="offset" />
          </mxGeometry>
        </mxCell>
        <mxCell id="ExTUeHE9AoZb97q5eQX2-9" value="" style="html=1;verticalAlign=bottom;endArrow=open;dashed=1;endSize=8;curved=0;rounded=0;" parent="ExTUeHE9AoZb97q5eQX2-2" edge="1">
          <mxGeometry relative="1" as="geometry">
            <mxPoint x="-110" y="240" as="targetPoint" />
            <mxPoint x="65" y="240" as="sourcePoint" />
          </mxGeometry>
        </mxCell>
        <mxCell id="ExTUeHE9AoZb97q5eQX2-3" value="s:Server" style="shape=umlLifeline;perimeter=lifelinePerimeter;whiteSpace=wrap;html=1;container=1;dropTarget=0;collapsible=0;recursiveResize=0;outlineConnect=0;portConstraint=eastwest;newEdgeStyle={&quot;edgeStyle&quot;:&quot;elbowEdgeStyle&quot;,&quot;elbow&quot;:&quot;vertical&quot;,&quot;curved&quot;:0,&quot;rounded&quot;:0};" parent="ExTUeHE9AoZb97q5eQX2-1" vertex="1">
          <mxGeometry x="310" y="60" width="100" height="470" as="geometry" />
        </mxCell>
        <mxCell id="ExTUeHE9AoZb97q5eQX2-4" value="" style="html=1;points=[[0,0,0,0,5],[0,1,0,0,-5],[1,0,0,0,5],[1,1,0,0,-5]];perimeter=orthogonalPerimeter;outlineConnect=0;targetShapes=umlLifeline;portConstraint=eastwest;newEdgeStyle={&quot;curved&quot;:0,&quot;rounded&quot;:0};" parent="ExTUeHE9AoZb97q5eQX2-3" vertex="1">
          <mxGeometry x="45" y="170" width="10" height="60" as="geometry" />
        </mxCell>
        <mxCell id="ExTUeHE9AoZb97q5eQX2-5" value="db:MongoDB" style="shape=umlLifeline;perimeter=lifelinePerimeter;whiteSpace=wrap;html=1;container=1;dropTarget=0;collapsible=0;recursiveResize=0;outlineConnect=0;portConstraint=eastwest;newEdgeStyle={&quot;edgeStyle&quot;:&quot;elbowEdgeStyle&quot;,&quot;elbow&quot;:&quot;vertical&quot;,&quot;curved&quot;:0,&quot;rounded&quot;:0};" parent="ExTUeHE9AoZb97q5eQX2-1" vertex="1">
          <mxGeometry x="430" y="60" width="100" height="470" as="geometry" />
        </mxCell>
        <mxCell id="ExTUeHE9AoZb97q5eQX2-6" value="" style="html=1;points=[[0,0,0,0,5],[0,1,0,0,-5],[1,0,0,0,5],[1,1,0,0,-5]];perimeter=orthogonalPerimeter;outlineConnect=0;targetShapes=umlLifeline;portConstraint=eastwest;newEdgeStyle={&quot;curved&quot;:0,&quot;rounded&quot;:0};" parent="ExTUeHE9AoZb97q5eQX2-5" vertex="1">
          <mxGeometry x="45" y="180" width="10" height="40" as="geometry" />
        </mxCell>
        <mxCell id="ExTUeHE9AoZb97q5eQX2-10" value="" style="endArrow=none;dashed=1;html=1;rounded=0;exitX=0.462;exitY=0.733;exitDx=0;exitDy=0;exitPerimeter=0;orthogonal=1;entryX=0.057;entryY=0.998;entryDx=0;entryDy=0;entryPerimeter=0;" parent="ExTUeHE9AoZb97q5eQX2-1" source="ExTUeHE9AoZb97q5eQX2-11" target="ExTUeHE9AoZb97q5eQX2-1" edge="1">
          <mxGeometry width="50" height="50" relative="1" as="geometry">
            <mxPoint x="380" y="250" as="sourcePoint" />
            <mxPoint x="39" y="520" as="targetPoint" />
          </mxGeometry>
        </mxCell>
        <mxCell id="ExTUeHE9AoZb97q5eQX2-11" value="Utilisateur" style="shape=umlActor;verticalLabelPosition=bottom;verticalAlign=top;html=1;labelBackgroundColor=default;" parent="ExTUeHE9AoZb97q5eQX2-1" vertex="1">
          <mxGeometry x="25" y="60" width="30" height="60" as="geometry" />
        </mxCell>
        <mxCell id="DXjTXrHPdjqyRkQFxFef-1" value="alt" style="shape=umlFrame;whiteSpace=wrap;html=1;pointerEvents=0;recursiveResize=0;container=1;collapsible=0;width=170;" parent="ExTUeHE9AoZb97q5eQX2-1" vertex="1">
          <mxGeometry x="40" y="140" width="590" height="360" as="geometry" />
        </mxCell>
        <mxCell id="DXjTXrHPdjqyRkQFxFef-2" value="Création d&#39;un canal" style="text;html=1;" parent="DXjTXrHPdjqyRkQFxFef-1" vertex="1">
          <mxGeometry width="100" height="20" relative="1" as="geometry">
            <mxPoint x="20" y="40" as="offset" />
          </mxGeometry>
        </mxCell>
        <mxCell id="DXjTXrHPdjqyRkQFxFef-3" value="Suppression d&#39;un canal" style="line;strokeWidth=2;dashed=1;labelPosition=center;verticalLabelPosition=bottom;align=left;verticalAlign=top;spacingLeft=20;spacingTop=15;html=1;whiteSpace=wrap;" parent="DXjTXrHPdjqyRkQFxFef-1" vertex="1">
          <mxGeometry y="220" width="590" height="10" as="geometry" />
        </mxCell>
        <mxCell id="ExTUeHE9AoZb97q5eQX2-13" value="Create(channel)" style="html=1;verticalAlign=bottom;endArrow=block;curved=0;rounded=0;" parent="DXjTXrHPdjqyRkQFxFef-1" edge="1">
          <mxGeometry relative="1" as="geometry">
            <mxPoint x="185" y="90" as="sourcePoint" />
            <mxPoint x="315" y="90" as="targetPoint" />
          </mxGeometry>
        </mxCell>
        <mxCell id="ExTUeHE9AoZb97q5eQX2-12" value="" style="html=1;verticalAlign=bottom;endArrow=open;dashed=1;endSize=8;curved=0;rounded=0;exitX=0;exitY=1;exitDx=0;exitDy=-5;" parent="DXjTXrHPdjqyRkQFxFef-1" edge="1">
          <mxGeometry relative="1" as="geometry">
            <mxPoint x="185" y="150" as="targetPoint" />
            <mxPoint x="315" y="150" as="sourcePoint" />
          </mxGeometry>
        </mxCell>
        <mxCell id="ExTUeHE9AoZb97q5eQX2-14" value="" style="html=1;verticalAlign=bottom;endArrow=open;dashed=1;endSize=8;curved=0;rounded=0;exitX=0;exitY=1;exitDx=0;exitDy=-5;" parent="DXjTXrHPdjqyRkQFxFef-1" target="ExTUeHE9AoZb97q5eQX2-4" edge="1">
          <mxGeometry relative="1" as="geometry">
            <mxPoint x="330" y="140" as="targetPoint" />
            <mxPoint x="440" y="140" as="sourcePoint" />
          </mxGeometry>
        </mxCell>
        <mxCell id="ExTUeHE9AoZb97q5eQX2-15" value="store(channel)" style="html=1;verticalAlign=bottom;endArrow=block;curved=0;rounded=0;entryX=0;entryY=0;entryDx=0;entryDy=5;" parent="DXjTXrHPdjqyRkQFxFef-1" edge="1">
          <mxGeometry relative="1" as="geometry">
            <mxPoint x="325" y="100" as="sourcePoint" />
            <mxPoint x="435" y="100" as="targetPoint" />
          </mxGeometry>
        </mxCell>
        <mxCell id="8ky6A4pqXyDsHxAFjDD_-1" value="" style="html=1;points=[[0,0,0,0,5],[0,1,0,0,-5],[1,0,0,0,5],[1,1,0,0,-5]];perimeter=orthogonalPerimeter;outlineConnect=0;targetShapes=umlLifeline;portConstraint=eastwest;newEdgeStyle={&quot;curved&quot;:0,&quot;rounded&quot;:0};" parent="DXjTXrHPdjqyRkQFxFef-1" vertex="1">
          <mxGeometry x="176" y="290" width="10" height="30" as="geometry" />
        </mxCell>
        <mxCell id="8ky6A4pqXyDsHxAFjDD_-2" value="delete(channel)" style="html=1;verticalAlign=bottom;endArrow=block;curved=0;rounded=0;exitX=0.005;exitY=0.812;exitDx=0;exitDy=0;exitPerimeter=0;" parent="DXjTXrHPdjqyRkQFxFef-1" source="DXjTXrHPdjqyRkQFxFef-1" target="8ky6A4pqXyDsHxAFjDD_-1" edge="1">
          <mxGeometry relative="1" as="geometry">
            <mxPoint x="106" y="265" as="sourcePoint" />
          </mxGeometry>
        </mxCell>
        <mxCell id="8ky6A4pqXyDsHxAFjDD_-3" value="" style="html=1;verticalAlign=bottom;endArrow=open;dashed=1;endSize=8;curved=0;rounded=0;" parent="DXjTXrHPdjqyRkQFxFef-1" source="8ky6A4pqXyDsHxAFjDD_-1" edge="1">
          <mxGeometry relative="1" as="geometry">
            <mxPoint y="320" as="targetPoint" />
          </mxGeometry>
        </mxCell>
        <mxCell id="8ky6A4pqXyDsHxAFjDD_-4" value="" style="html=1;points=[[0,0,0,0,5],[0,1,0,0,-5],[1,0,0,0,5],[1,1,0,0,-5]];perimeter=orthogonalPerimeter;outlineConnect=0;targetShapes=umlLifeline;portConstraint=eastwest;newEdgeStyle={&quot;curved&quot;:0,&quot;rounded&quot;:0};" parent="DXjTXrHPdjqyRkQFxFef-1" vertex="1">
          <mxGeometry x="315" y="295" width="10" height="20" as="geometry" />
        </mxCell>
        <mxCell id="8ky6A4pqXyDsHxAFjDD_-5" value="delete(channel)" style="html=1;verticalAlign=bottom;endArrow=block;curved=0;rounded=0;entryX=0;entryY=0;entryDx=0;entryDy=5;exitX=1;exitY=0;exitDx=0;exitDy=5;exitPerimeter=0;" parent="DXjTXrHPdjqyRkQFxFef-1" source="8ky6A4pqXyDsHxAFjDD_-1" edge="1">
          <mxGeometry relative="1" as="geometry">
            <mxPoint x="245" y="295" as="sourcePoint" />
            <mxPoint x="315" y="295" as="targetPoint" />
          </mxGeometry>
        </mxCell>
        <mxCell id="8ky6A4pqXyDsHxAFjDD_-6" value="" style="html=1;verticalAlign=bottom;endArrow=open;dashed=1;endSize=8;curved=0;rounded=0;exitX=0;exitY=1;exitDx=0;exitDy=-5;" parent="DXjTXrHPdjqyRkQFxFef-1" edge="1">
          <mxGeometry relative="1" as="geometry">
            <mxPoint x="186" y="315" as="targetPoint" />
            <mxPoint x="315" y="315" as="sourcePoint" />
          </mxGeometry>
        </mxCell>
      </root>
    </mxGraphModel>
  </diagram>
  <diagram id="o73RnOX-OIzM8g8ks9Jo" name="Diagramme de Déploiement">
    <mxGraphModel dx="7980" dy="5025" grid="1" gridSize="10" guides="1" tooltips="1" connect="1" arrows="1" fold="1" page="1" pageScale="1" pageWidth="850" pageHeight="1100" math="0" shadow="0">
      <root>
        <mxCell id="0" />
        <mxCell id="1" parent="0" />
        <mxCell id="HvH-KcanNofPVTWWtx48-33" value="" style="group" parent="1" vertex="1" connectable="0">
          <mxGeometry x="-160" y="-720" width="370" height="250" as="geometry" />
        </mxCell>
        <mxCell id="HvH-KcanNofPVTWWtx48-30" value="&amp;lt;&amp;lt;device&amp;gt;&amp;gt;" style="verticalAlign=top;align=center;spacingTop=8;spacingLeft=2;spacingRight=12;shape=cube;size=10;direction=south;fontStyle=2;html=1;whiteSpace=wrap;fontSize=11;" parent="HvH-KcanNofPVTWWtx48-33" vertex="1">
          <mxGeometry width="360" height="250.00000000000003" as="geometry" />
        </mxCell>
        <mxCell id="HvH-KcanNofPVTWWtx48-31" value="Serveur infonuagique de Google" style="text;align=center;fontStyle=1;verticalAlign=middle;spacingLeft=3;spacingRight=3;strokeColor=none;rotatable=0;points=[[0,0.5],[1,0.5]];portConstraint=eastwest;html=1;" parent="HvH-KcanNofPVTWWtx48-33" vertex="1">
          <mxGeometry x="126.66666666666666" y="19.99588235294118" width="106.66666666666666" height="38.23529411764706" as="geometry" />
        </mxCell>
        <mxCell id="HvH-KcanNofPVTWWtx48-35" value="" style="shape=datastore;whiteSpace=wrap;html=1;" parent="HvH-KcanNofPVTWWtx48-33" vertex="1">
          <mxGeometry x="55" y="70" width="250" height="160" as="geometry" />
        </mxCell>
        <mxCell id="HvH-KcanNofPVTWWtx48-36" value="&amp;lt;&amp;lt;database" style="text;html=1;strokeColor=none;fillColor=none;align=center;verticalAlign=middle;whiteSpace=wrap;rounded=0;" parent="HvH-KcanNofPVTWWtx48-33" vertex="1">
          <mxGeometry x="150" y="70" width="60" height="30" as="geometry" />
        </mxCell>
        <mxCell id="HvH-KcanNofPVTWWtx48-38" value="Firebase Firestore" style="text;align=center;fontStyle=1;verticalAlign=middle;spacingLeft=3;spacingRight=3;strokeColor=none;rotatable=0;points=[[0,0.5],[1,0.5]];portConstraint=eastwest;html=1;" parent="HvH-KcanNofPVTWWtx48-33" vertex="1">
          <mxGeometry x="140" y="120" width="80" height="26" as="geometry" />
        </mxCell>
        <mxCell id="HvH-KcanNofPVTWWtx48-39" value="&amp;lt;&amp;lt;artifact&amp;gt;&amp;gt;&lt;br&gt;&lt;br&gt;&lt;b&gt;SessionsDB&lt;/b&gt;" style="html=1;align=center;verticalAlign=middle;dashed=0;whiteSpace=wrap;" parent="HvH-KcanNofPVTWWtx48-33" vertex="1">
          <mxGeometry x="70" y="160" width="100" height="46" as="geometry" />
        </mxCell>
        <mxCell id="HvH-KcanNofPVTWWtx48-40" value="&amp;lt;&amp;lt;artifact&amp;gt;&amp;gt;&lt;br&gt;&lt;br&gt;&lt;b&gt;UsersDB&lt;/b&gt;" style="html=1;align=center;verticalAlign=middle;dashed=0;whiteSpace=wrap;" parent="HvH-KcanNofPVTWWtx48-33" vertex="1">
          <mxGeometry x="190" y="158" width="100" height="50" as="geometry" />
        </mxCell>
        <mxCell id="HvH-KcanNofPVTWWtx48-58" value="" style="group" parent="1" vertex="1" connectable="0">
          <mxGeometry x="-500" y="-350" width="470" height="290" as="geometry" />
        </mxCell>
        <mxCell id="HvH-KcanNofPVTWWtx48-53" value="&amp;lt;&amp;lt;device&amp;gt;&amp;gt;" style="verticalAlign=top;align=center;spacingTop=8;spacingLeft=2;spacingRight=12;shape=cube;size=10;direction=south;fontStyle=2;html=1;whiteSpace=wrap;fontSize=11;" parent="HvH-KcanNofPVTWWtx48-58" vertex="1">
          <mxGeometry width="470" height="290" as="geometry" />
        </mxCell>
        <mxCell id="HvH-KcanNofPVTWWtx48-54" value="&amp;lt;&amp;lt;executionEnvironnement&amp;gt;&amp;gt;" style="verticalAlign=top;align=center;spacingTop=8;spacingLeft=2;spacingRight=12;shape=cube;size=10;direction=south;fontStyle=2;html=1;whiteSpace=wrap;fontSize=11;" parent="HvH-KcanNofPVTWWtx48-58" vertex="1">
          <mxGeometry x="57.5" y="50" width="360" height="190" as="geometry" />
        </mxCell>
        <mxCell id="HvH-KcanNofPVTWWtx48-55" value="Galaxy Tab A 2019" style="text;align=center;fontStyle=1;verticalAlign=middle;spacingLeft=3;spacingRight=3;strokeColor=none;rotatable=0;points=[[0,0.5],[1,0.5]];portConstraint=eastwest;html=1;" parent="HvH-KcanNofPVTWWtx48-58" vertex="1">
          <mxGeometry x="195" y="24" width="80" height="26" as="geometry" />
        </mxCell>
        <mxCell id="HvH-KcanNofPVTWWtx48-56" value="&lt;span style=&quot;background-color: rgb(255, 255, 255);&quot;&gt;Android 11.0 Pie&lt;/span&gt;" style="text;align=center;fontStyle=1;verticalAlign=middle;spacingLeft=3;spacingRight=3;strokeColor=none;rotatable=0;points=[[0,0.5],[1,0.5]];portConstraint=eastwest;html=1;" parent="HvH-KcanNofPVTWWtx48-58" vertex="1">
          <mxGeometry x="187.5" y="80" width="80" height="26" as="geometry" />
        </mxCell>
        <mxCell id="HvH-KcanNofPVTWWtx48-59" value="&amp;lt;&amp;lt;artifact&amp;gt;&amp;gt;&lt;br&gt;&lt;br&gt;&lt;b&gt;polyDiff.apk&lt;/b&gt;" style="html=1;align=center;verticalAlign=middle;dashed=0;whiteSpace=wrap;" parent="HvH-KcanNofPVTWWtx48-58" vertex="1">
          <mxGeometry x="145" y="120" width="180" height="60" as="geometry" />
        </mxCell>
        <mxCell id="HvH-KcanNofPVTWWtx48-60" value="" style="group" parent="1" vertex="1" connectable="0">
          <mxGeometry x="90" y="-390" width="555" height="390" as="geometry" />
        </mxCell>
        <mxCell id="HvH-KcanNofPVTWWtx48-3" value="&amp;lt;&amp;lt;device&amp;gt;&amp;gt;" style="verticalAlign=top;align=center;spacingTop=8;spacingLeft=2;spacingRight=12;shape=cube;size=10;direction=south;fontStyle=2;html=1;whiteSpace=wrap;" parent="HvH-KcanNofPVTWWtx48-60" vertex="1">
          <mxGeometry width="555" height="390" as="geometry" />
        </mxCell>
        <mxCell id="HvH-KcanNofPVTWWtx48-42" value="Ordinateur personel" style="text;align=center;fontStyle=1;verticalAlign=middle;spacingLeft=3;spacingRight=3;strokeColor=none;rotatable=0;points=[[0,0.5],[1,0.5]];portConstraint=eastwest;html=1;" parent="HvH-KcanNofPVTWWtx48-60" vertex="1">
          <mxGeometry x="230" y="30" width="80" height="26" as="geometry" />
        </mxCell>
        <mxCell id="HvH-KcanNofPVTWWtx48-48" value="" style="group" parent="HvH-KcanNofPVTWWtx48-60" vertex="1" connectable="0">
          <mxGeometry x="61.25" y="70" width="432.5" height="280" as="geometry" />
        </mxCell>
        <mxCell id="HvH-KcanNofPVTWWtx48-4" value="&amp;lt;&amp;lt;executionEnvironnement&amp;gt;&amp;gt;" style="verticalAlign=top;align=center;spacingTop=8;spacingLeft=2;spacingRight=12;shape=cube;size=10;direction=south;fontStyle=2;html=1;whiteSpace=wrap;" parent="HvH-KcanNofPVTWWtx48-48" vertex="1">
          <mxGeometry width="432.5" height="280" as="geometry" />
        </mxCell>
        <mxCell id="HvH-KcanNofPVTWWtx48-43" value="Windows 11" style="text;align=center;fontStyle=1;verticalAlign=middle;spacingLeft=3;spacingRight=3;strokeColor=none;rotatable=0;points=[[0,0.5],[1,0.5]];portConstraint=eastwest;html=1;" parent="HvH-KcanNofPVTWWtx48-48" vertex="1">
          <mxGeometry x="160.72635135135135" y="33.6" width="93.51351351351352" height="29.120000000000005" as="geometry" />
        </mxCell>
        <mxCell id="HvH-KcanNofPVTWWtx48-44" value="«component»&lt;br&gt;&lt;b&gt;Chromium&lt;/b&gt;" style="html=1;dropTarget=0;whiteSpace=wrap;verticalAlign=top;" parent="HvH-KcanNofPVTWWtx48-48" vertex="1">
          <mxGeometry x="32.14527027027027" y="78.4" width="350.6756756756757" height="168.00000000000003" as="geometry" />
        </mxCell>
        <mxCell id="HvH-KcanNofPVTWWtx48-45" value="" style="shape=module;jettyWidth=8;jettyHeight=4;" parent="HvH-KcanNofPVTWWtx48-44" vertex="1">
          <mxGeometry x="1" width="20" height="20" relative="1" as="geometry">
            <mxPoint x="-27" y="7" as="offset" />
          </mxGeometry>
        </mxCell>
        <mxCell id="HvH-KcanNofPVTWWtx48-46" value="«component»&lt;br&gt;&lt;b&gt;NodeJS&lt;/b&gt;" style="html=1;dropTarget=0;whiteSpace=wrap;verticalAlign=top;" parent="HvH-KcanNofPVTWWtx48-48" vertex="1">
          <mxGeometry x="102.2804054054054" y="123.20000000000002" width="210.4054054054054" height="100.80000000000001" as="geometry" />
        </mxCell>
        <mxCell id="HvH-KcanNofPVTWWtx48-47" value="" style="shape=module;jettyWidth=8;jettyHeight=4;" parent="HvH-KcanNofPVTWWtx48-46" vertex="1">
          <mxGeometry x="1" width="20" height="20" relative="1" as="geometry">
            <mxPoint x="-27" y="7" as="offset" />
          </mxGeometry>
        </mxCell>
        <mxCell id="HvH-KcanNofPVTWWtx48-50" value="&amp;lt;&amp;lt;artifact&amp;gt;&amp;gt;&lt;br style=&quot;border-color: var(--border-color);&quot;&gt;&lt;br style=&quot;border-color: var(--border-color);&quot;&gt;&lt;b style=&quot;border-color: var(--border-color);&quot;&gt;main.js&lt;/b&gt;" style="html=1;align=center;verticalAlign=middle;dashed=0;whiteSpace=wrap;" parent="HvH-KcanNofPVTWWtx48-48" vertex="1">
          <mxGeometry x="118.75" y="165" width="88.78" height="45" as="geometry" />
        </mxCell>
        <mxCell id="HvH-KcanNofPVTWWtx48-85" value="&amp;lt;&amp;lt;artifact&amp;gt;&amp;gt;&lt;br style=&quot;border-color: var(--border-color);&quot;&gt;&lt;br style=&quot;border-color: var(--border-color);&quot;&gt;&lt;b style=&quot;border-color: var(--border-color);&quot;&gt;index.html&lt;/b&gt;" style="html=1;align=center;verticalAlign=middle;dashed=0;whiteSpace=wrap;" parent="HvH-KcanNofPVTWWtx48-48" vertex="1">
          <mxGeometry x="208.75" y="165" width="88.78" height="45" as="geometry" />
        </mxCell>
        <mxCell id="HvH-KcanNofPVTWWtx48-61" value="" style="group" parent="1" vertex="1" connectable="0">
          <mxGeometry x="-480" y="350" width="420" height="320" as="geometry" />
        </mxCell>
        <mxCell id="HvH-KcanNofPVTWWtx48-25" value="&amp;lt;&amp;lt;Device&amp;gt;&amp;gt;" style="verticalAlign=top;align=center;spacingTop=8;spacingLeft=2;spacingRight=12;shape=cube;size=10;direction=south;fontStyle=2;html=1;whiteSpace=wrap;fontSize=11;" parent="HvH-KcanNofPVTWWtx48-61" vertex="1">
          <mxGeometry x="-40" y="-40" width="460" height="360" as="geometry" />
        </mxCell>
        <mxCell id="HvH-KcanNofPVTWWtx48-26" value="Serveur AWS" style="text;align=center;fontStyle=1;verticalAlign=middle;spacingLeft=3;spacingRight=3;strokeColor=none;rotatable=0;points=[[0,0.5],[1,0.5]];portConstraint=eastwest;html=1;labelPosition=center;verticalLabelPosition=middle;" parent="HvH-KcanNofPVTWWtx48-61" vertex="1">
          <mxGeometry x="160.58823529411765" y="35.55555555555556" width="98.82352941176471" height="30.814814814814813" as="geometry" />
        </mxCell>
        <mxCell id="HvH-KcanNofPVTWWtx48-86" value="&lt;font style=&quot;font-size: 11px;&quot;&gt;&amp;lt;&amp;lt;executionEnvironnement&amp;gt;&amp;gt;&lt;/font&gt;" style="verticalAlign=top;align=center;spacingTop=8;spacingLeft=2;spacingRight=12;shape=cube;size=10;direction=south;fontStyle=2;html=1;whiteSpace=wrap;" parent="HvH-KcanNofPVTWWtx48-61" vertex="1">
          <mxGeometry x="-10" y="10" width="400" height="300" as="geometry" />
        </mxCell>
        <mxCell id="HvH-KcanNofPVTWWtx48-9" value="&lt;b&gt;MongoDB&lt;/b&gt;" style="shape=datastore;whiteSpace=wrap;html=1;verticalAlign=top;" parent="HvH-KcanNofPVTWWtx48-61" vertex="1">
          <mxGeometry x="60" y="79.99999999999999" width="237.06" height="201.86" as="geometry" />
        </mxCell>
        <mxCell id="HvH-KcanNofPVTWWtx48-27" value="&amp;lt;&amp;lt;database&amp;gt;&amp;gt;" style="text;html=1;strokeColor=none;fillColor=none;align=center;verticalAlign=middle;whiteSpace=wrap;rounded=0;fontSize=11;fontStyle=2" parent="HvH-KcanNofPVTWWtx48-61" vertex="1">
          <mxGeometry x="141.47117647058823" y="90.00296296296301" width="74.11764705882354" height="35.55555555555556" as="geometry" />
        </mxCell>
        <mxCell id="HvH-KcanNofPVTWWtx48-29" value="&amp;lt;&amp;lt;artifact&amp;gt;&amp;gt;&lt;br&gt;&lt;br&gt;&lt;b&gt;Cluster0&lt;/b&gt;" style="html=1;align=center;verticalAlign=middle;dashed=0;whiteSpace=wrap;" parent="HvH-KcanNofPVTWWtx48-61" vertex="1">
          <mxGeometry x="92.64764705882354" y="189.99962962962968" width="166.76470588235296" height="59.25925925925925" as="geometry" />
        </mxCell>
        <mxCell id="HvH-KcanNofPVTWWtx48-87" value="Red Hat Enterprise (Linux)" style="text;align=center;fontStyle=1;verticalAlign=middle;spacingLeft=3;spacingRight=3;strokeColor=none;rotatable=0;points=[[0,0.5],[1,0.5]];portConstraint=eastwest;html=1;" parent="HvH-KcanNofPVTWWtx48-61" vertex="1">
          <mxGeometry x="141.47000000000003" y="50" width="80" height="26" as="geometry" />
        </mxCell>
        <mxCell id="HvH-KcanNofPVTWWtx48-62" value="" style="group" parent="1" vertex="1" connectable="0">
          <mxGeometry x="-30" y="110" width="340" height="220" as="geometry" />
        </mxCell>
        <mxCell id="HvH-KcanNofPVTWWtx48-12" value="&lt;i&gt;&lt;font style=&quot;font-size: 11px;&quot;&gt;&amp;lt;&amp;lt;Device&amp;gt;&amp;gt;&lt;/font&gt;&lt;/i&gt;" style="verticalAlign=top;align=center;spacingTop=8;spacingLeft=2;spacingRight=12;shape=cube;size=10;direction=south;fontStyle=0;html=1;whiteSpace=wrap;" parent="HvH-KcanNofPVTWWtx48-62" vertex="1">
          <mxGeometry width="340" height="220" as="geometry" />
        </mxCell>
        <mxCell id="HvH-KcanNofPVTWWtx48-17" value="Serveur d&#39;application (VM AWS EC2)" style="text;align=center;fontStyle=1;verticalAlign=middle;spacingLeft=3;spacingRight=3;strokeColor=none;rotatable=0;points=[[0,0.5],[1,0.5]];portConstraint=eastwest;html=1;" parent="HvH-KcanNofPVTWWtx48-62" vertex="1">
          <mxGeometry x="130" y="30" width="80" height="26" as="geometry" />
        </mxCell>
        <mxCell id="HvH-KcanNofPVTWWtx48-19" value="&lt;font style=&quot;font-size: 11px;&quot;&gt;&amp;lt;&amp;lt;executionEnvironnement&amp;gt;&amp;gt;&lt;/font&gt;" style="verticalAlign=top;align=center;spacingTop=8;spacingLeft=2;spacingRight=12;shape=cube;size=10;direction=south;fontStyle=2;html=1;whiteSpace=wrap;" parent="HvH-KcanNofPVTWWtx48-62" vertex="1">
          <mxGeometry x="65" y="56" width="210" height="144" as="geometry" />
        </mxCell>
        <mxCell id="HvH-KcanNofPVTWWtx48-21" value="Red Hat Enterprise (Linux)" style="text;align=center;fontStyle=1;verticalAlign=middle;spacingLeft=3;spacingRight=3;strokeColor=none;rotatable=0;points=[[0,0.5],[1,0.5]];portConstraint=eastwest;html=1;" parent="HvH-KcanNofPVTWWtx48-62" vertex="1">
          <mxGeometry x="130" y="90" width="80" height="26" as="geometry" />
        </mxCell>
        <mxCell id="HvH-KcanNofPVTWWtx48-22" value="&amp;lt;&amp;lt;artifact&amp;gt;&amp;gt;&lt;br&gt;&lt;br&gt;serveur.js" style="html=1;align=center;verticalAlign=middle;dashed=0;whiteSpace=wrap;" parent="HvH-KcanNofPVTWWtx48-62" vertex="1">
          <mxGeometry x="115" y="130" width="110" height="50" as="geometry" />
        </mxCell>
        <mxCell id="HvH-KcanNofPVTWWtx48-63" style="edgeStyle=orthogonalEdgeStyle;rounded=0;orthogonalLoop=1;jettySize=auto;html=1;entryX=0;entryY=0;entryDx=0;entryDy=165;entryPerimeter=0;startArrow=classic;startFill=1;" parent="1" source="HvH-KcanNofPVTWWtx48-12" target="HvH-KcanNofPVTWWtx48-25" edge="1">
          <mxGeometry relative="1" as="geometry" />
        </mxCell>
        <mxCell id="HvH-KcanNofPVTWWtx48-64" value="MongoDB Wire Protocol" style="edgeLabel;html=1;align=center;verticalAlign=middle;resizable=0;points=[];" parent="HvH-KcanNofPVTWWtx48-63" vertex="1" connectable="0">
          <mxGeometry x="0.1324" y="1" relative="1" as="geometry">
            <mxPoint x="54" y="-1" as="offset" />
          </mxGeometry>
        </mxCell>
        <mxCell id="HvH-KcanNofPVTWWtx48-65" style="edgeStyle=orthogonalEdgeStyle;rounded=0;orthogonalLoop=1;jettySize=auto;html=1;" parent="1" source="HvH-KcanNofPVTWWtx48-3" target="HvH-KcanNofPVTWWtx48-12" edge="1">
          <mxGeometry relative="1" as="geometry" />
        </mxCell>
        <mxCell id="HvH-KcanNofPVTWWtx48-66" value="HTTP" style="edgeLabel;html=1;align=center;verticalAlign=middle;resizable=0;points=[];" parent="HvH-KcanNofPVTWWtx48-65" vertex="1" connectable="0">
          <mxGeometry x="0.4304" relative="1" as="geometry">
            <mxPoint as="offset" />
          </mxGeometry>
        </mxCell>
        <mxCell id="HvH-KcanNofPVTWWtx48-67" style="edgeStyle=orthogonalEdgeStyle;rounded=0;orthogonalLoop=1;jettySize=auto;html=1;entryX=0.011;entryY=0.665;entryDx=0;entryDy=0;entryPerimeter=0;startArrow=classic;startFill=1;" parent="1" source="HvH-KcanNofPVTWWtx48-3" target="HvH-KcanNofPVTWWtx48-12" edge="1">
          <mxGeometry relative="1" as="geometry">
            <Array as="points">
              <mxPoint x="340" y="30" />
              <mxPoint x="84" y="30" />
            </Array>
          </mxGeometry>
        </mxCell>
        <mxCell id="HvH-KcanNofPVTWWtx48-68" value="Socket.io" style="edgeLabel;html=1;align=center;verticalAlign=middle;resizable=0;points=[];" parent="HvH-KcanNofPVTWWtx48-67" vertex="1" connectable="0">
          <mxGeometry x="0.4667" y="-2" relative="1" as="geometry">
            <mxPoint x="20" as="offset" />
          </mxGeometry>
        </mxCell>
        <mxCell id="HvH-KcanNofPVTWWtx48-69" style="edgeStyle=orthogonalEdgeStyle;rounded=0;orthogonalLoop=1;jettySize=auto;html=1;entryX=0.184;entryY=1.005;entryDx=0;entryDy=0;entryPerimeter=0;" parent="1" source="HvH-KcanNofPVTWWtx48-53" edge="1">
          <mxGeometry relative="1" as="geometry">
            <mxPoint x="-263.2714285714286" y="-20.49000000000001" as="sourcePoint" />
            <mxPoint x="-30.000000000000057" y="189.99000000000012" as="targetPoint" />
            <Array as="points">
              <mxPoint x="-263" y="190" />
            </Array>
          </mxGeometry>
        </mxCell>
        <mxCell id="HvH-KcanNofPVTWWtx48-70" value="HTTP" style="edgeLabel;html=1;align=center;verticalAlign=middle;resizable=0;points=[];" parent="HvH-KcanNofPVTWWtx48-69" vertex="1" connectable="0">
          <mxGeometry x="0.0131" y="4" relative="1" as="geometry">
            <mxPoint x="19" y="4" as="offset" />
          </mxGeometry>
        </mxCell>
        <mxCell id="HvH-KcanNofPVTWWtx48-71" style="edgeStyle=orthogonalEdgeStyle;rounded=0;orthogonalLoop=1;jettySize=auto;html=1;entryX=0.285;entryY=1.003;entryDx=0;entryDy=0;entryPerimeter=0;startArrow=classic;startFill=1;" parent="1" source="HvH-KcanNofPVTWWtx48-53" target="HvH-KcanNofPVTWWtx48-12" edge="1">
          <mxGeometry relative="1" as="geometry">
            <Array as="points">
              <mxPoint x="-240" y="173" />
            </Array>
          </mxGeometry>
        </mxCell>
        <mxCell id="HvH-KcanNofPVTWWtx48-72" value="Socket.io" style="edgeLabel;html=1;align=center;verticalAlign=middle;resizable=0;points=[];" parent="HvH-KcanNofPVTWWtx48-71" vertex="1" connectable="0">
          <mxGeometry x="0.2232" y="1" relative="1" as="geometry">
            <mxPoint as="offset" />
          </mxGeometry>
        </mxCell>
        <mxCell id="HvH-KcanNofPVTWWtx48-88" style="edgeStyle=orthogonalEdgeStyle;rounded=0;orthogonalLoop=1;jettySize=auto;html=1;entryX=1.004;entryY=0.79;entryDx=0;entryDy=0;entryPerimeter=0;" parent="1" source="HvH-KcanNofPVTWWtx48-53" target="HvH-KcanNofPVTWWtx48-30" edge="1">
          <mxGeometry relative="1" as="geometry" />
        </mxCell>
        <mxCell id="HvH-KcanNofPVTWWtx48-89" value="HTTP" style="edgeLabel;html=1;align=center;verticalAlign=middle;resizable=0;points=[];" parent="HvH-KcanNofPVTWWtx48-88" vertex="1" connectable="0">
          <mxGeometry x="-0.32" y="5" relative="1" as="geometry">
            <mxPoint as="offset" />
          </mxGeometry>
        </mxCell>
        <mxCell id="HvH-KcanNofPVTWWtx48-90" style="edgeStyle=orthogonalEdgeStyle;rounded=0;orthogonalLoop=1;jettySize=auto;html=1;entryX=1.01;entryY=0.283;entryDx=0;entryDy=0;entryPerimeter=0;" parent="1" source="HvH-KcanNofPVTWWtx48-3" target="HvH-KcanNofPVTWWtx48-30" edge="1">
          <mxGeometry relative="1" as="geometry" />
        </mxCell>
        <mxCell id="HvH-KcanNofPVTWWtx48-91" value="HTTP" style="edgeLabel;html=1;align=center;verticalAlign=middle;resizable=0;points=[];" parent="HvH-KcanNofPVTWWtx48-90" vertex="1" connectable="0">
          <mxGeometry x="-0.1147" y="1" relative="1" as="geometry">
            <mxPoint x="-1" as="offset" />
          </mxGeometry>
        </mxCell>
      </root>
    </mxGraphModel>
  </diagram>
  <diagram id="RQkc4mcBFsOkE430p4lN" name="diagramme_seq_reprise_video">
    <mxGraphModel dx="3903" dy="417" grid="1" gridSize="10" guides="1" tooltips="1" connect="1" arrows="1" fold="1" page="1" pageScale="1" pageWidth="850" pageHeight="1100" math="0" shadow="0">
      <root>
        <mxCell id="0" />
        <mxCell id="1" parent="0" />
        <mxCell id="ajOcuPCZ97iv1Kwnhjg4-1" value="Reprise Video" style="shape=umlFrame;whiteSpace=wrap;html=1;pointerEvents=0;recursiveResize=0;container=1;collapsible=0;width=160;fontSize=11;" vertex="1" parent="1">
          <mxGeometry x="930" y="2235" width="690" height="1030" as="geometry" />
        </mxCell>
        <mxCell id="ajOcuPCZ97iv1Kwnhjg4-31" value="" style="endArrow=none;html=1;rounded=0;entryX=1.002;entryY=0.145;entryDx=0;entryDy=0;entryPerimeter=0;" edge="1" parent="ajOcuPCZ97iv1Kwnhjg4-1" target="ajOcuPCZ97iv1Kwnhjg4-27">
          <mxGeometry width="50" height="50" relative="1" as="geometry">
            <mxPoint x="10" y="300" as="sourcePoint" />
            <mxPoint x="300" y="250" as="targetPoint" />
          </mxGeometry>
        </mxCell>
        <mxCell id="ajOcuPCZ97iv1Kwnhjg4-41" value="" style="endArrow=none;html=1;rounded=0;exitX=0;exitY=0.642;exitDx=0;exitDy=0;exitPerimeter=0;entryX=1;entryY=0.637;entryDx=0;entryDy=0;entryPerimeter=0;" edge="1" parent="ajOcuPCZ97iv1Kwnhjg4-1">
          <mxGeometry width="50" height="50" relative="1" as="geometry">
            <mxPoint x="10" y="422.25000000000057" as="sourcePoint" />
            <mxPoint x="650" y="420.00000000000057" as="targetPoint" />
          </mxGeometry>
        </mxCell>
        <mxCell id="ajOcuPCZ97iv1Kwnhjg4-43" value="alt" style="shape=umlFrame;whiteSpace=wrap;html=1;pointerEvents=0;width=40;height=20;" vertex="1" parent="ajOcuPCZ97iv1Kwnhjg4-1">
          <mxGeometry x="15" y="520" width="630" height="100" as="geometry" />
        </mxCell>
        <mxCell id="ajOcuPCZ97iv1Kwnhjg4-47" value="" style="endArrow=none;html=1;rounded=0;exitX=0.001;exitY=0.809;exitDx=0;exitDy=0;exitPerimeter=0;" edge="1" parent="ajOcuPCZ97iv1Kwnhjg4-1">
          <mxGeometry width="50" height="50" relative="1" as="geometry">
            <mxPoint x="9.999999999999874" y="640.000000000001" as="sourcePoint" />
            <mxPoint x="650" y="640" as="targetPoint" />
          </mxGeometry>
        </mxCell>
        <mxCell id="ajOcuPCZ97iv1Kwnhjg4-51" value="" style="line;strokeWidth=1;fillColor=none;align=left;verticalAlign=middle;spacingTop=-1;spacingLeft=3;spacingRight=3;rotatable=0;labelPosition=right;points=[];portConstraint=eastwest;strokeColor=inherit;" vertex="1" parent="ajOcuPCZ97iv1Kwnhjg4-1">
          <mxGeometry x="10" y="750" width="640" height="8" as="geometry" />
        </mxCell>
        <mxCell id="ajOcuPCZ97iv1Kwnhjg4-27" value="opt" style="shape=umlFrame;whiteSpace=wrap;html=1;pointerEvents=0;" vertex="1" parent="ajOcuPCZ97iv1Kwnhjg4-1">
          <mxGeometry x="10" y="190" width="640" height="760" as="geometry" />
        </mxCell>
        <mxCell id="ajOcuPCZ97iv1Kwnhjg4-2" value="" style="endArrow=none;dashed=1;html=1;rounded=0;entryX=0.044;entryY=1;entryDx=0;entryDy=0;entryPerimeter=0;" edge="1" parent="ajOcuPCZ97iv1Kwnhjg4-1" source="ajOcuPCZ97iv1Kwnhjg4-3" target="ajOcuPCZ97iv1Kwnhjg4-1">
          <mxGeometry width="50" height="50" relative="1" as="geometry">
            <mxPoint x="160" y="270" as="sourcePoint" />
            <mxPoint x="30" y="570" as="targetPoint" />
          </mxGeometry>
        </mxCell>
        <mxCell id="ajOcuPCZ97iv1Kwnhjg4-3" value="Utilisateur" style="shape=umlActor;verticalLabelPosition=bottom;verticalAlign=top;html=1;labelBackgroundColor=default;" vertex="1" parent="ajOcuPCZ97iv1Kwnhjg4-1">
          <mxGeometry x="15" y="50" width="30" height="60" as="geometry" />
        </mxCell>
        <mxCell id="ajOcuPCZ97iv1Kwnhjg4-4" value="g:gamePage" style="shape=umlLifeline;perimeter=lifelinePerimeter;whiteSpace=wrap;html=1;container=0;dropTarget=0;collapsible=0;recursiveResize=0;outlineConnect=0;portConstraint=eastwest;newEdgeStyle={&quot;edgeStyle&quot;:&quot;elbowEdgeStyle&quot;,&quot;elbow&quot;:&quot;vertical&quot;,&quot;curved&quot;:0,&quot;rounded&quot;:0};" vertex="1" parent="ajOcuPCZ97iv1Kwnhjg4-1">
          <mxGeometry x="130" y="50" width="100" height="980" as="geometry" />
        </mxCell>
        <mxCell id="ajOcuPCZ97iv1Kwnhjg4-6" value="replay()" style="html=1;verticalAlign=bottom;endArrow=block;curved=0;rounded=0;" edge="1" parent="ajOcuPCZ97iv1Kwnhjg4-4" target="ajOcuPCZ97iv1Kwnhjg4-5">
          <mxGeometry relative="1" as="geometry">
            <mxPoint x="-100" y="90" as="sourcePoint" />
          </mxGeometry>
        </mxCell>
        <mxCell id="ajOcuPCZ97iv1Kwnhjg4-7" value="" style="html=1;verticalAlign=bottom;endArrow=open;dashed=1;endSize=8;curved=0;rounded=0;" edge="1" parent="ajOcuPCZ97iv1Kwnhjg4-4" source="ajOcuPCZ97iv1Kwnhjg4-5">
          <mxGeometry relative="1" as="geometry">
            <mxPoint x="-100" y="130" as="targetPoint" />
            <mxPoint x="40" y="130" as="sourcePoint" />
          </mxGeometry>
        </mxCell>
        <mxCell id="ajOcuPCZ97iv1Kwnhjg4-8" value="change(speed)" style="html=1;verticalAlign=bottom;endArrow=block;curved=0;rounded=0;" edge="1" parent="ajOcuPCZ97iv1Kwnhjg4-4">
          <mxGeometry relative="1" as="geometry">
            <mxPoint x="-100" y="180" as="sourcePoint" />
            <mxPoint x="45" y="180" as="targetPoint" />
          </mxGeometry>
        </mxCell>
        <mxCell id="ajOcuPCZ97iv1Kwnhjg4-9" value="" style="html=1;verticalAlign=bottom;endArrow=open;dashed=1;endSize=8;curved=0;rounded=0;" edge="1" parent="ajOcuPCZ97iv1Kwnhjg4-4">
          <mxGeometry relative="1" as="geometry">
            <mxPoint x="-100" y="230" as="targetPoint" />
            <mxPoint x="45" y="230" as="sourcePoint" />
          </mxGeometry>
        </mxCell>
        <mxCell id="ajOcuPCZ97iv1Kwnhjg4-10" value="playback()" style="html=1;verticalAlign=bottom;endArrow=block;curved=0;rounded=0;" edge="1" parent="ajOcuPCZ97iv1Kwnhjg4-4">
          <mxGeometry relative="1" as="geometry">
            <mxPoint x="-100" y="510" as="sourcePoint" />
            <mxPoint x="45" y="510" as="targetPoint" />
          </mxGeometry>
        </mxCell>
        <mxCell id="ajOcuPCZ97iv1Kwnhjg4-11" value="pause()" style="html=1;verticalAlign=bottom;endArrow=block;curved=0;rounded=0;" edge="1" parent="ajOcuPCZ97iv1Kwnhjg4-4">
          <mxGeometry relative="1" as="geometry">
            <mxPoint x="-100" y="410" as="sourcePoint" />
            <mxPoint as="offset" />
            <mxPoint x="45" y="410" as="targetPoint" />
          </mxGeometry>
        </mxCell>
        <mxCell id="ajOcuPCZ97iv1Kwnhjg4-13" value="" style="html=1;verticalAlign=bottom;endArrow=open;dashed=1;endSize=8;curved=0;rounded=0;" edge="1" parent="ajOcuPCZ97iv1Kwnhjg4-4">
          <mxGeometry relative="1" as="geometry">
            <mxPoint x="-100" y="450" as="targetPoint" />
            <mxPoint x="45" y="450" as="sourcePoint" />
          </mxGeometry>
        </mxCell>
        <mxCell id="ajOcuPCZ97iv1Kwnhjg4-15" value="restart()" style="html=1;verticalAlign=bottom;endArrow=block;curved=0;rounded=0;" edge="1" parent="ajOcuPCZ97iv1Kwnhjg4-4">
          <mxGeometry relative="1" as="geometry">
            <mxPoint x="-100" y="630" as="sourcePoint" />
            <mxPoint x="45" y="630" as="targetPoint" />
          </mxGeometry>
        </mxCell>
        <mxCell id="ajOcuPCZ97iv1Kwnhjg4-16" value="" style="html=1;verticalAlign=bottom;endArrow=open;dashed=1;endSize=8;curved=0;rounded=0;" edge="1" parent="ajOcuPCZ97iv1Kwnhjg4-4">
          <mxGeometry relative="1" as="geometry">
            <mxPoint x="-100" y="680" as="targetPoint" />
            <mxPoint x="45" y="680" as="sourcePoint" />
          </mxGeometry>
        </mxCell>
        <mxCell id="ajOcuPCZ97iv1Kwnhjg4-5" value="" style="html=1;points=[[0,0,0,0,5],[0,1,0,0,-5],[1,0,0,0,5],[1,1,0,0,-5]];perimeter=orthogonalPerimeter;outlineConnect=0;targetShapes=umlLifeline;portConstraint=eastwest;newEdgeStyle={&quot;curved&quot;:0,&quot;rounded&quot;:0};" vertex="1" parent="ajOcuPCZ97iv1Kwnhjg4-4">
          <mxGeometry x="45" y="90" width="10" height="880" as="geometry" />
        </mxCell>
        <mxCell id="ajOcuPCZ97iv1Kwnhjg4-17" value="s:Server" style="shape=umlLifeline;perimeter=lifelinePerimeter;whiteSpace=wrap;html=1;container=0;dropTarget=0;collapsible=0;recursiveResize=0;outlineConnect=0;portConstraint=eastwest;newEdgeStyle={&quot;edgeStyle&quot;:&quot;elbowEdgeStyle&quot;,&quot;elbow&quot;:&quot;vertical&quot;,&quot;curved&quot;:0,&quot;rounded&quot;:0};" vertex="1" parent="ajOcuPCZ97iv1Kwnhjg4-1">
          <mxGeometry x="300" y="50" width="100" height="980" as="geometry" />
        </mxCell>
        <mxCell id="ajOcuPCZ97iv1Kwnhjg4-18" value="" style="html=1;points=[[0,0,0,0,5],[0,1,0,0,-5],[1,0,0,0,5],[1,1,0,0,-5]];perimeter=orthogonalPerimeter;outlineConnect=0;targetShapes=umlLifeline;portConstraint=eastwest;newEdgeStyle={&quot;curved&quot;:0,&quot;rounded&quot;:0};" vertex="1" parent="ajOcuPCZ97iv1Kwnhjg4-17">
          <mxGeometry x="45" y="100" width="10" height="20" as="geometry" />
        </mxCell>
        <mxCell id="ajOcuPCZ97iv1Kwnhjg4-19" value="" style="html=1;points=[[0,0,0,0,5],[0,1,0,0,-5],[1,0,0,0,5],[1,1,0,0,-5]];perimeter=orthogonalPerimeter;outlineConnect=0;targetShapes=umlLifeline;portConstraint=eastwest;newEdgeStyle={&quot;curved&quot;:0,&quot;rounded&quot;:0};" vertex="1" parent="ajOcuPCZ97iv1Kwnhjg4-17">
          <mxGeometry x="45" y="190" width="10" height="30" as="geometry" />
        </mxCell>
        <mxCell id="ajOcuPCZ97iv1Kwnhjg4-20" value="" style="html=1;points=[[0,0,0,0,5],[0,1,0,0,-5],[1,0,0,0,5],[1,1,0,0,-5]];perimeter=orthogonalPerimeter;outlineConnect=0;targetShapes=umlLifeline;portConstraint=eastwest;newEdgeStyle={&quot;curved&quot;:0,&quot;rounded&quot;:0};" vertex="1" parent="ajOcuPCZ97iv1Kwnhjg4-17">
          <mxGeometry x="45" y="290" width="10" height="60" as="geometry" />
        </mxCell>
        <mxCell id="ajOcuPCZ97iv1Kwnhjg4-21" value="" style="html=1;points=[[0,0,0,0,5],[0,1,0,0,-5],[1,0,0,0,5],[1,1,0,0,-5]];perimeter=orthogonalPerimeter;outlineConnect=0;targetShapes=umlLifeline;portConstraint=eastwest;newEdgeStyle={&quot;curved&quot;:0,&quot;rounded&quot;:0};" vertex="1" parent="ajOcuPCZ97iv1Kwnhjg4-17">
          <mxGeometry x="45" y="640" width="10" height="30" as="geometry" />
        </mxCell>
        <mxCell id="ajOcuPCZ97iv1Kwnhjg4-22" value="" style="html=1;points=[[0,0,0,0,5],[0,1,0,0,-5],[1,0,0,0,5],[1,1,0,0,-5]];perimeter=orthogonalPerimeter;outlineConnect=0;targetShapes=umlLifeline;portConstraint=eastwest;newEdgeStyle={&quot;curved&quot;:0,&quot;rounded&quot;:0};" vertex="1" parent="ajOcuPCZ97iv1Kwnhjg4-17">
          <mxGeometry x="45" y="750" width="10" height="40" as="geometry" />
        </mxCell>
        <mxCell id="ajOcuPCZ97iv1Kwnhjg4-23" value="db:MongoDB" style="shape=umlLifeline;perimeter=lifelinePerimeter;whiteSpace=wrap;html=1;container=0;dropTarget=0;collapsible=0;recursiveResize=0;outlineConnect=0;portConstraint=eastwest;newEdgeStyle={&quot;edgeStyle&quot;:&quot;elbowEdgeStyle&quot;,&quot;elbow&quot;:&quot;vertical&quot;,&quot;curved&quot;:0,&quot;rounded&quot;:0};" vertex="1" parent="ajOcuPCZ97iv1Kwnhjg4-1">
          <mxGeometry x="470" y="50" width="100" height="980" as="geometry" />
        </mxCell>
        <mxCell id="ajOcuPCZ97iv1Kwnhjg4-24" value="" style="html=1;points=[[0,0,0,0,5],[0,1,0,0,-5],[1,0,0,0,5],[1,1,0,0,-5]];perimeter=orthogonalPerimeter;outlineConnect=0;targetShapes=umlLifeline;portConstraint=eastwest;newEdgeStyle={&quot;curved&quot;:0,&quot;rounded&quot;:0};" vertex="1" parent="ajOcuPCZ97iv1Kwnhjg4-23">
          <mxGeometry x="45" y="300" width="10" height="40" as="geometry" />
        </mxCell>
        <mxCell id="ajOcuPCZ97iv1Kwnhjg4-25" value="fetch(actionStack)" style="html=1;verticalAlign=bottom;endArrow=block;curved=0;rounded=0;entryX=0.033;entryY=-0.049;entryDx=0;entryDy=0;entryPerimeter=0;" edge="1" parent="ajOcuPCZ97iv1Kwnhjg4-1" source="ajOcuPCZ97iv1Kwnhjg4-5" target="ajOcuPCZ97iv1Kwnhjg4-18">
          <mxGeometry relative="1" as="geometry">
            <mxPoint x="275" y="155" as="sourcePoint" />
          </mxGeometry>
        </mxCell>
        <mxCell id="ajOcuPCZ97iv1Kwnhjg4-26" value="" style="html=1;verticalAlign=bottom;endArrow=open;dashed=1;endSize=8;curved=0;rounded=0;" edge="1" parent="ajOcuPCZ97iv1Kwnhjg4-1">
          <mxGeometry relative="1" as="geometry">
            <mxPoint x="185" y="170" as="targetPoint" />
            <mxPoint x="345" y="170" as="sourcePoint" />
          </mxGeometry>
        </mxCell>
        <mxCell id="ajOcuPCZ97iv1Kwnhjg4-29" value="change(speed)" style="html=1;verticalAlign=bottom;endArrow=block;curved=0;rounded=0;entryX=0;entryY=0;entryDx=0;entryDy=5;" edge="1" parent="ajOcuPCZ97iv1Kwnhjg4-1">
          <mxGeometry relative="1" as="geometry">
            <mxPoint x="185" y="240" as="sourcePoint" />
            <mxPoint x="345.0000000000002" y="240" as="targetPoint" />
          </mxGeometry>
        </mxCell>
        <mxCell id="ajOcuPCZ97iv1Kwnhjg4-30" value="" style="html=1;verticalAlign=bottom;endArrow=open;dashed=1;endSize=8;curved=0;rounded=0;exitX=0;exitY=1;exitDx=0;exitDy=-5;" edge="1" parent="ajOcuPCZ97iv1Kwnhjg4-1">
          <mxGeometry relative="1" as="geometry">
            <mxPoint x="185" y="270" as="targetPoint" />
            <mxPoint x="345.0000000000002" y="270" as="sourcePoint" />
          </mxGeometry>
        </mxCell>
        <mxCell id="ajOcuPCZ97iv1Kwnhjg4-32" value="Speed" style="text;align=center;fontStyle=1;verticalAlign=middle;spacingLeft=3;spacingRight=3;strokeColor=none;rotatable=0;points=[[0,0.5],[1,0.5]];portConstraint=eastwest;html=1;" vertex="1" parent="ajOcuPCZ97iv1Kwnhjg4-1">
          <mxGeometry x="70" y="190" width="80" height="26" as="geometry" />
        </mxCell>
        <mxCell id="ajOcuPCZ97iv1Kwnhjg4-33" value="Save" style="text;align=center;fontStyle=1;verticalAlign=middle;spacingLeft=3;spacingRight=3;strokeColor=none;rotatable=0;points=[[0,0.5],[1,0.5]];portConstraint=eastwest;html=1;" vertex="1" parent="ajOcuPCZ97iv1Kwnhjg4-1">
          <mxGeometry x="64" y="296" width="80" height="26" as="geometry" />
        </mxCell>
        <mxCell id="ajOcuPCZ97iv1Kwnhjg4-34" value="save(currentGame)" style="html=1;verticalAlign=bottom;endArrow=block;curved=0;rounded=0;" edge="1" parent="ajOcuPCZ97iv1Kwnhjg4-1">
          <mxGeometry relative="1" as="geometry">
            <mxPoint x="30" y="330" as="sourcePoint" />
            <mxPoint x="175" y="330" as="targetPoint" />
          </mxGeometry>
        </mxCell>
        <mxCell id="ajOcuPCZ97iv1Kwnhjg4-35" value="" style="html=1;verticalAlign=bottom;endArrow=open;dashed=1;endSize=8;curved=0;rounded=0;" edge="1" parent="ajOcuPCZ97iv1Kwnhjg4-1">
          <mxGeometry relative="1" as="geometry">
            <mxPoint x="30" y="410" as="targetPoint" />
            <mxPoint x="175" y="410" as="sourcePoint" />
          </mxGeometry>
        </mxCell>
        <mxCell id="ajOcuPCZ97iv1Kwnhjg4-37" value="" style="html=1;verticalAlign=bottom;endArrow=open;dashed=1;endSize=8;curved=0;rounded=0;exitX=0;exitY=1;exitDx=0;exitDy=-5;" edge="1" parent="ajOcuPCZ97iv1Kwnhjg4-1">
          <mxGeometry relative="1" as="geometry">
            <mxPoint x="185" y="400" as="targetPoint" />
            <mxPoint x="345" y="400" as="sourcePoint" />
          </mxGeometry>
        </mxCell>
        <mxCell id="ajOcuPCZ97iv1Kwnhjg4-38" value="save(currentGame)" style="html=1;verticalAlign=bottom;endArrow=block;curved=0;rounded=0;" edge="1" parent="ajOcuPCZ97iv1Kwnhjg4-1">
          <mxGeometry relative="1" as="geometry">
            <mxPoint x="185" y="340" as="sourcePoint" />
            <mxPoint x="345" y="340" as="targetPoint" />
          </mxGeometry>
        </mxCell>
        <mxCell id="ajOcuPCZ97iv1Kwnhjg4-39" value="" style="html=1;verticalAlign=bottom;endArrow=open;dashed=1;endSize=8;curved=0;rounded=0;exitX=0;exitY=1;exitDx=0;exitDy=-5;" edge="1" parent="ajOcuPCZ97iv1Kwnhjg4-1">
          <mxGeometry relative="1" as="geometry">
            <mxPoint x="355" y="390" as="targetPoint" />
            <mxPoint x="515" y="390" as="sourcePoint" />
          </mxGeometry>
        </mxCell>
        <mxCell id="ajOcuPCZ97iv1Kwnhjg4-40" value="add(game)" style="html=1;verticalAlign=bottom;endArrow=block;curved=0;rounded=0;entryX=0;entryY=0;entryDx=0;entryDy=5;" edge="1" parent="ajOcuPCZ97iv1Kwnhjg4-1">
          <mxGeometry relative="1" as="geometry">
            <mxPoint x="355" y="350" as="sourcePoint" />
            <mxPoint x="515" y="350" as="targetPoint" />
          </mxGeometry>
        </mxCell>
        <mxCell id="ajOcuPCZ97iv1Kwnhjg4-42" value="Pause" style="text;align=center;fontStyle=1;verticalAlign=middle;spacingLeft=3;spacingRight=3;strokeColor=none;rotatable=0;points=[[0,0.5],[1,0.5]];portConstraint=eastwest;html=1;" vertex="1" parent="ajOcuPCZ97iv1Kwnhjg4-1">
          <mxGeometry x="64" y="420" width="80" height="26" as="geometry" />
        </mxCell>
        <mxCell id="ajOcuPCZ97iv1Kwnhjg4-44" value="Replay is paused" style="text;align=center;fontStyle=1;verticalAlign=middle;spacingLeft=3;spacingRight=3;strokeColor=none;rotatable=0;points=[[0,0.5],[1,0.5]];portConstraint=eastwest;html=1;fontSize=10;" vertex="1" parent="ajOcuPCZ97iv1Kwnhjg4-1">
          <mxGeometry x="62" y="516" width="80" height="30" as="geometry" />
        </mxCell>
        <mxCell id="ajOcuPCZ97iv1Kwnhjg4-46" value="" style="html=1;verticalAlign=bottom;endArrow=open;dashed=1;endSize=8;curved=0;rounded=0;" edge="1" parent="ajOcuPCZ97iv1Kwnhjg4-1">
          <mxGeometry relative="1" as="geometry">
            <mxPoint x="30" y="600" as="targetPoint" />
            <mxPoint x="175" y="600" as="sourcePoint" />
          </mxGeometry>
        </mxCell>
        <mxCell id="ajOcuPCZ97iv1Kwnhjg4-48" value="Restart" style="text;align=center;fontStyle=1;verticalAlign=middle;spacingLeft=3;spacingRight=3;strokeColor=none;rotatable=0;points=[[0,0.5],[1,0.5]];portConstraint=eastwest;html=1;" vertex="1" parent="ajOcuPCZ97iv1Kwnhjg4-1">
          <mxGeometry x="62" y="640" width="80" height="26" as="geometry" />
        </mxCell>
        <mxCell id="ajOcuPCZ97iv1Kwnhjg4-49" value="fecth(actionStack)" style="html=1;verticalAlign=bottom;endArrow=block;curved=0;rounded=0;" edge="1" parent="ajOcuPCZ97iv1Kwnhjg4-1">
          <mxGeometry relative="1" as="geometry">
            <mxPoint x="185" y="690" as="sourcePoint" />
            <mxPoint x="345" y="690" as="targetPoint" />
          </mxGeometry>
        </mxCell>
        <mxCell id="ajOcuPCZ97iv1Kwnhjg4-50" value="" style="html=1;verticalAlign=bottom;endArrow=open;dashed=1;endSize=8;curved=0;rounded=0;" edge="1" parent="ajOcuPCZ97iv1Kwnhjg4-1">
          <mxGeometry x="0.0625" y="-5" relative="1" as="geometry">
            <mxPoint x="185" y="720" as="targetPoint" />
            <mxPoint x="345" y="720" as="sourcePoint" />
            <mxPoint as="offset" />
          </mxGeometry>
        </mxCell>
        <mxCell id="ajOcuPCZ97iv1Kwnhjg4-52" value="Timeline" style="text;align=center;fontStyle=1;verticalAlign=middle;spacingLeft=3;spacingRight=3;strokeColor=none;rotatable=0;points=[[0,0.5],[1,0.5]];portConstraint=eastwest;html=1;" vertex="1" parent="ajOcuPCZ97iv1Kwnhjg4-1">
          <mxGeometry x="64" y="758" width="80" height="26" as="geometry" />
        </mxCell>
        <mxCell id="ajOcuPCZ97iv1Kwnhjg4-54" value="moveTo(timestamp)" style="html=1;verticalAlign=bottom;endArrow=block;curved=0;rounded=0;" edge="1" parent="ajOcuPCZ97iv1Kwnhjg4-1" target="ajOcuPCZ97iv1Kwnhjg4-5">
          <mxGeometry x="-0.0667" relative="1" as="geometry">
            <mxPoint x="30" y="790" as="sourcePoint" />
            <mxPoint as="offset" />
            <mxPoint x="180" y="790" as="targetPoint" />
          </mxGeometry>
        </mxCell>
        <mxCell id="ajOcuPCZ97iv1Kwnhjg4-55" value="" style="html=1;verticalAlign=bottom;endArrow=open;dashed=1;endSize=8;curved=0;rounded=0;" edge="1" parent="ajOcuPCZ97iv1Kwnhjg4-1">
          <mxGeometry relative="1" as="geometry">
            <mxPoint x="30" y="850" as="targetPoint" />
            <mxPoint x="175" y="850" as="sourcePoint" />
          </mxGeometry>
        </mxCell>
        <mxCell id="ajOcuPCZ97iv1Kwnhjg4-56" value="" style="html=1;verticalAlign=bottom;endArrow=open;dashed=1;endSize=8;curved=0;rounded=0;" edge="1" parent="ajOcuPCZ97iv1Kwnhjg4-1">
          <mxGeometry relative="1" as="geometry">
            <mxPoint x="185" y="840" as="targetPoint" />
            <mxPoint x="350" y="840" as="sourcePoint" />
          </mxGeometry>
        </mxCell>
        <mxCell id="ajOcuPCZ97iv1Kwnhjg4-57" value="moveTo(timestamp)" style="html=1;verticalAlign=bottom;endArrow=block;curved=0;rounded=0;" edge="1" parent="ajOcuPCZ97iv1Kwnhjg4-1">
          <mxGeometry relative="1" as="geometry">
            <mxPoint x="185" y="800" as="sourcePoint" />
            <mxPoint x="350" y="800" as="targetPoint" />
          </mxGeometry>
        </mxCell>
        <mxCell id="ajOcuPCZ97iv1Kwnhjg4-59" value="end()" style="html=1;verticalAlign=bottom;endArrow=block;curved=0;rounded=0;entryX=0;entryY=0;entryDx=0;entryDy=0;entryPerimeter=0;" edge="1" parent="ajOcuPCZ97iv1Kwnhjg4-1">
          <mxGeometry relative="1" as="geometry">
            <mxPoint x="30" y="970" as="sourcePoint" />
            <mxPoint x="175" y="970" as="targetPoint" />
          </mxGeometry>
        </mxCell>
        <mxCell id="ajOcuPCZ97iv1Kwnhjg4-60" value="" style="html=1;verticalAlign=bottom;endArrow=open;dashed=1;endSize=8;curved=0;rounded=0;" edge="1" parent="ajOcuPCZ97iv1Kwnhjg4-1">
          <mxGeometry relative="1" as="geometry">
            <mxPoint x="30" y="1020" as="targetPoint" />
            <mxPoint x="175" y="1020" as="sourcePoint" />
          </mxGeometry>
        </mxCell>
        <mxCell id="ajOcuPCZ97iv1Kwnhjg4-61" value="" style="html=1;points=[[0,0,0,0,5],[0,1,0,0,-5],[1,0,0,0,5],[1,1,0,0,-5]];perimeter=orthogonalPerimeter;outlineConnect=0;targetShapes=umlLifeline;portConstraint=eastwest;newEdgeStyle={&quot;curved&quot;:0,&quot;rounded&quot;:0};" vertex="1" parent="ajOcuPCZ97iv1Kwnhjg4-1">
          <mxGeometry x="345" y="980" width="10" height="30" as="geometry" />
        </mxCell>
        <mxCell id="ajOcuPCZ97iv1Kwnhjg4-62" value="" style="html=1;verticalAlign=bottom;endArrow=open;dashed=1;endSize=8;curved=0;rounded=0;" edge="1" parent="ajOcuPCZ97iv1Kwnhjg4-1" source="ajOcuPCZ97iv1Kwnhjg4-61">
          <mxGeometry relative="1" as="geometry">
            <mxPoint x="184.9992592592596" y="1010" as="targetPoint" />
            <mxPoint x="350" y="1010" as="sourcePoint" />
            <mxPoint as="offset" />
          </mxGeometry>
        </mxCell>
        <mxCell id="ajOcuPCZ97iv1Kwnhjg4-63" value="end()" style="html=1;verticalAlign=bottom;endArrow=block;curved=0;rounded=0;entryX=0;entryY=0;entryDx=0;entryDy=5;" edge="1" parent="ajOcuPCZ97iv1Kwnhjg4-1">
          <mxGeometry relative="1" as="geometry">
            <mxPoint x="185" y="979.9999999999995" as="sourcePoint" />
            <mxPoint x="344.9999999999998" y="979.9999999999995" as="targetPoint" />
          </mxGeometry>
        </mxCell>
      </root>
    </mxGraphModel>
  </diagram>
  <diagram id="iTfVGLL5JQRQTqsQtI2x" name="diagramme_seq_auth">
    <mxGraphModel dx="2852" dy="1570" grid="1" gridSize="10" guides="1" tooltips="1" connect="1" arrows="1" fold="1" page="1" pageScale="1" pageWidth="850" pageHeight="1100" math="0" shadow="0">
      <root>
        <mxCell id="0" />
        <mxCell id="1" parent="0" />
        <mxCell id="EtIltce0YXlDhCkG5KSK-1" value="a:Page de connection" style="shape=umlLifeline;perimeter=lifelinePerimeter;whiteSpace=wrap;html=1;container=0;dropTarget=0;collapsible=0;recursiveResize=0;outlineConnect=0;portConstraint=eastwest;newEdgeStyle={&quot;edgeStyle&quot;:&quot;elbowEdgeStyle&quot;,&quot;elbow&quot;:&quot;vertical&quot;,&quot;curved&quot;:0,&quot;rounded&quot;:0};" vertex="1" parent="1">
          <mxGeometry x="270" y="395" width="140" height="345" as="geometry" />
        </mxCell>
        <mxCell id="EtIltce0YXlDhCkG5KSK-2" value="" style="html=1;points=[];perimeter=orthogonalPerimeter;outlineConnect=0;targetShapes=umlLifeline;portConstraint=eastwest;newEdgeStyle={&quot;edgeStyle&quot;:&quot;elbowEdgeStyle&quot;,&quot;elbow&quot;:&quot;vertical&quot;,&quot;curved&quot;:0,&quot;rounded&quot;:0};" vertex="1" parent="EtIltce0YXlDhCkG5KSK-1">
          <mxGeometry x="65" y="70" width="10" height="230" as="geometry" />
        </mxCell>
        <mxCell id="EtIltce0YXlDhCkG5KSK-3" value="p:Serveur" style="shape=umlLifeline;perimeter=lifelinePerimeter;whiteSpace=wrap;html=1;container=0;dropTarget=0;collapsible=0;recursiveResize=0;outlineConnect=0;portConstraint=eastwest;newEdgeStyle={&quot;edgeStyle&quot;:&quot;elbowEdgeStyle&quot;,&quot;elbow&quot;:&quot;vertical&quot;,&quot;curved&quot;:0,&quot;rounded&quot;:0};" vertex="1" parent="1">
          <mxGeometry x="430" y="395" width="110" height="345" as="geometry" />
        </mxCell>
        <mxCell id="EtIltce0YXlDhCkG5KSK-4" value="" style="html=1;points=[];perimeter=orthogonalPerimeter;outlineConnect=0;targetShapes=umlLifeline;portConstraint=eastwest;newEdgeStyle={&quot;edgeStyle&quot;:&quot;elbowEdgeStyle&quot;,&quot;elbow&quot;:&quot;vertical&quot;,&quot;curved&quot;:0,&quot;rounded&quot;:0};" vertex="1" parent="EtIltce0YXlDhCkG5KSK-3">
          <mxGeometry x="50" y="140" width="10" height="50" as="geometry" />
        </mxCell>
        <mxCell id="EtIltce0YXlDhCkG5KSK-5" value="Utilisateur" style="shape=umlActor;verticalLabelPosition=bottom;verticalAlign=top;html=1;outlineConnect=0;" vertex="1" parent="1">
          <mxGeometry x="160" y="395" width="20" height="40" as="geometry" />
        </mxCell>
        <mxCell id="EtIltce0YXlDhCkG5KSK-6" value="Autentification" style="shape=umlFrame;whiteSpace=wrap;html=1;pointerEvents=0;width=100;height=30;" vertex="1" parent="1">
          <mxGeometry x="100" y="350" width="650" height="400" as="geometry" />
        </mxCell>
        <mxCell id="EtIltce0YXlDhCkG5KSK-7" value="" style="endArrow=none;dashed=1;html=1;rounded=0;" edge="1" parent="1">
          <mxGeometry width="50" height="50" relative="1" as="geometry">
            <mxPoint x="169" y="740" as="sourcePoint" />
            <mxPoint x="169.44" y="460" as="targetPoint" />
          </mxGeometry>
        </mxCell>
        <mxCell id="EtIltce0YXlDhCkG5KSK-8" value="" style="endArrow=classic;html=1;rounded=0;" edge="1" parent="1" target="EtIltce0YXlDhCkG5KSK-2">
          <mxGeometry width="50" height="50" relative="1" as="geometry">
            <mxPoint x="170" y="474.26" as="sourcePoint" />
            <mxPoint x="330" y="474" as="targetPoint" />
            <Array as="points" />
          </mxGeometry>
        </mxCell>
        <mxCell id="EtIltce0YXlDhCkG5KSK-9" value="authenticate(userInfo)" style="edgeLabel;html=1;align=center;verticalAlign=middle;resizable=0;points=[];" vertex="1" connectable="0" parent="EtIltce0YXlDhCkG5KSK-8">
          <mxGeometry x="-0.0572" relative="1" as="geometry">
            <mxPoint y="-10" as="offset" />
          </mxGeometry>
        </mxCell>
        <mxCell id="EtIltce0YXlDhCkG5KSK-10" value="" style="endArrow=classic;html=1;rounded=0;" edge="1" parent="1" source="EtIltce0YXlDhCkG5KSK-2">
          <mxGeometry width="50" height="50" relative="1" as="geometry">
            <mxPoint x="340" y="540" as="sourcePoint" />
            <mxPoint x="480" y="540" as="targetPoint" />
            <Array as="points" />
          </mxGeometry>
        </mxCell>
        <mxCell id="EtIltce0YXlDhCkG5KSK-11" value="authenticate(userInfo)" style="edgeLabel;html=1;align=center;verticalAlign=middle;resizable=0;points=[];" vertex="1" connectable="0" parent="EtIltce0YXlDhCkG5KSK-10">
          <mxGeometry x="-0.0572" relative="1" as="geometry">
            <mxPoint x="1" y="-10" as="offset" />
          </mxGeometry>
        </mxCell>
        <mxCell id="EtIltce0YXlDhCkG5KSK-12" value="" style="html=1;verticalAlign=bottom;endArrow=open;dashed=1;endSize=8;curved=0;rounded=0;" edge="1" parent="1" target="EtIltce0YXlDhCkG5KSK-2">
          <mxGeometry relative="1" as="geometry">
            <mxPoint x="480" y="580" as="sourcePoint" />
            <mxPoint x="350" y="579.86" as="targetPoint" />
            <Array as="points">
              <mxPoint x="385" y="579.86" />
            </Array>
          </mxGeometry>
        </mxCell>
        <mxCell id="EtIltce0YXlDhCkG5KSK-13" value="" style="html=1;verticalAlign=bottom;endArrow=open;dashed=1;endSize=8;curved=0;rounded=0;" edge="1" parent="1" source="EtIltce0YXlDhCkG5KSK-2">
          <mxGeometry relative="1" as="geometry">
            <mxPoint x="367.4999999999999" y="680" as="sourcePoint" />
            <mxPoint x="170" y="680" as="targetPoint" />
          </mxGeometry>
        </mxCell>
        <mxCell id="EtIltce0YXlDhCkG5KSK-14" value="alt" style="shape=umlFrame;whiteSpace=wrap;html=1;pointerEvents=0;width=100;height=30;strokeWidth=1;" vertex="1" parent="1">
          <mxGeometry x="210" y="510" width="510" height="200" as="geometry" />
        </mxCell>
        <mxCell id="EtIltce0YXlDhCkG5KSK-15" value="f:FireBase" style="shape=umlLifeline;perimeter=lifelinePerimeter;whiteSpace=wrap;html=1;container=0;dropTarget=0;collapsible=0;recursiveResize=0;outlineConnect=0;portConstraint=eastwest;newEdgeStyle={&quot;edgeStyle&quot;:&quot;elbowEdgeStyle&quot;,&quot;elbow&quot;:&quot;vertical&quot;,&quot;curved&quot;:0,&quot;rounded&quot;:0};" vertex="1" parent="1">
          <mxGeometry x="550" y="395" width="140" height="345" as="geometry" />
        </mxCell>
        <mxCell id="EtIltce0YXlDhCkG5KSK-16" value="" style="html=1;points=[];perimeter=orthogonalPerimeter;outlineConnect=0;targetShapes=umlLifeline;portConstraint=eastwest;newEdgeStyle={&quot;edgeStyle&quot;:&quot;elbowEdgeStyle&quot;,&quot;elbow&quot;:&quot;vertical&quot;,&quot;curved&quot;:0,&quot;rounded&quot;:0};" vertex="1" parent="EtIltce0YXlDhCkG5KSK-15">
          <mxGeometry x="65" y="150" width="10" height="30" as="geometry" />
        </mxCell>
        <mxCell id="EtIltce0YXlDhCkG5KSK-17" value="" style="html=1;points=[];perimeter=orthogonalPerimeter;outlineConnect=0;targetShapes=umlLifeline;portConstraint=eastwest;newEdgeStyle={&quot;edgeStyle&quot;:&quot;elbowEdgeStyle&quot;,&quot;elbow&quot;:&quot;vertical&quot;,&quot;curved&quot;:0,&quot;rounded&quot;:0};" vertex="1" parent="EtIltce0YXlDhCkG5KSK-15">
          <mxGeometry x="-70" y="225" width="10" height="50" as="geometry" />
        </mxCell>
        <mxCell id="EtIltce0YXlDhCkG5KSK-18" value="" style="endArrow=classic;html=1;rounded=0;" edge="1" parent="EtIltce0YXlDhCkG5KSK-15">
          <mxGeometry width="50" height="50" relative="1" as="geometry">
            <mxPoint x="-205" y="230" as="sourcePoint" />
            <mxPoint x="-70" y="230" as="targetPoint" />
            <Array as="points" />
          </mxGeometry>
        </mxCell>
        <mxCell id="EtIltce0YXlDhCkG5KSK-19" value="authenticate(userInfo)" style="edgeLabel;html=1;align=center;verticalAlign=middle;resizable=0;points=[];" vertex="1" connectable="0" parent="EtIltce0YXlDhCkG5KSK-18">
          <mxGeometry x="-0.0572" relative="1" as="geometry">
            <mxPoint x="1" y="-10" as="offset" />
          </mxGeometry>
        </mxCell>
        <mxCell id="EtIltce0YXlDhCkG5KSK-20" value="" style="html=1;verticalAlign=bottom;endArrow=open;dashed=1;endSize=8;curved=0;rounded=0;" edge="1" parent="EtIltce0YXlDhCkG5KSK-15">
          <mxGeometry relative="1" as="geometry">
            <mxPoint x="-70" y="270" as="sourcePoint" />
            <mxPoint x="-205" y="270" as="targetPoint" />
            <Array as="points">
              <mxPoint x="-165" y="269.86" />
            </Array>
          </mxGeometry>
        </mxCell>
        <mxCell id="EtIltce0YXlDhCkG5KSK-21" value="" style="html=1;points=[];perimeter=orthogonalPerimeter;outlineConnect=0;targetShapes=umlLifeline;portConstraint=eastwest;newEdgeStyle={&quot;edgeStyle&quot;:&quot;elbowEdgeStyle&quot;,&quot;elbow&quot;:&quot;vertical&quot;,&quot;curved&quot;:0,&quot;rounded&quot;:0};" vertex="1" parent="EtIltce0YXlDhCkG5KSK-15">
          <mxGeometry x="65" y="235" width="10" height="30" as="geometry" />
        </mxCell>
        <mxCell id="EtIltce0YXlDhCkG5KSK-22" value="" style="endArrow=classic;html=1;rounded=0;" edge="1" parent="EtIltce0YXlDhCkG5KSK-15">
          <mxGeometry width="50" height="50" relative="1" as="geometry">
            <mxPoint x="-60" y="245" as="sourcePoint" />
            <mxPoint x="65" y="244.65999999999997" as="targetPoint" />
            <Array as="points" />
          </mxGeometry>
        </mxCell>
        <mxCell id="EtIltce0YXlDhCkG5KSK-23" value="authenticate(userInfo)" style="edgeLabel;html=1;align=center;verticalAlign=middle;resizable=0;points=[];" vertex="1" connectable="0" parent="EtIltce0YXlDhCkG5KSK-22">
          <mxGeometry x="-0.0572" relative="1" as="geometry">
            <mxPoint x="1" y="-10" as="offset" />
          </mxGeometry>
        </mxCell>
        <mxCell id="EtIltce0YXlDhCkG5KSK-24" value="" style="html=1;verticalAlign=bottom;endArrow=open;dashed=1;endSize=8;curved=0;rounded=0;" edge="1" parent="EtIltce0YXlDhCkG5KSK-15">
          <mxGeometry relative="1" as="geometry">
            <mxPoint x="65" y="260.14" as="sourcePoint" />
            <mxPoint x="-60" y="260" as="targetPoint" />
            <Array as="points">
              <mxPoint x="-30" y="260" />
            </Array>
          </mxGeometry>
        </mxCell>
        <mxCell id="EtIltce0YXlDhCkG5KSK-25" value="" style="endArrow=none;dashed=1;html=1;rounded=0;strokeWidth=2;" edge="1" parent="1">
          <mxGeometry width="50" height="50" relative="1" as="geometry">
            <mxPoint x="209.25" y="600" as="sourcePoint" />
            <mxPoint x="720" y="600" as="targetPoint" />
          </mxGeometry>
        </mxCell>
        <mxCell id="EtIltce0YXlDhCkG5KSK-26" value="[Échec]" style="text;html=1;strokeColor=none;fillColor=none;align=center;verticalAlign=middle;whiteSpace=wrap;rounded=0;" vertex="1" parent="1">
          <mxGeometry x="210" y="540" width="60" height="30" as="geometry" />
        </mxCell>
        <mxCell id="EtIltce0YXlDhCkG5KSK-27" value="[Réussite]" style="text;html=1;strokeColor=none;fillColor=none;align=center;verticalAlign=middle;whiteSpace=wrap;rounded=0;" vertex="1" parent="1">
          <mxGeometry x="210" y="600" width="60" height="30" as="geometry" />
        </mxCell>
        <mxCell id="EtIltce0YXlDhCkG5KSK-28" value="" style="html=1;verticalAlign=bottom;endArrow=open;dashed=1;endSize=8;curved=0;rounded=0;" edge="1" parent="1" source="EtIltce0YXlDhCkG5KSK-2">
          <mxGeometry relative="1" as="geometry">
            <mxPoint x="355" y="587" as="sourcePoint" />
            <mxPoint x="170" y="587" as="targetPoint" />
            <Array as="points">
              <mxPoint x="195" y="587.0799999999999" />
            </Array>
          </mxGeometry>
        </mxCell>
        <mxCell id="EtIltce0YXlDhCkG5KSK-29" value="" style="endArrow=classic;html=1;rounded=0;" edge="1" parent="1">
          <mxGeometry width="50" height="50" relative="1" as="geometry">
            <mxPoint x="490" y="555" as="sourcePoint" />
            <mxPoint x="615" y="554.66" as="targetPoint" />
            <Array as="points" />
          </mxGeometry>
        </mxCell>
        <mxCell id="EtIltce0YXlDhCkG5KSK-30" value="authenticate(userInfo)" style="edgeLabel;html=1;align=center;verticalAlign=middle;resizable=0;points=[];" vertex="1" connectable="0" parent="EtIltce0YXlDhCkG5KSK-29">
          <mxGeometry x="-0.0572" relative="1" as="geometry">
            <mxPoint x="1" y="-10" as="offset" />
          </mxGeometry>
        </mxCell>
        <mxCell id="EtIltce0YXlDhCkG5KSK-31" value="" style="html=1;verticalAlign=bottom;endArrow=open;dashed=1;endSize=8;curved=0;rounded=0;" edge="1" parent="1">
          <mxGeometry relative="1" as="geometry">
            <mxPoint x="615" y="570.14" as="sourcePoint" />
            <mxPoint x="490" y="570" as="targetPoint" />
            <Array as="points">
              <mxPoint x="520" y="570" />
            </Array>
          </mxGeometry>
        </mxCell>
      </root>
    </mxGraphModel>
  </diagram>
  <diagram id="dcaTgYloa8PxyooAGjt5" name="diagramme_seq_creation">
    <mxGraphModel dx="3565" dy="3063" grid="1" gridSize="10" guides="1" tooltips="1" connect="1" arrows="1" fold="1" page="1" pageScale="1" pageWidth="850" pageHeight="1100" math="0" shadow="0">
      <root>
        <mxCell id="0" />
        <mxCell id="1" parent="0" />
        <mxCell id="0yAag_olmV5X5Yj9WQ90-1" value="Création d&#39;un jeux" style="shape=umlFrame;whiteSpace=wrap;html=1;pointerEvents=0;recursiveResize=0;container=1;collapsible=0;width=160;" vertex="1" parent="1">
          <mxGeometry x="15" y="-1075" width="820" height="1050" as="geometry" />
        </mxCell>
        <mxCell id="0yAag_olmV5X5Yj9WQ90-2" value="" style="endArrow=none;dashed=1;html=1;rounded=0;exitX=0;exitY=0.505;exitDx=0;exitDy=0;exitPerimeter=0;entryX=1.004;entryY=0.502;entryDx=0;entryDy=0;entryPerimeter=0;strokeWidth=2;" edge="1" parent="0yAag_olmV5X5Yj9WQ90-1">
          <mxGeometry width="50" height="50" relative="1" as="geometry">
            <mxPoint x="23.46" y="890.69" as="sourcePoint" />
            <mxPoint x="796.5400000000002" y="890" as="targetPoint" />
          </mxGeometry>
        </mxCell>
        <mxCell id="0yAag_olmV5X5Yj9WQ90-3" value="" style="endArrow=none;dashed=1;html=1;rounded=0;entryX=0.073;entryY=1;entryDx=0;entryDy=0;entryPerimeter=0;" edge="1" parent="0yAag_olmV5X5Yj9WQ90-1" source="0yAag_olmV5X5Yj9WQ90-11" target="0yAag_olmV5X5Yj9WQ90-1">
          <mxGeometry width="50" height="50" relative="1" as="geometry">
            <mxPoint x="373.46" y="400" as="sourcePoint" />
            <mxPoint x="58.55999999999991" y="1112.1000000000004" as="targetPoint" />
          </mxGeometry>
        </mxCell>
        <mxCell id="0yAag_olmV5X5Yj9WQ90-4" value="opt" style="shape=umlFrame;whiteSpace=wrap;html=1;pointerEvents=0;" vertex="1" parent="0yAag_olmV5X5Yj9WQ90-1">
          <mxGeometry x="23.46" y="570" width="760" height="170" as="geometry" />
        </mxCell>
        <mxCell id="0yAag_olmV5X5Yj9WQ90-5" value="" style="line;strokeWidth=1;fillColor=none;align=left;verticalAlign=middle;spacingTop=-1;spacingLeft=3;spacingRight=3;rotatable=0;labelPosition=right;points=[];portConstraint=eastwest;strokeColor=inherit;" vertex="1" parent="0yAag_olmV5X5Yj9WQ90-1">
          <mxGeometry x="23.46" y="660" width="760" height="8" as="geometry" />
        </mxCell>
        <mxCell id="0yAag_olmV5X5Yj9WQ90-6" value="c:CreationPage" style="shape=umlLifeline;perimeter=lifelinePerimeter;whiteSpace=wrap;html=1;container=0;dropTarget=0;collapsible=0;recursiveResize=0;outlineConnect=0;portConstraint=eastwest;newEdgeStyle={&quot;edgeStyle&quot;:&quot;elbowEdgeStyle&quot;,&quot;elbow&quot;:&quot;vertical&quot;,&quot;curved&quot;:0,&quot;rounded&quot;:0};" vertex="1" parent="0yAag_olmV5X5Yj9WQ90-1">
          <mxGeometry x="213.46" y="60" width="100" height="990" as="geometry" />
        </mxCell>
        <mxCell id="0yAag_olmV5X5Yj9WQ90-7" value="generateDiffs()" style="html=1;verticalAlign=bottom;endArrow=block;curved=0;rounded=0;" edge="1" parent="0yAag_olmV5X5Yj9WQ90-6" target="0yAag_olmV5X5Yj9WQ90-44">
          <mxGeometry relative="1" as="geometry">
            <mxPoint x="-153.46000000000004" y="80" as="sourcePoint" />
            <mxPoint x="50.539999999999964" y="80" as="targetPoint" />
          </mxGeometry>
        </mxCell>
        <mxCell id="0yAag_olmV5X5Yj9WQ90-8" value="s:Server" style="shape=umlLifeline;perimeter=lifelinePerimeter;whiteSpace=wrap;html=1;container=1;dropTarget=0;collapsible=0;recursiveResize=0;outlineConnect=0;portConstraint=eastwest;newEdgeStyle={&quot;edgeStyle&quot;:&quot;elbowEdgeStyle&quot;,&quot;elbow&quot;:&quot;vertical&quot;,&quot;curved&quot;:0,&quot;rounded&quot;:0};" vertex="1" parent="0yAag_olmV5X5Yj9WQ90-1">
          <mxGeometry x="398.46" y="60" width="100" height="990" as="geometry" />
        </mxCell>
        <mxCell id="0yAag_olmV5X5Yj9WQ90-9" value="" style="html=1;points=[[0,0,0,0,5],[0,1,0,0,-5],[1,0,0,0,5],[1,1,0,0,-5]];perimeter=orthogonalPerimeter;outlineConnect=0;targetShapes=umlLifeline;portConstraint=eastwest;newEdgeStyle={&quot;curved&quot;:0,&quot;rounded&quot;:0};" vertex="1" parent="0yAag_olmV5X5Yj9WQ90-8">
          <mxGeometry x="46.54" y="93" width="10" height="17" as="geometry" />
        </mxCell>
        <mxCell id="0yAag_olmV5X5Yj9WQ90-10" value="db:MongoDB" style="shape=umlLifeline;perimeter=lifelinePerimeter;whiteSpace=wrap;html=1;container=1;dropTarget=0;collapsible=0;recursiveResize=0;outlineConnect=0;portConstraint=eastwest;newEdgeStyle={&quot;edgeStyle&quot;:&quot;elbowEdgeStyle&quot;,&quot;elbow&quot;:&quot;vertical&quot;,&quot;curved&quot;:0,&quot;rounded&quot;:0};" vertex="1" parent="0yAag_olmV5X5Yj9WQ90-1">
          <mxGeometry x="583.46" y="60" width="100" height="990" as="geometry" />
        </mxCell>
        <mxCell id="0yAag_olmV5X5Yj9WQ90-11" value="Admin&lt;br&gt;" style="shape=umlActor;verticalLabelPosition=bottom;verticalAlign=top;html=1;labelBackgroundColor=default;" vertex="1" parent="0yAag_olmV5X5Yj9WQ90-1">
          <mxGeometry x="45.46" y="50" width="30" height="60" as="geometry" />
        </mxCell>
        <mxCell id="0yAag_olmV5X5Yj9WQ90-12" value="User chooses to upload" style="text;align=center;fontStyle=1;verticalAlign=middle;spacingLeft=3;spacingRight=3;strokeColor=none;rotatable=0;points=[[0,0.5],[1,0.5]];portConstraint=eastwest;html=1;" vertex="1" parent="0yAag_olmV5X5Yj9WQ90-1">
          <mxGeometry x="93.46" y="180" width="80" height="26" as="geometry" />
        </mxCell>
        <mxCell id="0yAag_olmV5X5Yj9WQ90-13" value="upload(image)" style="html=1;verticalAlign=bottom;endArrow=block;curved=0;rounded=0;" edge="1" parent="0yAag_olmV5X5Yj9WQ90-1" target="0yAag_olmV5X5Yj9WQ90-44">
          <mxGeometry relative="1" as="geometry">
            <mxPoint x="63.46" y="220" as="sourcePoint" />
          </mxGeometry>
        </mxCell>
        <mxCell id="0yAag_olmV5X5Yj9WQ90-14" value="User chooses to draw" style="text;align=center;fontStyle=1;verticalAlign=middle;spacingLeft=3;spacingRight=3;strokeColor=none;rotatable=0;points=[[0,0.5],[1,0.5]];portConstraint=eastwest;html=1;" vertex="1" parent="0yAag_olmV5X5Yj9WQ90-1">
          <mxGeometry x="90.46" y="266" width="80" height="26" as="geometry" />
        </mxCell>
        <mxCell id="0yAag_olmV5X5Yj9WQ90-15" value="" style="html=1;verticalAlign=bottom;endArrow=open;dashed=1;endSize=8;curved=0;rounded=0;exitX=0;exitY=1;exitDx=0;exitDy=-5;" edge="1" parent="0yAag_olmV5X5Yj9WQ90-1">
          <mxGeometry relative="1" as="geometry">
            <mxPoint x="63.46" y="399.17" as="targetPoint" />
            <mxPoint x="258.46" y="399.17" as="sourcePoint" />
          </mxGeometry>
        </mxCell>
        <mxCell id="0yAag_olmV5X5Yj9WQ90-16" value="" style="html=1;verticalAlign=bottom;endArrow=open;dashed=1;endSize=8;curved=0;rounded=0;exitX=0;exitY=1;exitDx=0;exitDy=-5;" edge="1" parent="0yAag_olmV5X5Yj9WQ90-1">
          <mxGeometry relative="1" as="geometry">
            <mxPoint x="63.46" y="450" as="targetPoint" />
            <mxPoint x="258.46" y="450.0000000000002" as="sourcePoint" />
          </mxGeometry>
        </mxCell>
        <mxCell id="0yAag_olmV5X5Yj9WQ90-17" value="" style="html=1;verticalAlign=bottom;endArrow=open;dashed=1;endSize=8;curved=0;rounded=0;exitX=0;exitY=1;exitDx=0;exitDy=-5;" edge="1" parent="0yAag_olmV5X5Yj9WQ90-1">
          <mxGeometry relative="1" as="geometry">
            <mxPoint x="53.46" y="500" as="targetPoint" />
            <mxPoint x="258.46" y="498.9999999999998" as="sourcePoint" />
          </mxGeometry>
        </mxCell>
        <mxCell id="0yAag_olmV5X5Yj9WQ90-18" value="return" style="html=1;verticalAlign=bottom;endArrow=open;dashed=1;endSize=8;curved=0;rounded=0;exitX=0;exitY=1;exitDx=0;exitDy=-5;" edge="1" parent="0yAag_olmV5X5Yj9WQ90-1">
          <mxGeometry relative="1" as="geometry">
            <mxPoint x="53.46" y="560" as="targetPoint" />
            <mxPoint x="258.46" y="559.9999999999998" as="sourcePoint" />
          </mxGeometry>
        </mxCell>
        <mxCell id="0yAag_olmV5X5Yj9WQ90-19" value="User must have used a tool" style="text;align=center;fontStyle=1;verticalAlign=middle;spacingLeft=3;spacingRight=3;strokeColor=none;rotatable=0;points=[[0,0.5],[1,0.5]];portConstraint=eastwest;html=1;" vertex="1" parent="0yAag_olmV5X5Yj9WQ90-1">
          <mxGeometry x="123.46" y="570" width="80" height="26" as="geometry" />
        </mxCell>
        <mxCell id="0yAag_olmV5X5Yj9WQ90-20" value="" style="html=1;verticalAlign=bottom;endArrow=open;dashed=1;endSize=8;curved=0;rounded=0;exitX=0;exitY=1;exitDx=0;exitDy=-5;" edge="1" parent="0yAag_olmV5X5Yj9WQ90-1">
          <mxGeometry relative="1" as="geometry">
            <mxPoint x="63.46" y="640" as="targetPoint" />
            <mxPoint x="258.46" y="639.72" as="sourcePoint" />
          </mxGeometry>
        </mxCell>
        <mxCell id="0yAag_olmV5X5Yj9WQ90-21" value="[Échec]" style="text;html=1;strokeColor=none;fillColor=none;align=center;verticalAlign=middle;whiteSpace=wrap;rounded=0;labelBackgroundColor=default;" vertex="1" parent="0yAag_olmV5X5Yj9WQ90-1">
          <mxGeometry x="30.46" y="910" width="60" height="30" as="geometry" />
        </mxCell>
        <mxCell id="0yAag_olmV5X5Yj9WQ90-22" value="" style="html=1;verticalAlign=bottom;startArrow=none;endArrow=open;endFill=0;rounded=0;exitX=0.387;exitY=-0.045;exitDx=0;exitDy=0;exitPerimeter=0;" edge="1" parent="0yAag_olmV5X5Yj9WQ90-1" source="0yAag_olmV5X5Yj9WQ90-30" target="0yAag_olmV5X5Yj9WQ90-44">
          <mxGeometry relative="1" as="geometry">
            <mxPoint x="105.75000000000004" y="802.0900000000001" as="sourcePoint" />
            <mxPoint x="259.56" y="800" as="targetPoint" />
          </mxGeometry>
        </mxCell>
        <mxCell id="0yAag_olmV5X5Yj9WQ90-23" value="send(Game info)" style="edgeLabel;html=1;align=center;verticalAlign=middle;resizable=0;points=[];" vertex="1" connectable="0" parent="0yAag_olmV5X5Yj9WQ90-22">
          <mxGeometry x="-0.081" y="1" relative="1" as="geometry">
            <mxPoint as="offset" />
          </mxGeometry>
        </mxCell>
        <mxCell id="0yAag_olmV5X5Yj9WQ90-24" value="" style="html=1;verticalAlign=bottom;labelBackgroundColor=none;endArrow=block;endFill=1;dashed=1;rounded=0;exitX=0.02;exitY=0.908;exitDx=0;exitDy=0;exitPerimeter=0;" edge="1" parent="0yAag_olmV5X5Yj9WQ90-1">
          <mxGeometry width="160" relative="1" as="geometry">
            <mxPoint x="442.56" y="819.2400000000002" as="sourcePoint" />
            <mxPoint x="268.46" y="819" as="targetPoint" />
          </mxGeometry>
        </mxCell>
        <mxCell id="0yAag_olmV5X5Yj9WQ90-25" value="" style="html=1;verticalAlign=bottom;labelBackgroundColor=none;endArrow=open;endFill=0;dashed=1;rounded=0;exitX=-0.01;exitY=0.826;exitDx=0;exitDy=0;exitPerimeter=0;" edge="1" parent="0yAag_olmV5X5Yj9WQ90-1">
          <mxGeometry width="160" relative="1" as="geometry">
            <mxPoint x="259.45999999999987" y="825.2199999999999" as="sourcePoint" />
            <mxPoint x="63.46" y="824.66" as="targetPoint" />
          </mxGeometry>
        </mxCell>
        <mxCell id="0yAag_olmV5X5Yj9WQ90-26" value="" style="html=1;verticalAlign=bottom;startArrow=none;endArrow=open;endFill=0;rounded=0;entryX=0;entryY=0;entryDx=0;entryDy=0;exitX=1.034;exitY=0.164;exitDx=0;exitDy=0;exitPerimeter=0;" edge="1" parent="0yAag_olmV5X5Yj9WQ90-1" target="0yAag_olmV5X5Yj9WQ90-37">
          <mxGeometry relative="1" as="geometry">
            <mxPoint x="269.90000000000003" y="809.8399999999999" as="sourcePoint" />
            <mxPoint x="424.56" y="730" as="targetPoint" />
          </mxGeometry>
        </mxCell>
        <mxCell id="0yAag_olmV5X5Yj9WQ90-27" value="validate(gameInfo)" style="edgeLabel;html=1;align=center;verticalAlign=middle;resizable=0;points=[];" vertex="1" connectable="0" parent="0yAag_olmV5X5Yj9WQ90-26">
          <mxGeometry x="0.015" y="-1" relative="1" as="geometry">
            <mxPoint as="offset" />
          </mxGeometry>
        </mxCell>
        <mxCell id="0yAag_olmV5X5Yj9WQ90-28" value="send(Game info)" style="html=1;verticalAlign=bottom;endArrow=block;curved=0;rounded=0;exitX=0.5;exitY=0;exitDx=0;exitDy=0;" edge="1" parent="0yAag_olmV5X5Yj9WQ90-1" target="0yAag_olmV5X5Yj9WQ90-44">
          <mxGeometry relative="1" as="geometry">
            <mxPoint x="53.46" y="910" as="sourcePoint" />
            <mxPoint x="246.78999999999994" y="910" as="targetPoint" />
          </mxGeometry>
        </mxCell>
        <mxCell id="0yAag_olmV5X5Yj9WQ90-29" value="" style="html=1;verticalAlign=bottom;endArrow=open;dashed=1;endSize=8;curved=0;rounded=0;" edge="1" parent="0yAag_olmV5X5Yj9WQ90-1">
          <mxGeometry relative="1" as="geometry">
            <mxPoint x="63.46" y="955" as="targetPoint" />
            <mxPoint x="256.7899999999999" y="954.9099999999999" as="sourcePoint" />
          </mxGeometry>
        </mxCell>
        <mxCell id="0yAag_olmV5X5Yj9WQ90-30" value="[Réussite]" style="text;html=1;strokeColor=none;fillColor=none;align=center;verticalAlign=middle;whiteSpace=wrap;rounded=0;labelBackgroundColor=default;" vertex="1" parent="0yAag_olmV5X5Yj9WQ90-1">
          <mxGeometry x="33.46" y="800" width="60" height="30" as="geometry" />
        </mxCell>
        <mxCell id="0yAag_olmV5X5Yj9WQ90-31" value="alt" style="shape=umlFrame;whiteSpace=wrap;html=1;pointerEvents=0;" vertex="1" parent="0yAag_olmV5X5Yj9WQ90-1">
          <mxGeometry x="23.46" y="750" width="770" height="230" as="geometry" />
        </mxCell>
        <mxCell id="0yAag_olmV5X5Yj9WQ90-32" value="" style="html=1;points=[[0,0,0,0,5],[0,1,0,0,-5],[1,0,0,0,5],[1,1,0,0,-5]];perimeter=orthogonalPerimeter;outlineConnect=0;targetShapes=umlLifeline;portConstraint=eastwest;newEdgeStyle={&quot;curved&quot;:0,&quot;rounded&quot;:0};" vertex="1" parent="0yAag_olmV5X5Yj9WQ90-1">
          <mxGeometry x="628.46" y="855.5" width="10" height="14.5" as="geometry" />
        </mxCell>
        <mxCell id="0yAag_olmV5X5Yj9WQ90-33" value="add(gameInfo)" style="html=1;verticalAlign=bottom;endArrow=block;curved=0;rounded=0;exitX=1;exitY=0.25;exitDx=0;exitDy=0;" edge="1" parent="0yAag_olmV5X5Yj9WQ90-1">
          <mxGeometry relative="1" as="geometry">
            <mxPoint x="453.46" y="855.5" as="sourcePoint" />
            <mxPoint x="628.46" y="855.5" as="targetPoint" />
          </mxGeometry>
        </mxCell>
        <mxCell id="0yAag_olmV5X5Yj9WQ90-34" value="" style="html=1;verticalAlign=bottom;endArrow=open;dashed=1;endSize=8;curved=0;rounded=0;" edge="1" parent="0yAag_olmV5X5Yj9WQ90-1">
          <mxGeometry relative="1" as="geometry">
            <mxPoint x="452.46" y="869" as="targetPoint" />
            <mxPoint x="627.46" y="869.1800000000001" as="sourcePoint" />
          </mxGeometry>
        </mxCell>
        <mxCell id="0yAag_olmV5X5Yj9WQ90-35" value="confirm()" style="html=1;verticalAlign=bottom;endArrow=block;curved=0;rounded=0;" edge="1" parent="0yAag_olmV5X5Yj9WQ90-1">
          <mxGeometry relative="1" as="geometry">
            <mxPoint x="63.46" y="840" as="sourcePoint" />
            <mxPoint x="253.46" y="840" as="targetPoint" />
          </mxGeometry>
        </mxCell>
        <mxCell id="0yAag_olmV5X5Yj9WQ90-36" value="add(gameInfo)" style="html=1;verticalAlign=bottom;endArrow=block;curved=0;rounded=0;entryX=-0.1;entryY=0.574;entryDx=0;entryDy=0;entryPerimeter=0;" edge="1" parent="0yAag_olmV5X5Yj9WQ90-1" source="0yAag_olmV5X5Yj9WQ90-44" target="0yAag_olmV5X5Yj9WQ90-37">
          <mxGeometry relative="1" as="geometry">
            <mxPoint x="273.46" y="850" as="sourcePoint" />
            <mxPoint x="343.46" y="850" as="targetPoint" />
          </mxGeometry>
        </mxCell>
        <mxCell id="0yAag_olmV5X5Yj9WQ90-37" value="" style="rounded=0;dashed=0;" vertex="1" parent="0yAag_olmV5X5Yj9WQ90-1">
          <mxGeometry x="443.46" y="810" width="10" height="67" as="geometry" />
        </mxCell>
        <mxCell id="0yAag_olmV5X5Yj9WQ90-38" value="" style="html=1;points=[[0,0,0,0,5],[0,1,0,0,-5],[1,0,0,0,5],[1,1,0,0,-5]];perimeter=orthogonalPerimeter;outlineConnect=0;targetShapes=umlLifeline;portConstraint=eastwest;newEdgeStyle={&quot;curved&quot;:0,&quot;rounded&quot;:0};" vertex="1" parent="0yAag_olmV5X5Yj9WQ90-1">
          <mxGeometry x="443.46" y="920" width="10" height="30" as="geometry" />
        </mxCell>
        <mxCell id="0yAag_olmV5X5Yj9WQ90-39" value="validate(gameInfo)" style="html=1;verticalAlign=bottom;endArrow=block;curved=0;rounded=0;entryX=0;entryY=0;entryDx=0;entryDy=5;" edge="1" parent="0yAag_olmV5X5Yj9WQ90-1" source="0yAag_olmV5X5Yj9WQ90-44" target="0yAag_olmV5X5Yj9WQ90-38">
          <mxGeometry relative="1" as="geometry">
            <mxPoint x="373.46" y="915" as="sourcePoint" />
          </mxGeometry>
        </mxCell>
        <mxCell id="0yAag_olmV5X5Yj9WQ90-40" value="" style="html=1;verticalAlign=bottom;endArrow=open;dashed=1;endSize=8;curved=0;rounded=0;exitX=0;exitY=1;exitDx=0;exitDy=-5;" edge="1" parent="0yAag_olmV5X5Yj9WQ90-1" source="0yAag_olmV5X5Yj9WQ90-38">
          <mxGeometry relative="1" as="geometry">
            <mxPoint x="268.46" y="945" as="targetPoint" />
          </mxGeometry>
        </mxCell>
        <mxCell id="0yAag_olmV5X5Yj9WQ90-41" value="" style="html=1;verticalAlign=bottom;endArrow=open;dashed=1;endSize=8;curved=0;rounded=0;" edge="1" parent="0yAag_olmV5X5Yj9WQ90-1" source="0yAag_olmV5X5Yj9WQ90-44">
          <mxGeometry relative="1" as="geometry">
            <mxPoint x="63.460000000000036" y="260" as="targetPoint" />
          </mxGeometry>
        </mxCell>
        <mxCell id="0yAag_olmV5X5Yj9WQ90-42" value="tool(pen)" style="html=1;verticalAlign=bottom;endArrow=block;curved=0;rounded=0;" edge="1" parent="0yAag_olmV5X5Yj9WQ90-1">
          <mxGeometry relative="1" as="geometry">
            <mxPoint x="63.460000000000036" y="300" as="sourcePoint" />
            <mxPoint x="258.46000000000004" y="300" as="targetPoint" />
          </mxGeometry>
        </mxCell>
        <mxCell id="0yAag_olmV5X5Yj9WQ90-43" value="" style="html=1;verticalAlign=bottom;endArrow=open;dashed=1;endSize=8;curved=0;rounded=0;" edge="1" parent="0yAag_olmV5X5Yj9WQ90-1">
          <mxGeometry relative="1" as="geometry">
            <mxPoint x="63.460000000000036" y="340" as="targetPoint" />
            <mxPoint x="258.46000000000004" y="340" as="sourcePoint" />
          </mxGeometry>
        </mxCell>
        <mxCell id="0yAag_olmV5X5Yj9WQ90-44" value="" style="html=1;points=[[0,0,0,0,5],[0,1,0,0,-5],[1,0,0,0,5],[1,1,0,0,-5]];perimeter=orthogonalPerimeter;outlineConnect=0;targetShapes=umlLifeline;portConstraint=eastwest;newEdgeStyle={&quot;curved&quot;:0,&quot;rounded&quot;:0};" vertex="1" parent="0yAag_olmV5X5Yj9WQ90-1">
          <mxGeometry x="258.46" y="140" width="10" height="850" as="geometry" />
        </mxCell>
        <mxCell id="0yAag_olmV5X5Yj9WQ90-45" value="tool(circle)" style="html=1;verticalAlign=bottom;endArrow=block;curved=0;rounded=0;entryX=0;entryY=0;entryDx=0;entryDy=5;" edge="1" parent="0yAag_olmV5X5Yj9WQ90-1">
          <mxGeometry relative="1" as="geometry">
            <mxPoint x="63.460000000000036" y="365" as="sourcePoint" />
            <mxPoint x="258.46000000000004" y="365" as="targetPoint" />
          </mxGeometry>
        </mxCell>
        <mxCell id="0yAag_olmV5X5Yj9WQ90-46" value="tool(ellipse)" style="html=1;verticalAlign=bottom;endArrow=block;curved=0;rounded=0;" edge="1" parent="0yAag_olmV5X5Yj9WQ90-1" target="0yAag_olmV5X5Yj9WQ90-44">
          <mxGeometry relative="1" as="geometry">
            <mxPoint x="53.460000000000036" y="420" as="sourcePoint" />
            <mxPoint x="253.46000000000004" y="420" as="targetPoint" />
          </mxGeometry>
        </mxCell>
        <mxCell id="0yAag_olmV5X5Yj9WQ90-47" value="tool(colorPicker)" style="html=1;verticalAlign=bottom;endArrow=block;curved=0;rounded=0;entryX=0;entryY=0;entryDx=0;entryDy=0;entryPerimeter=0;" edge="1" parent="0yAag_olmV5X5Yj9WQ90-1">
          <mxGeometry relative="1" as="geometry">
            <mxPoint x="63.460000000000036" y="470" as="sourcePoint" />
            <mxPoint x="258.46000000000004" y="469.9999999999998" as="targetPoint" />
          </mxGeometry>
        </mxCell>
        <mxCell id="0yAag_olmV5X5Yj9WQ90-48" value="tool(eyedropper)" style="html=1;verticalAlign=bottom;endArrow=block;curved=0;rounded=0;entryX=0;entryY=0;entryDx=0;entryDy=5;" edge="1" parent="0yAag_olmV5X5Yj9WQ90-1">
          <mxGeometry relative="1" as="geometry">
            <mxPoint x="63.460000000000036" y="525" as="sourcePoint" />
            <mxPoint x="258.46000000000004" y="524.9999999999998" as="targetPoint" />
          </mxGeometry>
        </mxCell>
        <mxCell id="0yAag_olmV5X5Yj9WQ90-49" value="command(undo)" style="html=1;verticalAlign=bottom;endArrow=block;curved=0;rounded=0;entryX=0;entryY=0;entryDx=0;entryDy=5;" edge="1" parent="0yAag_olmV5X5Yj9WQ90-1">
          <mxGeometry relative="1" as="geometry">
            <mxPoint x="63.460000000000036" y="615" as="sourcePoint" />
            <mxPoint x="258.46000000000004" y="615" as="targetPoint" />
          </mxGeometry>
        </mxCell>
        <mxCell id="0yAag_olmV5X5Yj9WQ90-50" value="command(redo)" style="html=1;verticalAlign=bottom;endArrow=block;curved=0;rounded=0;entryX=0;entryY=0;entryDx=0;entryDy=5;" edge="1" parent="0yAag_olmV5X5Yj9WQ90-1">
          <mxGeometry relative="1" as="geometry">
            <mxPoint x="63.460000000000036" y="685" as="sourcePoint" />
            <mxPoint x="258.46000000000004" y="685" as="targetPoint" />
          </mxGeometry>
        </mxCell>
        <mxCell id="0yAag_olmV5X5Yj9WQ90-51" value="" style="html=1;verticalAlign=bottom;endArrow=open;dashed=1;endSize=8;curved=0;rounded=0;exitX=0;exitY=1;exitDx=0;exitDy=-5;" edge="1" parent="0yAag_olmV5X5Yj9WQ90-1">
          <mxGeometry relative="1" as="geometry">
            <mxPoint x="63.460000000000036" y="715" as="targetPoint" />
            <mxPoint x="258.46000000000004" y="715" as="sourcePoint" />
          </mxGeometry>
        </mxCell>
        <mxCell id="0yAag_olmV5X5Yj9WQ90-52" value="" style="html=1;verticalAlign=bottom;endArrow=open;dashed=1;endSize=8;curved=0;rounded=0;exitX=0;exitY=1;exitDx=0;exitDy=-5;" edge="1" parent="0yAag_olmV5X5Yj9WQ90-1">
          <mxGeometry relative="1" as="geometry">
            <mxPoint x="60" y="180" as="targetPoint" />
            <mxPoint x="258.46000000000004" y="180" as="sourcePoint" />
          </mxGeometry>
        </mxCell>
        <mxCell id="0yAag_olmV5X5Yj9WQ90-53" value="user chooses to generate differences" style="text;align=center;fontStyle=1;verticalAlign=middle;spacingLeft=3;spacingRight=3;strokeColor=none;rotatable=0;points=[[0,0.5],[1,0.5]];portConstraint=eastwest;html=1;fontSize=9;" vertex="1" parent="0yAag_olmV5X5Yj9WQ90-1">
          <mxGeometry x="119.99999999999997" y="100" width="80" height="26" as="geometry" />
        </mxCell>
        <mxCell id="0yAag_olmV5X5Yj9WQ90-54" value="generateDiffs()" style="html=1;verticalAlign=bottom;endArrow=block;curved=0;rounded=0;entryX=0;entryY=0;entryDx=0;entryDy=5;" edge="1" parent="0yAag_olmV5X5Yj9WQ90-1">
          <mxGeometry relative="1" as="geometry">
            <mxPoint x="268.46000000000004" y="153" as="sourcePoint" />
            <mxPoint x="445" y="153" as="targetPoint" />
          </mxGeometry>
        </mxCell>
        <mxCell id="0yAag_olmV5X5Yj9WQ90-55" value="" style="html=1;verticalAlign=bottom;endArrow=open;dashed=1;endSize=8;curved=0;rounded=0;exitX=0;exitY=1;exitDx=0;exitDy=-5;" edge="1" parent="0yAag_olmV5X5Yj9WQ90-1">
          <mxGeometry relative="1" as="geometry">
            <mxPoint x="268.46000000000004" y="170" as="targetPoint" />
            <mxPoint x="445" y="170" as="sourcePoint" />
          </mxGeometry>
        </mxCell>
        <mxCell id="0yAag_olmV5X5Yj9WQ90-56" value="return" style="html=1;verticalAlign=bottom;endArrow=open;dashed=1;endSize=8;curved=0;rounded=0;exitX=0;exitY=1;exitDx=0;exitDy=-5;" edge="1" parent="1">
          <mxGeometry relative="1" as="geometry">
            <mxPoint x="282.46000000000004" y="-199" as="targetPoint" />
            <mxPoint x="457.46000000000004" y="-199" as="sourcePoint" />
          </mxGeometry>
        </mxCell>
        <mxCell id="0yAag_olmV5X5Yj9WQ90-57" value="" style="html=1;verticalAlign=bottom;endArrow=open;dashed=1;endSize=8;curved=0;rounded=0;exitX=0;exitY=1;exitDx=0;exitDy=-5;" edge="1" parent="1">
          <mxGeometry relative="1" as="geometry">
            <mxPoint x="68.46000000000004" y="-193" as="targetPoint" />
            <mxPoint x="271.46000000000004" y="-193" as="sourcePoint" />
          </mxGeometry>
        </mxCell>
      </root>
    </mxGraphModel>
  </diagram>
  <diagram id="XBsRwktaBQySnVdKnPe7" name="diagramme_seq_classique">
    <mxGraphModel dx="2593" dy="1427" grid="1" gridSize="10" guides="1" tooltips="1" connect="1" arrows="1" fold="1" page="1" pageScale="1" pageWidth="850" pageHeight="1100" math="0" shadow="0">
      <root>
        <mxCell id="0" />
        <mxCell id="1" parent="0" />
        <mxCell id="hyTpjykAoSPmtf1WP08Y-2" value="Partie Classique" style="shape=umlFrame;whiteSpace=wrap;html=1;pointerEvents=0;recursiveResize=0;container=1;collapsible=0;width=160;" vertex="1" parent="1">
          <mxGeometry x="220" y="325" width="410" height="450" as="geometry" />
        </mxCell>
        <mxCell id="hyTpjykAoSPmtf1WP08Y-3" value="Utilisateur" style="shape=umlActor;verticalLabelPosition=bottom;verticalAlign=top;html=1;" vertex="1" parent="hyTpjykAoSPmtf1WP08Y-2">
          <mxGeometry x="30" y="50" width="30" height="60" as="geometry" />
        </mxCell>
        <mxCell id="hyTpjykAoSPmtf1WP08Y-4" value="" style="endArrow=none;dashed=1;html=1;rounded=0;entryX=0.097;entryY=1;entryDx=0;entryDy=0;entryPerimeter=0;orthogonal=1;" edge="1" parent="hyTpjykAoSPmtf1WP08Y-2" target="hyTpjykAoSPmtf1WP08Y-2">
          <mxGeometry width="50" height="50" relative="1" as="geometry">
            <mxPoint x="40" y="130" as="sourcePoint" />
            <mxPoint x="40" y="410" as="targetPoint" />
          </mxGeometry>
        </mxCell>
        <mxCell id="hyTpjykAoSPmtf1WP08Y-5" value="s:Serveur" style="shape=umlLifeline;perimeter=lifelinePerimeter;whiteSpace=wrap;html=1;container=1;dropTarget=0;collapsible=0;recursiveResize=0;outlineConnect=0;portConstraint=eastwest;newEdgeStyle={&quot;edgeStyle&quot;:&quot;elbowEdgeStyle&quot;,&quot;elbow&quot;:&quot;vertical&quot;,&quot;curved&quot;:0,&quot;rounded&quot;:0};" vertex="1" parent="hyTpjykAoSPmtf1WP08Y-2">
          <mxGeometry x="270" y="50" width="100" height="400" as="geometry" />
        </mxCell>
        <mxCell id="hyTpjykAoSPmtf1WP08Y-6" value="" style="html=1;points=[[0,0,0,0,5],[0,1,0,0,-5],[1,0,0,0,5],[1,1,0,0,-5]];perimeter=orthogonalPerimeter;outlineConnect=0;targetShapes=umlLifeline;portConstraint=eastwest;newEdgeStyle={&quot;curved&quot;:0,&quot;rounded&quot;:0};" vertex="1" parent="hyTpjykAoSPmtf1WP08Y-5">
          <mxGeometry x="45" y="215" width="10" height="25" as="geometry" />
        </mxCell>
        <mxCell id="hyTpjykAoSPmtf1WP08Y-7" value="" style="html=1;points=[[0,0,0,0,5],[0,1,0,0,-5],[1,0,0,0,5],[1,1,0,0,-5]];perimeter=orthogonalPerimeter;outlineConnect=0;targetShapes=umlLifeline;portConstraint=eastwest;newEdgeStyle={&quot;curved&quot;:0,&quot;rounded&quot;:0};" vertex="1" parent="hyTpjykAoSPmtf1WP08Y-5">
          <mxGeometry x="45" y="280" width="10" height="20" as="geometry" />
        </mxCell>
        <mxCell id="hyTpjykAoSPmtf1WP08Y-8" value="g:gamePage" style="shape=umlLifeline;perimeter=lifelinePerimeter;whiteSpace=wrap;html=1;container=1;dropTarget=0;collapsible=0;recursiveResize=0;outlineConnect=0;portConstraint=eastwest;newEdgeStyle={&quot;edgeStyle&quot;:&quot;elbowEdgeStyle&quot;,&quot;elbow&quot;:&quot;vertical&quot;,&quot;curved&quot;:0,&quot;rounded&quot;:0};" vertex="1" parent="hyTpjykAoSPmtf1WP08Y-2">
          <mxGeometry x="160" y="50" width="100" height="400" as="geometry" />
        </mxCell>
        <mxCell id="hyTpjykAoSPmtf1WP08Y-9" value="" style="html=1;points=[[0,0,0,0,5],[0,1,0,0,-5],[1,0,0,0,5],[1,1,0,0,-5]];perimeter=orthogonalPerimeter;outlineConnect=0;targetShapes=umlLifeline;portConstraint=eastwest;newEdgeStyle={&quot;curved&quot;:0,&quot;rounded&quot;:0};" vertex="1" parent="hyTpjykAoSPmtf1WP08Y-8">
          <mxGeometry x="45" y="210" width="10" height="40" as="geometry" />
        </mxCell>
        <mxCell id="hyTpjykAoSPmtf1WP08Y-10" value="Click()" style="html=1;verticalAlign=bottom;endArrow=block;curved=0;rounded=0;" edge="1" parent="hyTpjykAoSPmtf1WP08Y-2">
          <mxGeometry width="80" relative="1" as="geometry">
            <mxPoint x="40" y="185" as="sourcePoint" />
            <mxPoint x="205" y="185" as="targetPoint" />
          </mxGeometry>
        </mxCell>
        <mxCell id="hyTpjykAoSPmtf1WP08Y-11" value="" style="html=1;verticalAlign=bottom;labelBackgroundColor=none;endArrow=open;endFill=0;dashed=1;rounded=0;" edge="1" parent="hyTpjykAoSPmtf1WP08Y-2">
          <mxGeometry width="160" relative="1" as="geometry">
            <mxPoint x="205" y="225" as="sourcePoint" />
            <mxPoint x="40" y="225" as="targetPoint" />
          </mxGeometry>
        </mxCell>
        <mxCell id="hyTpjykAoSPmtf1WP08Y-12" value="Loop(numDiff)" style="shape=umlFrame;whiteSpace=wrap;html=1;pointerEvents=0;recursiveResize=0;container=1;collapsible=0;width=100;height=25;" vertex="1" parent="hyTpjykAoSPmtf1WP08Y-2">
          <mxGeometry x="10" y="135" width="360" height="265" as="geometry" />
        </mxCell>
        <mxCell id="hyTpjykAoSPmtf1WP08Y-13" value="send(coords)" style="html=1;verticalAlign=bottom;endArrow=block;curved=0;rounded=0;" edge="1" parent="hyTpjykAoSPmtf1WP08Y-12">
          <mxGeometry width="80" relative="1" as="geometry">
            <mxPoint x="205" y="60" as="sourcePoint" />
            <mxPoint x="305" y="60" as="targetPoint" />
          </mxGeometry>
        </mxCell>
        <mxCell id="hyTpjykAoSPmtf1WP08Y-14" value="" style="html=1;verticalAlign=bottom;labelBackgroundColor=none;endArrow=open;endFill=0;dashed=1;rounded=0;entryX=1;entryY=1;entryDx=0;entryDy=-5;entryPerimeter=0;" edge="1" parent="hyTpjykAoSPmtf1WP08Y-12">
          <mxGeometry width="160" relative="1" as="geometry">
            <mxPoint x="305" y="80" as="sourcePoint" />
            <mxPoint x="205" y="80" as="targetPoint" />
          </mxGeometry>
        </mxCell>
        <mxCell id="hyTpjykAoSPmtf1WP08Y-15" value="" style="html=1;points=[[0,0,0,0,5],[0,1,0,0,-5],[1,0,0,0,5],[1,1,0,0,-5]];perimeter=orthogonalPerimeter;outlineConnect=0;targetShapes=umlLifeline;portConstraint=eastwest;newEdgeStyle={&quot;curved&quot;:0,&quot;rounded&quot;:0};" vertex="1" parent="hyTpjykAoSPmtf1WP08Y-12">
          <mxGeometry x="195" y="50" width="10" height="170" as="geometry" />
        </mxCell>
        <mxCell id="hyTpjykAoSPmtf1WP08Y-16" value="" style="html=1;points=[[0,0,0,0,5],[0,1,0,0,-5],[1,0,0,0,5],[1,1,0,0,-5]];perimeter=orthogonalPerimeter;outlineConnect=0;targetShapes=umlLifeline;portConstraint=eastwest;newEdgeStyle={&quot;curved&quot;:0,&quot;rounded&quot;:0};" vertex="1" parent="hyTpjykAoSPmtf1WP08Y-12">
          <mxGeometry x="305" y="60" width="10" height="20" as="geometry" />
        </mxCell>
        <mxCell id="hyTpjykAoSPmtf1WP08Y-17" value="quit()" style="html=1;verticalAlign=bottom;endArrow=block;curved=0;rounded=0;entryX=0;entryY=0;entryDx=0;entryDy=5;" edge="1" parent="hyTpjykAoSPmtf1WP08Y-12">
          <mxGeometry relative="1" as="geometry">
            <mxPoint x="30" y="190" as="sourcePoint" />
            <mxPoint x="195" y="190" as="targetPoint" />
          </mxGeometry>
        </mxCell>
        <mxCell id="hyTpjykAoSPmtf1WP08Y-18" value="" style="html=1;verticalAlign=bottom;endArrow=open;dashed=1;endSize=8;curved=0;rounded=0;exitX=0;exitY=1;exitDx=0;exitDy=-5;" edge="1" parent="hyTpjykAoSPmtf1WP08Y-12">
          <mxGeometry relative="1" as="geometry">
            <mxPoint x="30" y="220" as="targetPoint" />
            <mxPoint x="195" y="220" as="sourcePoint" />
          </mxGeometry>
        </mxCell>
        <mxCell id="hyTpjykAoSPmtf1WP08Y-19" value="quit()" style="html=1;verticalAlign=bottom;endArrow=block;curved=0;rounded=0;entryX=0;entryY=0;entryDx=0;entryDy=5;" edge="1" parent="hyTpjykAoSPmtf1WP08Y-12">
          <mxGeometry relative="1" as="geometry">
            <mxPoint x="205" y="195" as="sourcePoint" />
            <mxPoint x="305" y="195" as="targetPoint" />
          </mxGeometry>
        </mxCell>
        <mxCell id="hyTpjykAoSPmtf1WP08Y-20" value="" style="html=1;verticalAlign=bottom;endArrow=open;dashed=1;endSize=8;curved=0;rounded=0;exitX=0;exitY=1;exitDx=0;exitDy=-5;" edge="1" parent="hyTpjykAoSPmtf1WP08Y-12">
          <mxGeometry relative="1" as="geometry">
            <mxPoint x="205" y="215" as="targetPoint" />
            <mxPoint x="305" y="215" as="sourcePoint" />
          </mxGeometry>
        </mxCell>
        <mxCell id="hyTpjykAoSPmtf1WP08Y-21" value="" style="html=1;verticalAlign=bottom;endArrow=open;dashed=1;endSize=8;curved=0;rounded=0;exitX=0;exitY=1;exitDx=0;exitDy=-5;" edge="1" parent="hyTpjykAoSPmtf1WP08Y-2" source="hyTpjykAoSPmtf1WP08Y-9">
          <mxGeometry relative="1" as="geometry">
            <mxPoint x="40" y="295" as="targetPoint" />
          </mxGeometry>
        </mxCell>
        <mxCell id="hyTpjykAoSPmtf1WP08Y-22" value="return" style="html=1;verticalAlign=bottom;endArrow=open;dashed=1;endSize=8;curved=0;rounded=0;exitX=0;exitY=1;exitDx=0;exitDy=-5;" edge="1" parent="hyTpjykAoSPmtf1WP08Y-2">
          <mxGeometry relative="1" as="geometry">
            <mxPoint x="215" y="290" as="targetPoint" />
            <mxPoint x="315" y="290" as="sourcePoint" />
          </mxGeometry>
        </mxCell>
        <mxCell id="hyTpjykAoSPmtf1WP08Y-23" value="replay()" style="html=1;verticalAlign=bottom;endArrow=block;curved=0;rounded=0;" edge="1" parent="hyTpjykAoSPmtf1WP08Y-2">
          <mxGeometry relative="1" as="geometry">
            <mxPoint x="215" y="265" as="sourcePoint" />
            <mxPoint x="315" y="265" as="targetPoint" />
          </mxGeometry>
        </mxCell>
        <mxCell id="hyTpjykAoSPmtf1WP08Y-24" value="replay()" style="html=1;verticalAlign=bottom;endArrow=block;curved=0;rounded=0;" edge="1" parent="1">
          <mxGeometry relative="1" as="geometry">
            <mxPoint x="260" y="585" as="sourcePoint" />
            <mxPoint x="424" y="585" as="targetPoint" />
          </mxGeometry>
        </mxCell>
      </root>
    </mxGraphModel>
  </diagram>
  <diagram id="v5pimlRZk86IBqa2N5-i" name="diagramme_seq_limite">
    <mxGraphModel dx="2037" dy="21" grid="1" gridSize="10" guides="1" tooltips="1" connect="1" arrows="1" fold="1" page="1" pageScale="1" pageWidth="850" pageHeight="1100" math="0" shadow="0">
      <root>
        <mxCell id="0" />
        <mxCell id="1" parent="0" />
        <mxCell id="M9rZeNlH4XiD4lhE5jXu-1" value="Partie Temps Limité" style="shape=umlFrame;whiteSpace=wrap;html=1;pointerEvents=0;recursiveResize=0;container=1;collapsible=0;width=150;height=30;" vertex="1" parent="1">
          <mxGeometry x="185" y="1430" width="480" height="440" as="geometry" />
        </mxCell>
        <mxCell id="M9rZeNlH4XiD4lhE5jXu-2" value="s:Server" style="shape=umlLifeline;perimeter=lifelinePerimeter;whiteSpace=wrap;html=1;container=1;dropTarget=0;collapsible=0;recursiveResize=0;outlineConnect=0;portConstraint=eastwest;newEdgeStyle={&quot;edgeStyle&quot;:&quot;elbowEdgeStyle&quot;,&quot;elbow&quot;:&quot;vertical&quot;,&quot;curved&quot;:0,&quot;rounded&quot;:0};" vertex="1" parent="M9rZeNlH4XiD4lhE5jXu-1">
          <mxGeometry x="300" y="40" width="100" height="400" as="geometry" />
        </mxCell>
        <mxCell id="M9rZeNlH4XiD4lhE5jXu-3" value="" style="html=1;points=[[0,0,0,0,5],[0,1,0,0,-5],[1,0,0,0,5],[1,1,0,0,-5]];perimeter=orthogonalPerimeter;outlineConnect=0;targetShapes=umlLifeline;portConstraint=eastwest;newEdgeStyle={&quot;curved&quot;:0,&quot;rounded&quot;:0};" vertex="1" parent="M9rZeNlH4XiD4lhE5jXu-2">
          <mxGeometry x="45" y="280" width="10" height="30" as="geometry" />
        </mxCell>
        <mxCell id="M9rZeNlH4XiD4lhE5jXu-4" value="" style="endArrow=none;dashed=1;html=1;rounded=0;entryX=0.126;entryY=0.998;entryDx=0;entryDy=0;entryPerimeter=0;" edge="1" parent="M9rZeNlH4XiD4lhE5jXu-1" source="M9rZeNlH4XiD4lhE5jXu-17" target="M9rZeNlH4XiD4lhE5jXu-1">
          <mxGeometry width="50" height="50" relative="1" as="geometry">
            <mxPoint x="300" y="230" as="sourcePoint" />
            <mxPoint x="60" y="340" as="targetPoint" />
          </mxGeometry>
        </mxCell>
        <mxCell id="M9rZeNlH4XiD4lhE5jXu-5" value="Loop(numGameCard)" style="shape=umlFrame;whiteSpace=wrap;html=1;pointerEvents=0;recursiveResize=0;container=1;collapsible=0;width=130;height=30;" vertex="1" parent="M9rZeNlH4XiD4lhE5jXu-1">
          <mxGeometry x="20" y="150" width="440" height="140" as="geometry" />
        </mxCell>
        <mxCell id="M9rZeNlH4XiD4lhE5jXu-6" value="click()" style="html=1;verticalAlign=bottom;endArrow=block;curved=0;rounded=0;entryX=0;entryY=0;entryDx=0;entryDy=5;" edge="1" parent="M9rZeNlH4XiD4lhE5jXu-5">
          <mxGeometry relative="1" as="geometry">
            <mxPoint x="40" y="50" as="sourcePoint" />
            <mxPoint x="190" y="50" as="targetPoint" />
          </mxGeometry>
        </mxCell>
        <mxCell id="M9rZeNlH4XiD4lhE5jXu-7" value="" style="html=1;verticalAlign=bottom;endArrow=open;dashed=1;endSize=8;curved=0;rounded=0;exitX=0;exitY=1;exitDx=0;exitDy=-5;" edge="1" parent="M9rZeNlH4XiD4lhE5jXu-5">
          <mxGeometry x="0.0008" relative="1" as="geometry">
            <mxPoint x="40" y="120" as="targetPoint" />
            <mxPoint x="190" y="120" as="sourcePoint" />
            <mxPoint as="offset" />
          </mxGeometry>
        </mxCell>
        <mxCell id="M9rZeNlH4XiD4lhE5jXu-8" value="send(coords)" style="html=1;verticalAlign=bottom;endArrow=block;curved=0;rounded=0;entryX=0;entryY=0;entryDx=0;entryDy=5;" edge="1" parent="M9rZeNlH4XiD4lhE5jXu-5">
          <mxGeometry relative="1" as="geometry">
            <mxPoint x="200" y="60" as="sourcePoint" />
            <mxPoint x="325" y="60" as="targetPoint" />
          </mxGeometry>
        </mxCell>
        <mxCell id="M9rZeNlH4XiD4lhE5jXu-9" value="" style="html=1;verticalAlign=bottom;endArrow=open;dashed=1;endSize=8;curved=0;rounded=0;exitX=0;exitY=1;exitDx=0;exitDy=-5;" edge="1" parent="M9rZeNlH4XiD4lhE5jXu-5">
          <mxGeometry relative="1" as="geometry">
            <mxPoint x="200" y="80" as="targetPoint" />
            <mxPoint x="325" y="80" as="sourcePoint" />
          </mxGeometry>
        </mxCell>
        <mxCell id="M9rZeNlH4XiD4lhE5jXu-10" value="" style="html=1;points=[[0,0,0,0,5],[0,1,0,0,-5],[1,0,0,0,5],[1,1,0,0,-5]];perimeter=orthogonalPerimeter;outlineConnect=0;targetShapes=umlLifeline;portConstraint=eastwest;newEdgeStyle={&quot;curved&quot;:0,&quot;rounded&quot;:0};" vertex="1" parent="M9rZeNlH4XiD4lhE5jXu-5">
          <mxGeometry x="325" y="100" width="10" height="10" as="geometry" />
        </mxCell>
        <mxCell id="M9rZeNlH4XiD4lhE5jXu-11" value="" style="html=1;verticalAlign=bottom;endArrow=open;dashed=1;endSize=8;curved=0;rounded=0;" edge="1" parent="M9rZeNlH4XiD4lhE5jXu-5">
          <mxGeometry relative="1" as="geometry">
            <mxPoint x="200" y="110" as="targetPoint" />
            <mxPoint x="325" y="110" as="sourcePoint" />
          </mxGeometry>
        </mxCell>
        <mxCell id="M9rZeNlH4XiD4lhE5jXu-12" value="fecth(gameCard)" style="html=1;verticalAlign=bottom;endArrow=block;curved=0;rounded=0;" edge="1" parent="M9rZeNlH4XiD4lhE5jXu-5">
          <mxGeometry relative="1" as="geometry">
            <mxPoint x="200" y="100" as="sourcePoint" />
            <mxPoint x="325" y="100" as="targetPoint" />
          </mxGeometry>
        </mxCell>
        <mxCell id="M9rZeNlH4XiD4lhE5jXu-13" value="" style="html=1;points=[[0,0,0,0,5],[0,1,0,0,-5],[1,0,0,0,5],[1,1,0,0,-5]];perimeter=orthogonalPerimeter;outlineConnect=0;targetShapes=umlLifeline;portConstraint=eastwest;newEdgeStyle={&quot;curved&quot;:0,&quot;rounded&quot;:0};" vertex="1" parent="M9rZeNlH4XiD4lhE5jXu-5">
          <mxGeometry x="325" y="60" width="10" height="20" as="geometry" />
        </mxCell>
        <mxCell id="M9rZeNlH4XiD4lhE5jXu-14" value="game:limitedTimePage" style="shape=umlLifeline;perimeter=lifelinePerimeter;whiteSpace=wrap;html=1;container=1;dropTarget=0;collapsible=0;recursiveResize=0;outlineConnect=0;portConstraint=eastwest;newEdgeStyle={&quot;edgeStyle&quot;:&quot;elbowEdgeStyle&quot;,&quot;elbow&quot;:&quot;vertical&quot;,&quot;curved&quot;:0,&quot;rounded&quot;:0};size=40;" vertex="1" parent="M9rZeNlH4XiD4lhE5jXu-1">
          <mxGeometry x="150" y="40" width="130" height="400" as="geometry" />
        </mxCell>
        <mxCell id="M9rZeNlH4XiD4lhE5jXu-15" value="" style="html=1;points=[[0,0,0,0,5],[0,1,0,0,-5],[1,0,0,0,5],[1,1,0,0,-5]];perimeter=orthogonalPerimeter;outlineConnect=0;targetShapes=umlLifeline;portConstraint=eastwest;newEdgeStyle={&quot;curved&quot;:0,&quot;rounded&quot;:0};" vertex="1" parent="M9rZeNlH4XiD4lhE5jXu-14">
          <mxGeometry x="60" y="160" width="10" height="160" as="geometry" />
        </mxCell>
        <mxCell id="M9rZeNlH4XiD4lhE5jXu-16" value="qui()" style="html=1;verticalAlign=bottom;endArrow=block;curved=0;rounded=0;entryX=0;entryY=0;entryDx=0;entryDy=5;" edge="1" parent="M9rZeNlH4XiD4lhE5jXu-14">
          <mxGeometry relative="1" as="geometry">
            <mxPoint x="-90" y="275" as="sourcePoint" />
            <mxPoint x="60" y="275" as="targetPoint" />
          </mxGeometry>
        </mxCell>
        <mxCell id="M9rZeNlH4XiD4lhE5jXu-17" value="Utilisateur" style="shape=umlActor;verticalLabelPosition=bottom;verticalAlign=top;html=1;labelBackgroundColor=default;" vertex="1" parent="M9rZeNlH4XiD4lhE5jXu-1">
          <mxGeometry x="40" y="40" width="40" height="70" as="geometry" />
        </mxCell>
        <mxCell id="M9rZeNlH4XiD4lhE5jXu-18" value="" style="html=1;verticalAlign=bottom;endArrow=open;dashed=1;endSize=8;curved=0;rounded=0;exitX=0;exitY=1;exitDx=0;exitDy=-5;" edge="1" parent="M9rZeNlH4XiD4lhE5jXu-1">
          <mxGeometry relative="1" as="geometry">
            <mxPoint x="60" y="360" as="targetPoint" />
            <mxPoint x="210" y="360" as="sourcePoint" />
          </mxGeometry>
        </mxCell>
        <mxCell id="M9rZeNlH4XiD4lhE5jXu-19" value="quit()" style="html=1;verticalAlign=bottom;endArrow=block;curved=0;rounded=0;entryX=0;entryY=0;entryDx=0;entryDy=5;" edge="1" parent="M9rZeNlH4XiD4lhE5jXu-1" source="M9rZeNlH4XiD4lhE5jXu-15" target="M9rZeNlH4XiD4lhE5jXu-3">
          <mxGeometry relative="1" as="geometry">
            <mxPoint x="275" y="325" as="sourcePoint" />
          </mxGeometry>
        </mxCell>
        <mxCell id="M9rZeNlH4XiD4lhE5jXu-20" value="" style="html=1;verticalAlign=bottom;endArrow=open;dashed=1;endSize=8;curved=0;rounded=0;exitX=0;exitY=1;exitDx=0;exitDy=-5;" edge="1" parent="M9rZeNlH4XiD4lhE5jXu-1">
          <mxGeometry relative="1" as="geometry">
            <mxPoint x="220" y="350" as="targetPoint" />
            <mxPoint x="345" y="350" as="sourcePoint" />
          </mxGeometry>
        </mxCell>
      </root>
    </mxGraphModel>
  </diagram>
  <diagram id="OtoKYyE7Ls91GMwktpw8" name="diagramme_seq_mode">
    <mxGraphModel dx="2852" dy="470" grid="1" gridSize="10" guides="1" tooltips="1" connect="1" arrows="1" fold="1" page="1" pageScale="1" pageWidth="850" pageHeight="1100" math="0" shadow="0">
      <root>
        <mxCell id="0" />
        <mxCell id="1" parent="0" />
        <mxCell id="hyylRVP1O5ARUxNAKlt3-1" value="Mode de Jeux" style="shape=umlFrame;whiteSpace=wrap;html=1;pointerEvents=0;recursiveResize=0;container=1;collapsible=0;width=160;" vertex="1" parent="1">
          <mxGeometry x="85" y="1484" width="680" height="330" as="geometry" />
        </mxCell>
        <mxCell id="hyylRVP1O5ARUxNAKlt3-2" value="" style="endArrow=none;dashed=1;html=1;rounded=0;orthogonal=1;" edge="1" parent="hyylRVP1O5ARUxNAKlt3-1" target="hyylRVP1O5ARUxNAKlt3-10">
          <mxGeometry width="50" height="50" relative="1" as="geometry">
            <mxPoint x="163" y="330" as="sourcePoint" />
            <mxPoint x="740" y="230" as="targetPoint" />
          </mxGeometry>
        </mxCell>
        <mxCell id="hyylRVP1O5ARUxNAKlt3-3" value="lobby:SelectionPage" style="shape=umlLifeline;perimeter=lifelinePerimeter;whiteSpace=wrap;html=1;container=0;dropTarget=0;collapsible=0;recursiveResize=0;outlineConnect=0;portConstraint=eastwest;newEdgeStyle={&quot;edgeStyle&quot;:&quot;elbowEdgeStyle&quot;,&quot;elbow&quot;:&quot;vertical&quot;,&quot;curved&quot;:0,&quot;rounded&quot;:0};" vertex="1" parent="hyylRVP1O5ARUxNAKlt3-1">
          <mxGeometry x="260" y="40" width="120" height="290" as="geometry" />
        </mxCell>
        <mxCell id="hyylRVP1O5ARUxNAKlt3-4" value="" style="html=1;points=[[0,0,0,0,5],[0,1,0,0,-5],[1,0,0,0,5],[1,1,0,0,-5]];perimeter=orthogonalPerimeter;outlineConnect=0;targetShapes=umlLifeline;portConstraint=eastwest;newEdgeStyle={&quot;curved&quot;:0,&quot;rounded&quot;:0};strokeColor=default;fontFamily=Helvetica;fontSize=12;fontColor=default;fillColor=default;" vertex="1" parent="hyylRVP1O5ARUxNAKlt3-3">
          <mxGeometry x="55" y="100" width="10" height="110" as="geometry" />
        </mxCell>
        <mxCell id="hyylRVP1O5ARUxNAKlt3-5" value="" style="html=1;points=[[0,0,0,0,5],[0,1,0,0,-5],[1,0,0,0,5],[1,1,0,0,-5]];perimeter=orthogonalPerimeter;outlineConnect=0;targetShapes=umlLifeline;portConstraint=eastwest;newEdgeStyle={&quot;curved&quot;:0,&quot;rounded&quot;:0};strokeColor=default;fontFamily=Helvetica;fontSize=12;fontColor=default;fillColor=default;" vertex="1" parent="hyylRVP1O5ARUxNAKlt3-3">
          <mxGeometry x="56" y="241" width="10" height="40" as="geometry" />
        </mxCell>
        <mxCell id="hyylRVP1O5ARUxNAKlt3-6" value="joinGame()" style="html=1;verticalAlign=bottom;endArrow=block;curved=0;rounded=0;labelBackgroundColor=default;strokeColor=default;fontFamily=Helvetica;fontSize=12;fontColor=default;shape=connector;orthogonal=0;" edge="1" parent="hyylRVP1O5ARUxNAKlt3-3" target="hyylRVP1O5ARUxNAKlt3-5">
          <mxGeometry relative="1" as="geometry">
            <mxPoint x="-176" y="241" as="sourcePoint" />
          </mxGeometry>
        </mxCell>
        <mxCell id="hyylRVP1O5ARUxNAKlt3-7" value="s:Server" style="shape=umlLifeline;perimeter=lifelinePerimeter;whiteSpace=wrap;html=1;container=0;dropTarget=0;collapsible=0;recursiveResize=0;outlineConnect=0;portConstraint=eastwest;newEdgeStyle={&quot;edgeStyle&quot;:&quot;elbowEdgeStyle&quot;,&quot;elbow&quot;:&quot;vertical&quot;,&quot;curved&quot;:0,&quot;rounded&quot;:0};" vertex="1" parent="hyylRVP1O5ARUxNAKlt3-1">
          <mxGeometry x="420" y="40" width="100" height="290" as="geometry" />
        </mxCell>
        <mxCell id="hyylRVP1O5ARUxNAKlt3-8" value="" style="html=1;points=[[0,0,0,0,5],[0,1,0,0,-5],[1,0,0,0,5],[1,1,0,0,-5]];perimeter=orthogonalPerimeter;outlineConnect=0;targetShapes=umlLifeline;portConstraint=eastwest;newEdgeStyle={&quot;curved&quot;:0,&quot;rounded&quot;:0};strokeColor=default;fontFamily=Helvetica;fontSize=12;fontColor=default;fillColor=default;" vertex="1" parent="hyylRVP1O5ARUxNAKlt3-7">
          <mxGeometry x="46" y="251" width="10" height="20" as="geometry" />
        </mxCell>
        <mxCell id="hyylRVP1O5ARUxNAKlt3-9" value="" style="html=1;points=[[0,0,0,0,5],[0,1,0,0,-5],[1,0,0,0,5],[1,1,0,0,-5]];perimeter=orthogonalPerimeter;outlineConnect=0;targetShapes=umlLifeline;portConstraint=eastwest;newEdgeStyle={&quot;curved&quot;:0,&quot;rounded&quot;:0};" vertex="1" parent="hyylRVP1O5ARUxNAKlt3-7">
          <mxGeometry x="45" y="180" width="10" height="20" as="geometry" />
        </mxCell>
        <mxCell id="hyylRVP1O5ARUxNAKlt3-10" value="MatchAdmin" style="shape=umlActor;verticalLabelPosition=bottom;verticalAlign=top;html=1;labelBackgroundColor=default;" vertex="1" parent="hyylRVP1O5ARUxNAKlt3-1">
          <mxGeometry x="150" y="40" width="30" height="60" as="geometry" />
        </mxCell>
        <mxCell id="hyylRVP1O5ARUxNAKlt3-11" value="" style="endArrow=none;dashed=1;html=1;rounded=0;labelBackgroundColor=default;strokeColor=default;fontFamily=Helvetica;fontSize=12;fontColor=default;shape=connector;exitX=0.124;exitY=1.009;exitDx=0;exitDy=0;exitPerimeter=0;orthogonal=1;" edge="1" parent="hyylRVP1O5ARUxNAKlt3-1" source="hyylRVP1O5ARUxNAKlt3-1" target="hyylRVP1O5ARUxNAKlt3-12">
          <mxGeometry width="50" height="50" relative="1" as="geometry">
            <mxPoint x="360" y="160" as="sourcePoint" />
            <mxPoint x="410" y="110" as="targetPoint" />
          </mxGeometry>
        </mxCell>
        <mxCell id="hyylRVP1O5ARUxNAKlt3-12" value="Player" style="shape=umlActor;verticalLabelPosition=bottom;verticalAlign=top;html=1;strokeColor=default;fontFamily=Helvetica;fontSize=12;fontColor=default;fillColor=default;labelBackgroundColor=default;" vertex="1" parent="hyylRVP1O5ARUxNAKlt3-1">
          <mxGeometry x="70" y="40" width="30" height="60" as="geometry" />
        </mxCell>
        <mxCell id="hyylRVP1O5ARUxNAKlt3-13" value="" style="html=1;verticalAlign=bottom;endArrow=open;dashed=1;endSize=8;curved=0;rounded=0;labelBackgroundColor=default;strokeColor=default;fontFamily=Helvetica;fontSize=12;fontColor=default;shape=connector;" edge="1" parent="hyylRVP1O5ARUxNAKlt3-1" source="hyylRVP1O5ARUxNAKlt3-5">
          <mxGeometry relative="1" as="geometry">
            <mxPoint x="85" y="321" as="targetPoint" />
            <mxPoint x="316" y="321" as="sourcePoint" />
          </mxGeometry>
        </mxCell>
        <mxCell id="hyylRVP1O5ARUxNAKlt3-14" value="fetch(game session)" style="html=1;verticalAlign=bottom;endArrow=block;curved=0;rounded=0;labelBackgroundColor=default;strokeColor=default;fontFamily=Helvetica;fontSize=12;fontColor=default;shape=connector;" edge="1" parent="hyylRVP1O5ARUxNAKlt3-1">
          <mxGeometry relative="1" as="geometry">
            <mxPoint x="326" y="291" as="sourcePoint" />
            <mxPoint x="466" y="291" as="targetPoint" />
            <mxPoint as="offset" />
          </mxGeometry>
        </mxCell>
        <mxCell id="hyylRVP1O5ARUxNAKlt3-15" value="" style="html=1;verticalAlign=bottom;endArrow=open;dashed=1;endSize=8;curved=0;rounded=0;labelBackgroundColor=default;strokeColor=default;fontFamily=Helvetica;fontSize=12;fontColor=default;shape=connector;" edge="1" parent="hyylRVP1O5ARUxNAKlt3-1" target="hyylRVP1O5ARUxNAKlt3-5">
          <mxGeometry relative="1" as="geometry">
            <mxPoint x="321.27011494252883" y="310.89" as="targetPoint" />
            <mxPoint x="466" y="310.89" as="sourcePoint" />
          </mxGeometry>
        </mxCell>
        <mxCell id="hyylRVP1O5ARUxNAKlt3-16" value="" style="html=1;verticalAlign=bottom;endArrow=open;dashed=1;endSize=8;curved=0;rounded=0;labelBackgroundColor=default;strokeColor=default;fontFamily=Helvetica;fontSize=12;fontColor=default;shape=connector;" edge="1" parent="hyylRVP1O5ARUxNAKlt3-1">
          <mxGeometry relative="1" as="geometry">
            <mxPoint x="160" y="155" as="targetPoint" />
            <mxPoint x="315" y="155" as="sourcePoint" />
          </mxGeometry>
        </mxCell>
        <mxCell id="hyylRVP1O5ARUxNAKlt3-17" value="config(inGameOptions)" style="html=1;verticalAlign=bottom;endArrow=block;curved=0;rounded=0;" edge="1" parent="hyylRVP1O5ARUxNAKlt3-1" target="hyylRVP1O5ARUxNAKlt3-4">
          <mxGeometry relative="1" as="geometry">
            <mxPoint x="160" y="180" as="sourcePoint" />
            <mxPoint x="310" y="180" as="targetPoint" />
          </mxGeometry>
        </mxCell>
        <mxCell id="hyylRVP1O5ARUxNAKlt3-18" value="" style="html=1;verticalAlign=bottom;endArrow=open;dashed=1;endSize=8;curved=0;rounded=0;labelBackgroundColor=default;strokeColor=default;fontFamily=Helvetica;fontSize=12;fontColor=default;shape=connector;" edge="1" parent="hyylRVP1O5ARUxNAKlt3-1">
          <mxGeometry relative="1" as="geometry">
            <mxPoint x="160" y="200" as="targetPoint" />
            <mxPoint x="315" y="200" as="sourcePoint" />
          </mxGeometry>
        </mxCell>
        <mxCell id="hyylRVP1O5ARUxNAKlt3-19" value="create(gameSession)" style="html=1;verticalAlign=bottom;endArrow=block;curved=0;rounded=0;entryX=0;entryY=0;entryDx=0;entryDy=5;" edge="1" parent="hyylRVP1O5ARUxNAKlt3-1" source="hyylRVP1O5ARUxNAKlt3-4" target="hyylRVP1O5ARUxNAKlt3-9">
          <mxGeometry relative="1" as="geometry">
            <mxPoint x="395" y="225" as="sourcePoint" />
          </mxGeometry>
        </mxCell>
        <mxCell id="hyylRVP1O5ARUxNAKlt3-20" value="create(gameSession)" style="html=1;verticalAlign=bottom;endArrow=block;curved=0;rounded=0;" edge="1" parent="hyylRVP1O5ARUxNAKlt3-1">
          <mxGeometry relative="1" as="geometry">
            <mxPoint x="160" y="220" as="sourcePoint" />
            <mxPoint x="315" y="220" as="targetPoint" />
          </mxGeometry>
        </mxCell>
        <mxCell id="hyylRVP1O5ARUxNAKlt3-21" value="" style="html=1;verticalAlign=bottom;endArrow=open;dashed=1;endSize=8;curved=0;rounded=0;exitX=0;exitY=1;exitDx=0;exitDy=-5;" edge="1" parent="hyylRVP1O5ARUxNAKlt3-1">
          <mxGeometry relative="1" as="geometry">
            <mxPoint x="325" y="239" as="targetPoint" />
            <mxPoint x="465" y="240" as="sourcePoint" />
          </mxGeometry>
        </mxCell>
        <mxCell id="hyylRVP1O5ARUxNAKlt3-22" value="" style="html=1;verticalAlign=bottom;endArrow=open;dashed=1;endSize=8;curved=0;rounded=0;exitX=0;exitY=1;exitDx=0;exitDy=-5;" edge="1" parent="hyylRVP1O5ARUxNAKlt3-1">
          <mxGeometry relative="1" as="geometry">
            <mxPoint x="160" y="250" as="targetPoint" />
            <mxPoint x="320" y="250" as="sourcePoint" />
          </mxGeometry>
        </mxCell>
        <mxCell id="hyylRVP1O5ARUxNAKlt3-23" value="select(gameMode)" style="html=1;verticalAlign=bottom;endArrow=block;curved=0;rounded=0;labelBackgroundColor=default;strokeColor=default;fontFamily=Helvetica;fontSize=12;fontColor=default;shape=connector;" edge="1" parent="1" target="hyylRVP1O5ARUxNAKlt3-4">
          <mxGeometry relative="1" as="geometry">
            <mxPoint x="245" y="1624" as="sourcePoint" />
          </mxGeometry>
        </mxCell>
      </root>
    </mxGraphModel>
  </diagram>
  <diagram id="TFMkMWlilGSuXDdV-fHq" name="diagramme_seq_chat">
    <mxGraphModel dx="1501" dy="-1374" grid="1" gridSize="10" guides="1" tooltips="1" connect="1" arrows="1" fold="1" page="1" pageScale="1" pageWidth="850" pageHeight="1100" math="0" shadow="0">
      <root>
        <mxCell id="0" />
        <mxCell id="1" parent="0" />
        <mxCell id="yTkBx_gGuxqSH18NtEtm-1" value="Messagerie" style="shape=umlFrame;whiteSpace=wrap;html=1;pointerEvents=0;recursiveResize=0;container=1;collapsible=0;width=160;" vertex="1" parent="1">
          <mxGeometry x="90" y="2562" width="670" height="370" as="geometry" />
        </mxCell>
        <mxCell id="yTkBx_gGuxqSH18NtEtm-2" value="msg:ChatWindowPage&amp;nbsp;" style="shape=umlLifeline;perimeter=lifelinePerimeter;whiteSpace=wrap;html=1;container=1;dropTarget=0;collapsible=0;recursiveResize=0;outlineConnect=0;portConstraint=eastwest;newEdgeStyle={&quot;edgeStyle&quot;:&quot;elbowEdgeStyle&quot;,&quot;elbow&quot;:&quot;vertical&quot;,&quot;curved&quot;:0,&quot;rounded&quot;:0};" vertex="1" parent="yTkBx_gGuxqSH18NtEtm-1">
          <mxGeometry x="150" y="60" width="140" height="300" as="geometry" />
        </mxCell>
        <mxCell id="yTkBx_gGuxqSH18NtEtm-3" value="" style="html=1;points=[[0,0,0,0,5],[0,1,0,0,-5],[1,0,0,0,5],[1,1,0,0,-5]];perimeter=orthogonalPerimeter;outlineConnect=0;targetShapes=umlLifeline;portConstraint=eastwest;newEdgeStyle={&quot;curved&quot;:0,&quot;rounded&quot;:0};" vertex="1" parent="yTkBx_gGuxqSH18NtEtm-2">
          <mxGeometry x="65" y="220" width="10" height="80" as="geometry" />
        </mxCell>
        <mxCell id="yTkBx_gGuxqSH18NtEtm-4" value="quit()" style="html=1;verticalAlign=bottom;endArrow=block;curved=0;rounded=0;entryX=0;entryY=0;entryDx=0;entryDy=5;" edge="1" parent="yTkBx_gGuxqSH18NtEtm-2" target="yTkBx_gGuxqSH18NtEtm-3">
          <mxGeometry relative="1" as="geometry">
            <mxPoint x="-105" y="225" as="sourcePoint" />
          </mxGeometry>
        </mxCell>
        <mxCell id="yTkBx_gGuxqSH18NtEtm-5" value="s:Server" style="shape=umlLifeline;perimeter=lifelinePerimeter;whiteSpace=wrap;html=1;container=1;dropTarget=0;collapsible=0;recursiveResize=0;outlineConnect=0;portConstraint=eastwest;newEdgeStyle={&quot;edgeStyle&quot;:&quot;elbowEdgeStyle&quot;,&quot;elbow&quot;:&quot;vertical&quot;,&quot;curved&quot;:0,&quot;rounded&quot;:0};" vertex="1" parent="yTkBx_gGuxqSH18NtEtm-1">
          <mxGeometry x="310" y="60" width="100" height="310" as="geometry" />
        </mxCell>
        <mxCell id="yTkBx_gGuxqSH18NtEtm-6" value="" style="html=1;points=[[0,0,0,0,5],[0,1,0,0,-5],[1,0,0,0,5],[1,1,0,0,-5]];perimeter=orthogonalPerimeter;outlineConnect=0;targetShapes=umlLifeline;portConstraint=eastwest;newEdgeStyle={&quot;curved&quot;:0,&quot;rounded&quot;:0};" vertex="1" parent="yTkBx_gGuxqSH18NtEtm-5">
          <mxGeometry x="45" y="130" width="10" height="60" as="geometry" />
        </mxCell>
        <mxCell id="yTkBx_gGuxqSH18NtEtm-7" value="" style="html=1;points=[[0,0,0,0,5],[0,1,0,0,-5],[1,0,0,0,5],[1,1,0,0,-5]];perimeter=orthogonalPerimeter;outlineConnect=0;targetShapes=umlLifeline;portConstraint=eastwest;newEdgeStyle={&quot;curved&quot;:0,&quot;rounded&quot;:0};" vertex="1" parent="yTkBx_gGuxqSH18NtEtm-5">
          <mxGeometry x="45" y="230" width="10" height="30" as="geometry" />
        </mxCell>
        <mxCell id="yTkBx_gGuxqSH18NtEtm-8" value="db:MongoDB" style="shape=umlLifeline;perimeter=lifelinePerimeter;whiteSpace=wrap;html=1;container=1;dropTarget=0;collapsible=0;recursiveResize=0;outlineConnect=0;portConstraint=eastwest;newEdgeStyle={&quot;edgeStyle&quot;:&quot;elbowEdgeStyle&quot;,&quot;elbow&quot;:&quot;vertical&quot;,&quot;curved&quot;:0,&quot;rounded&quot;:0};" vertex="1" parent="yTkBx_gGuxqSH18NtEtm-1">
          <mxGeometry x="430" y="60" width="100" height="300" as="geometry" />
        </mxCell>
        <mxCell id="yTkBx_gGuxqSH18NtEtm-9" value="" style="html=1;points=[[0,0,0,0,5],[0,1,0,0,-5],[1,0,0,0,5],[1,1,0,0,-5]];perimeter=orthogonalPerimeter;outlineConnect=0;targetShapes=umlLifeline;portConstraint=eastwest;newEdgeStyle={&quot;curved&quot;:0,&quot;rounded&quot;:0};" vertex="1" parent="yTkBx_gGuxqSH18NtEtm-8">
          <mxGeometry x="45" y="140" width="10" height="40" as="geometry" />
        </mxCell>
        <mxCell id="yTkBx_gGuxqSH18NtEtm-10" value="" style="html=1;points=[[0,0,0,0,5],[0,1,0,0,-5],[1,0,0,0,5],[1,1,0,0,-5]];perimeter=orthogonalPerimeter;outlineConnect=0;targetShapes=umlLifeline;portConstraint=eastwest;newEdgeStyle={&quot;curved&quot;:0,&quot;rounded&quot;:0};" vertex="1" parent="yTkBx_gGuxqSH18NtEtm-1">
          <mxGeometry x="215" y="180" width="10" height="180" as="geometry" />
        </mxCell>
        <mxCell id="yTkBx_gGuxqSH18NtEtm-11" value="input()" style="html=1;verticalAlign=bottom;endArrow=block;curved=0;rounded=0;entryX=0;entryY=0;entryDx=0;entryDy=5;" edge="1" parent="yTkBx_gGuxqSH18NtEtm-1">
          <mxGeometry relative="1" as="geometry">
            <mxPoint x="40" y="180" as="sourcePoint" />
            <mxPoint x="215" y="180" as="targetPoint" />
          </mxGeometry>
        </mxCell>
        <mxCell id="yTkBx_gGuxqSH18NtEtm-12" value="" style="html=1;verticalAlign=bottom;endArrow=open;dashed=1;endSize=8;curved=0;rounded=0;" edge="1" parent="yTkBx_gGuxqSH18NtEtm-1">
          <mxGeometry relative="1" as="geometry">
            <mxPoint x="40" y="260" as="targetPoint" />
            <mxPoint x="215" y="260" as="sourcePoint" />
          </mxGeometry>
        </mxCell>
        <mxCell id="yTkBx_gGuxqSH18NtEtm-13" value="" style="endArrow=none;dashed=1;html=1;rounded=0;exitX=0.462;exitY=0.733;exitDx=0;exitDy=0;exitPerimeter=0;orthogonal=1;entryX=0.058;entryY=1.015;entryDx=0;entryDy=0;entryPerimeter=0;" edge="1" parent="yTkBx_gGuxqSH18NtEtm-1" source="yTkBx_gGuxqSH18NtEtm-14" target="yTkBx_gGuxqSH18NtEtm-1">
          <mxGeometry width="50" height="50" relative="1" as="geometry">
            <mxPoint x="380" y="250" as="sourcePoint" />
            <mxPoint x="39" y="560" as="targetPoint" />
          </mxGeometry>
        </mxCell>
        <mxCell id="yTkBx_gGuxqSH18NtEtm-14" value="Utilisateur" style="shape=umlActor;verticalLabelPosition=bottom;verticalAlign=top;html=1;labelBackgroundColor=default;" vertex="1" parent="yTkBx_gGuxqSH18NtEtm-1">
          <mxGeometry x="25" y="60" width="30" height="60" as="geometry" />
        </mxCell>
        <mxCell id="yTkBx_gGuxqSH18NtEtm-15" value="" style="html=1;verticalAlign=bottom;endArrow=open;dashed=1;endSize=8;curved=0;rounded=0;exitX=0;exitY=1;exitDx=0;exitDy=-5;" edge="1" parent="yTkBx_gGuxqSH18NtEtm-1">
          <mxGeometry relative="1" as="geometry">
            <mxPoint x="225" y="250" as="targetPoint" />
            <mxPoint x="355" y="250" as="sourcePoint" />
          </mxGeometry>
        </mxCell>
        <mxCell id="yTkBx_gGuxqSH18NtEtm-16" value="send(msg)" style="html=1;verticalAlign=bottom;endArrow=block;curved=0;rounded=0;" edge="1" parent="yTkBx_gGuxqSH18NtEtm-1">
          <mxGeometry relative="1" as="geometry">
            <mxPoint x="225" y="190" as="sourcePoint" />
            <mxPoint x="355" y="190" as="targetPoint" />
          </mxGeometry>
        </mxCell>
        <mxCell id="yTkBx_gGuxqSH18NtEtm-17" value="" style="html=1;verticalAlign=bottom;endArrow=open;dashed=1;endSize=8;curved=0;rounded=0;exitX=0;exitY=1;exitDx=0;exitDy=-5;" edge="1" parent="yTkBx_gGuxqSH18NtEtm-1" target="yTkBx_gGuxqSH18NtEtm-6">
          <mxGeometry relative="1" as="geometry">
            <mxPoint x="370" y="240" as="targetPoint" />
            <mxPoint x="475" y="240" as="sourcePoint" />
          </mxGeometry>
        </mxCell>
        <mxCell id="yTkBx_gGuxqSH18NtEtm-18" value="add(msg)" style="html=1;verticalAlign=bottom;endArrow=block;curved=0;rounded=0;entryX=0;entryY=0;entryDx=0;entryDy=5;" edge="1" parent="yTkBx_gGuxqSH18NtEtm-1" source="yTkBx_gGuxqSH18NtEtm-6" target="yTkBx_gGuxqSH18NtEtm-9">
          <mxGeometry relative="1" as="geometry">
            <mxPoint x="405" y="205" as="sourcePoint" />
          </mxGeometry>
        </mxCell>
        <mxCell id="yTkBx_gGuxqSH18NtEtm-19" value="" style="html=1;verticalAlign=bottom;endArrow=open;dashed=1;endSize=8;curved=0;rounded=0;exitX=0;exitY=1;exitDx=0;exitDy=-5;" edge="1" parent="yTkBx_gGuxqSH18NtEtm-1">
          <mxGeometry relative="1" as="geometry">
            <mxPoint x="45" y="320" as="targetPoint" />
            <mxPoint x="215" y="320" as="sourcePoint" />
            <mxPoint as="offset" />
          </mxGeometry>
        </mxCell>
        <mxCell id="yTkBx_gGuxqSH18NtEtm-20" value="return" style="html=1;verticalAlign=bottom;endArrow=open;dashed=1;endSize=8;curved=0;rounded=0;exitX=0;exitY=1;exitDx=0;exitDy=-5;" edge="1" parent="yTkBx_gGuxqSH18NtEtm-1" source="yTkBx_gGuxqSH18NtEtm-7" target="yTkBx_gGuxqSH18NtEtm-10">
          <mxGeometry relative="1" as="geometry">
            <mxPoint x="285" y="365" as="targetPoint" />
          </mxGeometry>
        </mxCell>
        <mxCell id="yTkBx_gGuxqSH18NtEtm-21" value="quit()" style="html=1;verticalAlign=bottom;endArrow=block;curved=0;rounded=0;entryX=0;entryY=0;entryDx=0;entryDy=5;" edge="1" parent="yTkBx_gGuxqSH18NtEtm-1" source="yTkBx_gGuxqSH18NtEtm-10" target="yTkBx_gGuxqSH18NtEtm-7">
          <mxGeometry relative="1" as="geometry">
            <mxPoint x="285" y="295" as="sourcePoint" />
          </mxGeometry>
        </mxCell>
      </root>
    </mxGraphModel>
  </diagram>
</mxfile>
